G75*
%MOIN*%
%OFA0B0*%
%FSLAX25Y25*%
%IPPOS*%
%LPD*%
%AMOC8*
5,1,8,0,0,1.08239X$1,22.5*
%
%ADD10C,0.00000*%
%ADD11C,0.01100*%
%ADD12C,0.00600*%
%ADD13C,0.01600*%
%ADD14C,0.00400*%
%ADD15C,0.00500*%
%ADD16C,0.00800*%
D10*
X0010074Y0008163D02*
X0010074Y0268006D01*
X0119129Y0268006D01*
X0119129Y0244384D01*
X0205743Y0244384D01*
X0205743Y0268006D01*
X0285665Y0268006D01*
X0285665Y0008163D01*
X0010074Y0008163D01*
X0090802Y0044163D02*
X0090804Y0044323D01*
X0090810Y0044482D01*
X0090820Y0044641D01*
X0090834Y0044800D01*
X0090852Y0044959D01*
X0090873Y0045117D01*
X0090899Y0045274D01*
X0090929Y0045431D01*
X0090962Y0045587D01*
X0091000Y0045742D01*
X0091041Y0045896D01*
X0091086Y0046049D01*
X0091135Y0046201D01*
X0091188Y0046351D01*
X0091244Y0046500D01*
X0091304Y0046648D01*
X0091368Y0046794D01*
X0091436Y0046939D01*
X0091507Y0047082D01*
X0091581Y0047223D01*
X0091659Y0047362D01*
X0091741Y0047499D01*
X0091826Y0047634D01*
X0091914Y0047767D01*
X0092005Y0047898D01*
X0092100Y0048026D01*
X0092198Y0048152D01*
X0092299Y0048276D01*
X0092403Y0048396D01*
X0092510Y0048515D01*
X0092620Y0048630D01*
X0092733Y0048743D01*
X0092848Y0048853D01*
X0092967Y0048960D01*
X0093087Y0049064D01*
X0093211Y0049165D01*
X0093337Y0049263D01*
X0093465Y0049358D01*
X0093596Y0049449D01*
X0093729Y0049537D01*
X0093864Y0049622D01*
X0094001Y0049704D01*
X0094140Y0049782D01*
X0094281Y0049856D01*
X0094424Y0049927D01*
X0094569Y0049995D01*
X0094715Y0050059D01*
X0094863Y0050119D01*
X0095012Y0050175D01*
X0095162Y0050228D01*
X0095314Y0050277D01*
X0095467Y0050322D01*
X0095621Y0050363D01*
X0095776Y0050401D01*
X0095932Y0050434D01*
X0096089Y0050464D01*
X0096246Y0050490D01*
X0096404Y0050511D01*
X0096563Y0050529D01*
X0096722Y0050543D01*
X0096881Y0050553D01*
X0097040Y0050559D01*
X0097200Y0050561D01*
X0097360Y0050559D01*
X0097519Y0050553D01*
X0097678Y0050543D01*
X0097837Y0050529D01*
X0097996Y0050511D01*
X0098154Y0050490D01*
X0098311Y0050464D01*
X0098468Y0050434D01*
X0098624Y0050401D01*
X0098779Y0050363D01*
X0098933Y0050322D01*
X0099086Y0050277D01*
X0099238Y0050228D01*
X0099388Y0050175D01*
X0099537Y0050119D01*
X0099685Y0050059D01*
X0099831Y0049995D01*
X0099976Y0049927D01*
X0100119Y0049856D01*
X0100260Y0049782D01*
X0100399Y0049704D01*
X0100536Y0049622D01*
X0100671Y0049537D01*
X0100804Y0049449D01*
X0100935Y0049358D01*
X0101063Y0049263D01*
X0101189Y0049165D01*
X0101313Y0049064D01*
X0101433Y0048960D01*
X0101552Y0048853D01*
X0101667Y0048743D01*
X0101780Y0048630D01*
X0101890Y0048515D01*
X0101997Y0048396D01*
X0102101Y0048276D01*
X0102202Y0048152D01*
X0102300Y0048026D01*
X0102395Y0047898D01*
X0102486Y0047767D01*
X0102574Y0047634D01*
X0102659Y0047499D01*
X0102741Y0047362D01*
X0102819Y0047223D01*
X0102893Y0047082D01*
X0102964Y0046939D01*
X0103032Y0046794D01*
X0103096Y0046648D01*
X0103156Y0046500D01*
X0103212Y0046351D01*
X0103265Y0046201D01*
X0103314Y0046049D01*
X0103359Y0045896D01*
X0103400Y0045742D01*
X0103438Y0045587D01*
X0103471Y0045431D01*
X0103501Y0045274D01*
X0103527Y0045117D01*
X0103548Y0044959D01*
X0103566Y0044800D01*
X0103580Y0044641D01*
X0103590Y0044482D01*
X0103596Y0044323D01*
X0103598Y0044163D01*
X0103596Y0044003D01*
X0103590Y0043844D01*
X0103580Y0043685D01*
X0103566Y0043526D01*
X0103548Y0043367D01*
X0103527Y0043209D01*
X0103501Y0043052D01*
X0103471Y0042895D01*
X0103438Y0042739D01*
X0103400Y0042584D01*
X0103359Y0042430D01*
X0103314Y0042277D01*
X0103265Y0042125D01*
X0103212Y0041975D01*
X0103156Y0041826D01*
X0103096Y0041678D01*
X0103032Y0041532D01*
X0102964Y0041387D01*
X0102893Y0041244D01*
X0102819Y0041103D01*
X0102741Y0040964D01*
X0102659Y0040827D01*
X0102574Y0040692D01*
X0102486Y0040559D01*
X0102395Y0040428D01*
X0102300Y0040300D01*
X0102202Y0040174D01*
X0102101Y0040050D01*
X0101997Y0039930D01*
X0101890Y0039811D01*
X0101780Y0039696D01*
X0101667Y0039583D01*
X0101552Y0039473D01*
X0101433Y0039366D01*
X0101313Y0039262D01*
X0101189Y0039161D01*
X0101063Y0039063D01*
X0100935Y0038968D01*
X0100804Y0038877D01*
X0100671Y0038789D01*
X0100536Y0038704D01*
X0100399Y0038622D01*
X0100260Y0038544D01*
X0100119Y0038470D01*
X0099976Y0038399D01*
X0099831Y0038331D01*
X0099685Y0038267D01*
X0099537Y0038207D01*
X0099388Y0038151D01*
X0099238Y0038098D01*
X0099086Y0038049D01*
X0098933Y0038004D01*
X0098779Y0037963D01*
X0098624Y0037925D01*
X0098468Y0037892D01*
X0098311Y0037862D01*
X0098154Y0037836D01*
X0097996Y0037815D01*
X0097837Y0037797D01*
X0097678Y0037783D01*
X0097519Y0037773D01*
X0097360Y0037767D01*
X0097200Y0037765D01*
X0097040Y0037767D01*
X0096881Y0037773D01*
X0096722Y0037783D01*
X0096563Y0037797D01*
X0096404Y0037815D01*
X0096246Y0037836D01*
X0096089Y0037862D01*
X0095932Y0037892D01*
X0095776Y0037925D01*
X0095621Y0037963D01*
X0095467Y0038004D01*
X0095314Y0038049D01*
X0095162Y0038098D01*
X0095012Y0038151D01*
X0094863Y0038207D01*
X0094715Y0038267D01*
X0094569Y0038331D01*
X0094424Y0038399D01*
X0094281Y0038470D01*
X0094140Y0038544D01*
X0094001Y0038622D01*
X0093864Y0038704D01*
X0093729Y0038789D01*
X0093596Y0038877D01*
X0093465Y0038968D01*
X0093337Y0039063D01*
X0093211Y0039161D01*
X0093087Y0039262D01*
X0092967Y0039366D01*
X0092848Y0039473D01*
X0092733Y0039583D01*
X0092620Y0039696D01*
X0092510Y0039811D01*
X0092403Y0039930D01*
X0092299Y0040050D01*
X0092198Y0040174D01*
X0092100Y0040300D01*
X0092005Y0040428D01*
X0091914Y0040559D01*
X0091826Y0040692D01*
X0091741Y0040827D01*
X0091659Y0040964D01*
X0091581Y0041103D01*
X0091507Y0041244D01*
X0091436Y0041387D01*
X0091368Y0041532D01*
X0091304Y0041678D01*
X0091244Y0041826D01*
X0091188Y0041975D01*
X0091135Y0042125D01*
X0091086Y0042277D01*
X0091041Y0042430D01*
X0091000Y0042584D01*
X0090962Y0042739D01*
X0090929Y0042895D01*
X0090899Y0043052D01*
X0090873Y0043209D01*
X0090852Y0043367D01*
X0090834Y0043526D01*
X0090820Y0043685D01*
X0090810Y0043844D01*
X0090804Y0044003D01*
X0090802Y0044163D01*
X0190802Y0044163D02*
X0190804Y0044323D01*
X0190810Y0044482D01*
X0190820Y0044641D01*
X0190834Y0044800D01*
X0190852Y0044959D01*
X0190873Y0045117D01*
X0190899Y0045274D01*
X0190929Y0045431D01*
X0190962Y0045587D01*
X0191000Y0045742D01*
X0191041Y0045896D01*
X0191086Y0046049D01*
X0191135Y0046201D01*
X0191188Y0046351D01*
X0191244Y0046500D01*
X0191304Y0046648D01*
X0191368Y0046794D01*
X0191436Y0046939D01*
X0191507Y0047082D01*
X0191581Y0047223D01*
X0191659Y0047362D01*
X0191741Y0047499D01*
X0191826Y0047634D01*
X0191914Y0047767D01*
X0192005Y0047898D01*
X0192100Y0048026D01*
X0192198Y0048152D01*
X0192299Y0048276D01*
X0192403Y0048396D01*
X0192510Y0048515D01*
X0192620Y0048630D01*
X0192733Y0048743D01*
X0192848Y0048853D01*
X0192967Y0048960D01*
X0193087Y0049064D01*
X0193211Y0049165D01*
X0193337Y0049263D01*
X0193465Y0049358D01*
X0193596Y0049449D01*
X0193729Y0049537D01*
X0193864Y0049622D01*
X0194001Y0049704D01*
X0194140Y0049782D01*
X0194281Y0049856D01*
X0194424Y0049927D01*
X0194569Y0049995D01*
X0194715Y0050059D01*
X0194863Y0050119D01*
X0195012Y0050175D01*
X0195162Y0050228D01*
X0195314Y0050277D01*
X0195467Y0050322D01*
X0195621Y0050363D01*
X0195776Y0050401D01*
X0195932Y0050434D01*
X0196089Y0050464D01*
X0196246Y0050490D01*
X0196404Y0050511D01*
X0196563Y0050529D01*
X0196722Y0050543D01*
X0196881Y0050553D01*
X0197040Y0050559D01*
X0197200Y0050561D01*
X0197360Y0050559D01*
X0197519Y0050553D01*
X0197678Y0050543D01*
X0197837Y0050529D01*
X0197996Y0050511D01*
X0198154Y0050490D01*
X0198311Y0050464D01*
X0198468Y0050434D01*
X0198624Y0050401D01*
X0198779Y0050363D01*
X0198933Y0050322D01*
X0199086Y0050277D01*
X0199238Y0050228D01*
X0199388Y0050175D01*
X0199537Y0050119D01*
X0199685Y0050059D01*
X0199831Y0049995D01*
X0199976Y0049927D01*
X0200119Y0049856D01*
X0200260Y0049782D01*
X0200399Y0049704D01*
X0200536Y0049622D01*
X0200671Y0049537D01*
X0200804Y0049449D01*
X0200935Y0049358D01*
X0201063Y0049263D01*
X0201189Y0049165D01*
X0201313Y0049064D01*
X0201433Y0048960D01*
X0201552Y0048853D01*
X0201667Y0048743D01*
X0201780Y0048630D01*
X0201890Y0048515D01*
X0201997Y0048396D01*
X0202101Y0048276D01*
X0202202Y0048152D01*
X0202300Y0048026D01*
X0202395Y0047898D01*
X0202486Y0047767D01*
X0202574Y0047634D01*
X0202659Y0047499D01*
X0202741Y0047362D01*
X0202819Y0047223D01*
X0202893Y0047082D01*
X0202964Y0046939D01*
X0203032Y0046794D01*
X0203096Y0046648D01*
X0203156Y0046500D01*
X0203212Y0046351D01*
X0203265Y0046201D01*
X0203314Y0046049D01*
X0203359Y0045896D01*
X0203400Y0045742D01*
X0203438Y0045587D01*
X0203471Y0045431D01*
X0203501Y0045274D01*
X0203527Y0045117D01*
X0203548Y0044959D01*
X0203566Y0044800D01*
X0203580Y0044641D01*
X0203590Y0044482D01*
X0203596Y0044323D01*
X0203598Y0044163D01*
X0203596Y0044003D01*
X0203590Y0043844D01*
X0203580Y0043685D01*
X0203566Y0043526D01*
X0203548Y0043367D01*
X0203527Y0043209D01*
X0203501Y0043052D01*
X0203471Y0042895D01*
X0203438Y0042739D01*
X0203400Y0042584D01*
X0203359Y0042430D01*
X0203314Y0042277D01*
X0203265Y0042125D01*
X0203212Y0041975D01*
X0203156Y0041826D01*
X0203096Y0041678D01*
X0203032Y0041532D01*
X0202964Y0041387D01*
X0202893Y0041244D01*
X0202819Y0041103D01*
X0202741Y0040964D01*
X0202659Y0040827D01*
X0202574Y0040692D01*
X0202486Y0040559D01*
X0202395Y0040428D01*
X0202300Y0040300D01*
X0202202Y0040174D01*
X0202101Y0040050D01*
X0201997Y0039930D01*
X0201890Y0039811D01*
X0201780Y0039696D01*
X0201667Y0039583D01*
X0201552Y0039473D01*
X0201433Y0039366D01*
X0201313Y0039262D01*
X0201189Y0039161D01*
X0201063Y0039063D01*
X0200935Y0038968D01*
X0200804Y0038877D01*
X0200671Y0038789D01*
X0200536Y0038704D01*
X0200399Y0038622D01*
X0200260Y0038544D01*
X0200119Y0038470D01*
X0199976Y0038399D01*
X0199831Y0038331D01*
X0199685Y0038267D01*
X0199537Y0038207D01*
X0199388Y0038151D01*
X0199238Y0038098D01*
X0199086Y0038049D01*
X0198933Y0038004D01*
X0198779Y0037963D01*
X0198624Y0037925D01*
X0198468Y0037892D01*
X0198311Y0037862D01*
X0198154Y0037836D01*
X0197996Y0037815D01*
X0197837Y0037797D01*
X0197678Y0037783D01*
X0197519Y0037773D01*
X0197360Y0037767D01*
X0197200Y0037765D01*
X0197040Y0037767D01*
X0196881Y0037773D01*
X0196722Y0037783D01*
X0196563Y0037797D01*
X0196404Y0037815D01*
X0196246Y0037836D01*
X0196089Y0037862D01*
X0195932Y0037892D01*
X0195776Y0037925D01*
X0195621Y0037963D01*
X0195467Y0038004D01*
X0195314Y0038049D01*
X0195162Y0038098D01*
X0195012Y0038151D01*
X0194863Y0038207D01*
X0194715Y0038267D01*
X0194569Y0038331D01*
X0194424Y0038399D01*
X0194281Y0038470D01*
X0194140Y0038544D01*
X0194001Y0038622D01*
X0193864Y0038704D01*
X0193729Y0038789D01*
X0193596Y0038877D01*
X0193465Y0038968D01*
X0193337Y0039063D01*
X0193211Y0039161D01*
X0193087Y0039262D01*
X0192967Y0039366D01*
X0192848Y0039473D01*
X0192733Y0039583D01*
X0192620Y0039696D01*
X0192510Y0039811D01*
X0192403Y0039930D01*
X0192299Y0040050D01*
X0192198Y0040174D01*
X0192100Y0040300D01*
X0192005Y0040428D01*
X0191914Y0040559D01*
X0191826Y0040692D01*
X0191741Y0040827D01*
X0191659Y0040964D01*
X0191581Y0041103D01*
X0191507Y0041244D01*
X0191436Y0041387D01*
X0191368Y0041532D01*
X0191304Y0041678D01*
X0191244Y0041826D01*
X0191188Y0041975D01*
X0191135Y0042125D01*
X0191086Y0042277D01*
X0191041Y0042430D01*
X0191000Y0042584D01*
X0190962Y0042739D01*
X0190929Y0042895D01*
X0190899Y0043052D01*
X0190873Y0043209D01*
X0190852Y0043367D01*
X0190834Y0043526D01*
X0190820Y0043685D01*
X0190810Y0043844D01*
X0190804Y0044003D01*
X0190802Y0044163D01*
X0235901Y0250163D02*
X0235903Y0250321D01*
X0235909Y0250479D01*
X0235919Y0250637D01*
X0235933Y0250795D01*
X0235951Y0250952D01*
X0235972Y0251109D01*
X0235998Y0251265D01*
X0236028Y0251421D01*
X0236061Y0251576D01*
X0236099Y0251729D01*
X0236140Y0251882D01*
X0236185Y0252034D01*
X0236234Y0252185D01*
X0236287Y0252334D01*
X0236343Y0252482D01*
X0236403Y0252628D01*
X0236467Y0252773D01*
X0236535Y0252916D01*
X0236606Y0253058D01*
X0236680Y0253198D01*
X0236758Y0253335D01*
X0236840Y0253471D01*
X0236924Y0253605D01*
X0237013Y0253736D01*
X0237104Y0253865D01*
X0237199Y0253992D01*
X0237296Y0254117D01*
X0237397Y0254239D01*
X0237501Y0254358D01*
X0237608Y0254475D01*
X0237718Y0254589D01*
X0237831Y0254700D01*
X0237946Y0254809D01*
X0238064Y0254914D01*
X0238185Y0255016D01*
X0238308Y0255116D01*
X0238434Y0255212D01*
X0238562Y0255305D01*
X0238692Y0255395D01*
X0238825Y0255481D01*
X0238960Y0255565D01*
X0239096Y0255644D01*
X0239235Y0255721D01*
X0239376Y0255793D01*
X0239518Y0255863D01*
X0239662Y0255928D01*
X0239808Y0255990D01*
X0239955Y0256048D01*
X0240104Y0256103D01*
X0240254Y0256154D01*
X0240405Y0256201D01*
X0240557Y0256244D01*
X0240710Y0256283D01*
X0240865Y0256319D01*
X0241020Y0256350D01*
X0241176Y0256378D01*
X0241332Y0256402D01*
X0241489Y0256422D01*
X0241647Y0256438D01*
X0241804Y0256450D01*
X0241963Y0256458D01*
X0242121Y0256462D01*
X0242279Y0256462D01*
X0242437Y0256458D01*
X0242596Y0256450D01*
X0242753Y0256438D01*
X0242911Y0256422D01*
X0243068Y0256402D01*
X0243224Y0256378D01*
X0243380Y0256350D01*
X0243535Y0256319D01*
X0243690Y0256283D01*
X0243843Y0256244D01*
X0243995Y0256201D01*
X0244146Y0256154D01*
X0244296Y0256103D01*
X0244445Y0256048D01*
X0244592Y0255990D01*
X0244738Y0255928D01*
X0244882Y0255863D01*
X0245024Y0255793D01*
X0245165Y0255721D01*
X0245304Y0255644D01*
X0245440Y0255565D01*
X0245575Y0255481D01*
X0245708Y0255395D01*
X0245838Y0255305D01*
X0245966Y0255212D01*
X0246092Y0255116D01*
X0246215Y0255016D01*
X0246336Y0254914D01*
X0246454Y0254809D01*
X0246569Y0254700D01*
X0246682Y0254589D01*
X0246792Y0254475D01*
X0246899Y0254358D01*
X0247003Y0254239D01*
X0247104Y0254117D01*
X0247201Y0253992D01*
X0247296Y0253865D01*
X0247387Y0253736D01*
X0247476Y0253605D01*
X0247560Y0253471D01*
X0247642Y0253335D01*
X0247720Y0253198D01*
X0247794Y0253058D01*
X0247865Y0252916D01*
X0247933Y0252773D01*
X0247997Y0252628D01*
X0248057Y0252482D01*
X0248113Y0252334D01*
X0248166Y0252185D01*
X0248215Y0252034D01*
X0248260Y0251882D01*
X0248301Y0251729D01*
X0248339Y0251576D01*
X0248372Y0251421D01*
X0248402Y0251265D01*
X0248428Y0251109D01*
X0248449Y0250952D01*
X0248467Y0250795D01*
X0248481Y0250637D01*
X0248491Y0250479D01*
X0248497Y0250321D01*
X0248499Y0250163D01*
X0248497Y0250005D01*
X0248491Y0249847D01*
X0248481Y0249689D01*
X0248467Y0249531D01*
X0248449Y0249374D01*
X0248428Y0249217D01*
X0248402Y0249061D01*
X0248372Y0248905D01*
X0248339Y0248750D01*
X0248301Y0248597D01*
X0248260Y0248444D01*
X0248215Y0248292D01*
X0248166Y0248141D01*
X0248113Y0247992D01*
X0248057Y0247844D01*
X0247997Y0247698D01*
X0247933Y0247553D01*
X0247865Y0247410D01*
X0247794Y0247268D01*
X0247720Y0247128D01*
X0247642Y0246991D01*
X0247560Y0246855D01*
X0247476Y0246721D01*
X0247387Y0246590D01*
X0247296Y0246461D01*
X0247201Y0246334D01*
X0247104Y0246209D01*
X0247003Y0246087D01*
X0246899Y0245968D01*
X0246792Y0245851D01*
X0246682Y0245737D01*
X0246569Y0245626D01*
X0246454Y0245517D01*
X0246336Y0245412D01*
X0246215Y0245310D01*
X0246092Y0245210D01*
X0245966Y0245114D01*
X0245838Y0245021D01*
X0245708Y0244931D01*
X0245575Y0244845D01*
X0245440Y0244761D01*
X0245304Y0244682D01*
X0245165Y0244605D01*
X0245024Y0244533D01*
X0244882Y0244463D01*
X0244738Y0244398D01*
X0244592Y0244336D01*
X0244445Y0244278D01*
X0244296Y0244223D01*
X0244146Y0244172D01*
X0243995Y0244125D01*
X0243843Y0244082D01*
X0243690Y0244043D01*
X0243535Y0244007D01*
X0243380Y0243976D01*
X0243224Y0243948D01*
X0243068Y0243924D01*
X0242911Y0243904D01*
X0242753Y0243888D01*
X0242596Y0243876D01*
X0242437Y0243868D01*
X0242279Y0243864D01*
X0242121Y0243864D01*
X0241963Y0243868D01*
X0241804Y0243876D01*
X0241647Y0243888D01*
X0241489Y0243904D01*
X0241332Y0243924D01*
X0241176Y0243948D01*
X0241020Y0243976D01*
X0240865Y0244007D01*
X0240710Y0244043D01*
X0240557Y0244082D01*
X0240405Y0244125D01*
X0240254Y0244172D01*
X0240104Y0244223D01*
X0239955Y0244278D01*
X0239808Y0244336D01*
X0239662Y0244398D01*
X0239518Y0244463D01*
X0239376Y0244533D01*
X0239235Y0244605D01*
X0239096Y0244682D01*
X0238960Y0244761D01*
X0238825Y0244845D01*
X0238692Y0244931D01*
X0238562Y0245021D01*
X0238434Y0245114D01*
X0238308Y0245210D01*
X0238185Y0245310D01*
X0238064Y0245412D01*
X0237946Y0245517D01*
X0237831Y0245626D01*
X0237718Y0245737D01*
X0237608Y0245851D01*
X0237501Y0245968D01*
X0237397Y0246087D01*
X0237296Y0246209D01*
X0237199Y0246334D01*
X0237104Y0246461D01*
X0237013Y0246590D01*
X0236924Y0246721D01*
X0236840Y0246855D01*
X0236758Y0246991D01*
X0236680Y0247128D01*
X0236606Y0247268D01*
X0236535Y0247410D01*
X0236467Y0247553D01*
X0236403Y0247698D01*
X0236343Y0247844D01*
X0236287Y0247992D01*
X0236234Y0248141D01*
X0236185Y0248292D01*
X0236140Y0248444D01*
X0236099Y0248597D01*
X0236061Y0248750D01*
X0236028Y0248905D01*
X0235998Y0249061D01*
X0235972Y0249217D01*
X0235951Y0249374D01*
X0235933Y0249531D01*
X0235919Y0249689D01*
X0235909Y0249847D01*
X0235903Y0250005D01*
X0235901Y0250163D01*
X0045901Y0255163D02*
X0045903Y0255321D01*
X0045909Y0255479D01*
X0045919Y0255637D01*
X0045933Y0255795D01*
X0045951Y0255952D01*
X0045972Y0256109D01*
X0045998Y0256265D01*
X0046028Y0256421D01*
X0046061Y0256576D01*
X0046099Y0256729D01*
X0046140Y0256882D01*
X0046185Y0257034D01*
X0046234Y0257185D01*
X0046287Y0257334D01*
X0046343Y0257482D01*
X0046403Y0257628D01*
X0046467Y0257773D01*
X0046535Y0257916D01*
X0046606Y0258058D01*
X0046680Y0258198D01*
X0046758Y0258335D01*
X0046840Y0258471D01*
X0046924Y0258605D01*
X0047013Y0258736D01*
X0047104Y0258865D01*
X0047199Y0258992D01*
X0047296Y0259117D01*
X0047397Y0259239D01*
X0047501Y0259358D01*
X0047608Y0259475D01*
X0047718Y0259589D01*
X0047831Y0259700D01*
X0047946Y0259809D01*
X0048064Y0259914D01*
X0048185Y0260016D01*
X0048308Y0260116D01*
X0048434Y0260212D01*
X0048562Y0260305D01*
X0048692Y0260395D01*
X0048825Y0260481D01*
X0048960Y0260565D01*
X0049096Y0260644D01*
X0049235Y0260721D01*
X0049376Y0260793D01*
X0049518Y0260863D01*
X0049662Y0260928D01*
X0049808Y0260990D01*
X0049955Y0261048D01*
X0050104Y0261103D01*
X0050254Y0261154D01*
X0050405Y0261201D01*
X0050557Y0261244D01*
X0050710Y0261283D01*
X0050865Y0261319D01*
X0051020Y0261350D01*
X0051176Y0261378D01*
X0051332Y0261402D01*
X0051489Y0261422D01*
X0051647Y0261438D01*
X0051804Y0261450D01*
X0051963Y0261458D01*
X0052121Y0261462D01*
X0052279Y0261462D01*
X0052437Y0261458D01*
X0052596Y0261450D01*
X0052753Y0261438D01*
X0052911Y0261422D01*
X0053068Y0261402D01*
X0053224Y0261378D01*
X0053380Y0261350D01*
X0053535Y0261319D01*
X0053690Y0261283D01*
X0053843Y0261244D01*
X0053995Y0261201D01*
X0054146Y0261154D01*
X0054296Y0261103D01*
X0054445Y0261048D01*
X0054592Y0260990D01*
X0054738Y0260928D01*
X0054882Y0260863D01*
X0055024Y0260793D01*
X0055165Y0260721D01*
X0055304Y0260644D01*
X0055440Y0260565D01*
X0055575Y0260481D01*
X0055708Y0260395D01*
X0055838Y0260305D01*
X0055966Y0260212D01*
X0056092Y0260116D01*
X0056215Y0260016D01*
X0056336Y0259914D01*
X0056454Y0259809D01*
X0056569Y0259700D01*
X0056682Y0259589D01*
X0056792Y0259475D01*
X0056899Y0259358D01*
X0057003Y0259239D01*
X0057104Y0259117D01*
X0057201Y0258992D01*
X0057296Y0258865D01*
X0057387Y0258736D01*
X0057476Y0258605D01*
X0057560Y0258471D01*
X0057642Y0258335D01*
X0057720Y0258198D01*
X0057794Y0258058D01*
X0057865Y0257916D01*
X0057933Y0257773D01*
X0057997Y0257628D01*
X0058057Y0257482D01*
X0058113Y0257334D01*
X0058166Y0257185D01*
X0058215Y0257034D01*
X0058260Y0256882D01*
X0058301Y0256729D01*
X0058339Y0256576D01*
X0058372Y0256421D01*
X0058402Y0256265D01*
X0058428Y0256109D01*
X0058449Y0255952D01*
X0058467Y0255795D01*
X0058481Y0255637D01*
X0058491Y0255479D01*
X0058497Y0255321D01*
X0058499Y0255163D01*
X0058497Y0255005D01*
X0058491Y0254847D01*
X0058481Y0254689D01*
X0058467Y0254531D01*
X0058449Y0254374D01*
X0058428Y0254217D01*
X0058402Y0254061D01*
X0058372Y0253905D01*
X0058339Y0253750D01*
X0058301Y0253597D01*
X0058260Y0253444D01*
X0058215Y0253292D01*
X0058166Y0253141D01*
X0058113Y0252992D01*
X0058057Y0252844D01*
X0057997Y0252698D01*
X0057933Y0252553D01*
X0057865Y0252410D01*
X0057794Y0252268D01*
X0057720Y0252128D01*
X0057642Y0251991D01*
X0057560Y0251855D01*
X0057476Y0251721D01*
X0057387Y0251590D01*
X0057296Y0251461D01*
X0057201Y0251334D01*
X0057104Y0251209D01*
X0057003Y0251087D01*
X0056899Y0250968D01*
X0056792Y0250851D01*
X0056682Y0250737D01*
X0056569Y0250626D01*
X0056454Y0250517D01*
X0056336Y0250412D01*
X0056215Y0250310D01*
X0056092Y0250210D01*
X0055966Y0250114D01*
X0055838Y0250021D01*
X0055708Y0249931D01*
X0055575Y0249845D01*
X0055440Y0249761D01*
X0055304Y0249682D01*
X0055165Y0249605D01*
X0055024Y0249533D01*
X0054882Y0249463D01*
X0054738Y0249398D01*
X0054592Y0249336D01*
X0054445Y0249278D01*
X0054296Y0249223D01*
X0054146Y0249172D01*
X0053995Y0249125D01*
X0053843Y0249082D01*
X0053690Y0249043D01*
X0053535Y0249007D01*
X0053380Y0248976D01*
X0053224Y0248948D01*
X0053068Y0248924D01*
X0052911Y0248904D01*
X0052753Y0248888D01*
X0052596Y0248876D01*
X0052437Y0248868D01*
X0052279Y0248864D01*
X0052121Y0248864D01*
X0051963Y0248868D01*
X0051804Y0248876D01*
X0051647Y0248888D01*
X0051489Y0248904D01*
X0051332Y0248924D01*
X0051176Y0248948D01*
X0051020Y0248976D01*
X0050865Y0249007D01*
X0050710Y0249043D01*
X0050557Y0249082D01*
X0050405Y0249125D01*
X0050254Y0249172D01*
X0050104Y0249223D01*
X0049955Y0249278D01*
X0049808Y0249336D01*
X0049662Y0249398D01*
X0049518Y0249463D01*
X0049376Y0249533D01*
X0049235Y0249605D01*
X0049096Y0249682D01*
X0048960Y0249761D01*
X0048825Y0249845D01*
X0048692Y0249931D01*
X0048562Y0250021D01*
X0048434Y0250114D01*
X0048308Y0250210D01*
X0048185Y0250310D01*
X0048064Y0250412D01*
X0047946Y0250517D01*
X0047831Y0250626D01*
X0047718Y0250737D01*
X0047608Y0250851D01*
X0047501Y0250968D01*
X0047397Y0251087D01*
X0047296Y0251209D01*
X0047199Y0251334D01*
X0047104Y0251461D01*
X0047013Y0251590D01*
X0046924Y0251721D01*
X0046840Y0251855D01*
X0046758Y0251991D01*
X0046680Y0252128D01*
X0046606Y0252268D01*
X0046535Y0252410D01*
X0046467Y0252553D01*
X0046403Y0252698D01*
X0046343Y0252844D01*
X0046287Y0252992D01*
X0046234Y0253141D01*
X0046185Y0253292D01*
X0046140Y0253444D01*
X0046099Y0253597D01*
X0046061Y0253750D01*
X0046028Y0253905D01*
X0045998Y0254061D01*
X0045972Y0254217D01*
X0045951Y0254374D01*
X0045933Y0254531D01*
X0045919Y0254689D01*
X0045909Y0254847D01*
X0045903Y0255005D01*
X0045901Y0255163D01*
D11*
X0122750Y0238634D02*
X0122750Y0237650D01*
X0123734Y0236666D01*
X0125703Y0236666D01*
X0126687Y0235682D01*
X0126687Y0234698D01*
X0125703Y0233713D01*
X0123734Y0233713D01*
X0122750Y0234698D01*
X0122750Y0238634D02*
X0123734Y0239618D01*
X0125703Y0239618D01*
X0126687Y0238634D01*
X0129195Y0239618D02*
X0133132Y0239618D01*
X0131164Y0239618D02*
X0131164Y0233713D01*
X0135641Y0236666D02*
X0139578Y0236666D01*
X0142086Y0239618D02*
X0142086Y0233713D01*
X0146023Y0233713D01*
X0148532Y0233713D02*
X0150500Y0233713D01*
X0149516Y0233713D02*
X0149516Y0237650D01*
X0148532Y0237650D01*
X0149516Y0239618D02*
X0149516Y0240603D01*
X0152829Y0237650D02*
X0152829Y0233713D01*
X0156766Y0233713D02*
X0156766Y0236666D01*
X0155782Y0237650D01*
X0152829Y0237650D01*
X0159274Y0235682D02*
X0162227Y0237650D01*
X0159274Y0235682D02*
X0162227Y0233713D01*
X0159274Y0233713D02*
X0159274Y0239618D01*
X0218795Y0032118D02*
X0218795Y0026213D01*
X0222732Y0026213D01*
X0225240Y0027198D02*
X0226225Y0028182D01*
X0229177Y0028182D01*
X0229177Y0029166D02*
X0229177Y0026213D01*
X0226225Y0026213D01*
X0225240Y0027198D01*
X0226225Y0030150D02*
X0228193Y0030150D01*
X0229177Y0029166D01*
X0231686Y0030150D02*
X0231686Y0026213D01*
X0235623Y0026213D02*
X0235623Y0029166D01*
X0234638Y0030150D01*
X0231686Y0030150D01*
X0238131Y0030150D02*
X0239116Y0029166D01*
X0242068Y0029166D01*
X0242068Y0027198D02*
X0242068Y0031134D01*
X0241084Y0032118D01*
X0239116Y0032118D01*
X0238131Y0031134D01*
X0238131Y0030150D01*
X0238131Y0027198D02*
X0239116Y0026213D01*
X0241084Y0026213D01*
X0242068Y0027198D01*
X0244577Y0027198D02*
X0245561Y0026213D01*
X0247529Y0026213D01*
X0248514Y0027198D01*
X0248514Y0028182D01*
X0247529Y0029166D01*
X0246545Y0029166D01*
X0247529Y0029166D02*
X0248514Y0030150D01*
X0248514Y0031134D01*
X0247529Y0032118D01*
X0245561Y0032118D01*
X0244577Y0031134D01*
X0251022Y0031134D02*
X0251022Y0027198D01*
X0254959Y0031134D01*
X0254959Y0027198D01*
X0253975Y0026213D01*
X0252007Y0026213D01*
X0251022Y0027198D01*
X0251022Y0031134D02*
X0252007Y0032118D01*
X0253975Y0032118D01*
X0254959Y0031134D01*
X0257468Y0031134D02*
X0258452Y0032118D01*
X0260420Y0032118D01*
X0261405Y0031134D01*
X0261405Y0030150D01*
X0260420Y0029166D01*
X0261405Y0028182D01*
X0261405Y0027198D01*
X0260420Y0026213D01*
X0258452Y0026213D01*
X0257468Y0027198D01*
X0259436Y0029166D02*
X0260420Y0029166D01*
X0263913Y0025229D02*
X0267850Y0025229D01*
X0272327Y0026213D02*
X0274296Y0030150D01*
X0276804Y0031134D02*
X0277789Y0032118D01*
X0279757Y0032118D01*
X0280741Y0031134D01*
X0280741Y0030150D01*
X0276804Y0026213D01*
X0280741Y0026213D01*
X0272327Y0026213D02*
X0270359Y0030150D01*
X0254959Y0021618D02*
X0254959Y0020634D01*
X0251022Y0016698D01*
X0251022Y0015713D01*
X0248514Y0016698D02*
X0247529Y0015713D01*
X0245561Y0015713D01*
X0244577Y0016698D01*
X0248514Y0020634D01*
X0248514Y0016698D01*
X0248514Y0020634D02*
X0247529Y0021618D01*
X0245561Y0021618D01*
X0244577Y0020634D01*
X0244577Y0016698D01*
X0242068Y0016698D02*
X0241084Y0015713D01*
X0239116Y0015713D01*
X0238131Y0016698D01*
X0239116Y0018666D02*
X0242068Y0018666D01*
X0242068Y0016698D02*
X0242068Y0020634D01*
X0241084Y0021618D01*
X0239116Y0021618D01*
X0238131Y0020634D01*
X0238131Y0019650D01*
X0239116Y0018666D01*
X0235623Y0020634D02*
X0231686Y0016698D01*
X0232670Y0015713D01*
X0234638Y0015713D01*
X0235623Y0016698D01*
X0235623Y0020634D01*
X0234638Y0021618D01*
X0232670Y0021618D01*
X0231686Y0020634D01*
X0231686Y0016698D01*
X0229177Y0020634D02*
X0225240Y0016698D01*
X0225240Y0015713D01*
X0222732Y0015713D02*
X0218795Y0015713D01*
X0220763Y0015713D02*
X0220763Y0021618D01*
X0218795Y0019650D01*
X0225240Y0021618D02*
X0229177Y0021618D01*
X0229177Y0020634D01*
X0251022Y0021618D02*
X0254959Y0021618D01*
D12*
X0259700Y0065163D02*
X0257200Y0067663D01*
X0257200Y0072663D01*
X0259700Y0075163D01*
X0257200Y0077663D01*
X0257200Y0082663D01*
X0259700Y0085163D01*
X0257200Y0087663D01*
X0257200Y0092663D01*
X0259700Y0095163D01*
X0257200Y0097663D01*
X0257200Y0102663D01*
X0259700Y0105163D01*
X0257200Y0107663D01*
X0257200Y0112663D01*
X0259700Y0115163D01*
X0257200Y0117663D01*
X0257200Y0122663D01*
X0259700Y0125163D01*
X0257200Y0127663D01*
X0257200Y0132663D01*
X0259700Y0135163D01*
X0257200Y0137663D01*
X0257200Y0142663D01*
X0259700Y0145163D01*
X0257200Y0147663D01*
X0257200Y0152663D01*
X0259700Y0155163D01*
X0257200Y0157663D01*
X0257200Y0162663D01*
X0259700Y0165163D01*
X0257200Y0167663D01*
X0257200Y0172663D01*
X0259700Y0175163D01*
X0257200Y0177663D01*
X0257200Y0182663D01*
X0259700Y0185163D01*
X0257200Y0187663D01*
X0257200Y0192663D01*
X0259700Y0195163D01*
X0257200Y0197663D01*
X0257200Y0202663D01*
X0259700Y0205163D01*
X0257200Y0207663D01*
X0257200Y0212663D01*
X0259700Y0215163D01*
X0257200Y0217663D01*
X0257200Y0222663D01*
X0259700Y0225163D01*
X0257200Y0227663D01*
X0257200Y0232663D01*
X0259700Y0235163D01*
X0257200Y0237663D01*
X0257200Y0242663D01*
X0259700Y0245163D01*
X0274700Y0245163D01*
X0277200Y0242663D01*
X0277200Y0237663D01*
X0274700Y0235163D01*
X0277200Y0232663D01*
X0277200Y0227663D01*
X0274700Y0225163D01*
X0277200Y0222663D01*
X0277200Y0217663D01*
X0274700Y0215163D01*
X0277200Y0212663D01*
X0277200Y0207663D01*
X0274700Y0205163D01*
X0277200Y0202663D01*
X0277200Y0197663D01*
X0274700Y0195163D01*
X0277200Y0192663D01*
X0277200Y0187663D01*
X0274700Y0185163D01*
X0277200Y0182663D01*
X0277200Y0177663D01*
X0274700Y0175163D01*
X0277200Y0172663D01*
X0277200Y0167663D01*
X0274700Y0165163D01*
X0277200Y0162663D01*
X0277200Y0157663D01*
X0274700Y0155163D01*
X0277200Y0152663D01*
X0277200Y0147663D01*
X0274700Y0145163D01*
X0277200Y0142663D01*
X0277200Y0137663D01*
X0274700Y0135163D01*
X0277200Y0132663D01*
X0277200Y0127663D01*
X0274700Y0125163D01*
X0277200Y0122663D01*
X0277200Y0117663D01*
X0274700Y0115163D01*
X0277200Y0112663D01*
X0277200Y0107663D01*
X0274700Y0105163D01*
X0277200Y0102663D01*
X0277200Y0097663D01*
X0274700Y0095163D01*
X0277200Y0092663D01*
X0277200Y0087663D01*
X0274700Y0085163D01*
X0277200Y0082663D01*
X0277200Y0077663D01*
X0274700Y0075163D01*
X0277200Y0072663D01*
X0277200Y0067663D01*
X0274700Y0065163D01*
X0259700Y0065163D01*
X0065900Y0092714D02*
X0065333Y0092147D01*
X0065900Y0092714D02*
X0065900Y0093848D01*
X0065333Y0094415D01*
X0064199Y0094415D01*
X0063631Y0093848D01*
X0063631Y0093281D01*
X0064199Y0092147D01*
X0062497Y0092147D01*
X0062497Y0094415D01*
X0062497Y0095830D02*
X0064766Y0095830D01*
X0065900Y0096964D01*
X0064766Y0098098D01*
X0062497Y0098098D01*
X0064199Y0090732D02*
X0064199Y0088463D01*
X0065333Y0089598D02*
X0063064Y0089598D01*
X0045900Y0089598D02*
X0044766Y0088463D01*
X0042497Y0088463D01*
X0042497Y0090732D02*
X0044766Y0090732D01*
X0045900Y0089598D01*
X0045900Y0092147D02*
X0045900Y0093281D01*
X0045900Y0092714D02*
X0042497Y0092714D01*
X0042497Y0092147D02*
X0042497Y0093281D01*
X0042497Y0094602D02*
X0045900Y0096871D01*
X0042497Y0096871D01*
X0042497Y0094602D02*
X0045900Y0094602D01*
X0037200Y0092663D02*
X0037200Y0087663D01*
X0034700Y0085163D01*
X0037200Y0082663D01*
X0037200Y0077663D01*
X0034700Y0075163D01*
X0037200Y0072663D01*
X0037200Y0067663D01*
X0034700Y0065163D01*
X0019700Y0065163D01*
X0017200Y0067663D01*
X0017200Y0072663D01*
X0019700Y0075163D01*
X0017200Y0077663D01*
X0017200Y0082663D01*
X0019700Y0085163D01*
X0017200Y0087663D01*
X0017200Y0092663D01*
X0019700Y0095163D01*
X0017200Y0097663D01*
X0017200Y0102663D01*
X0019700Y0105163D01*
X0017200Y0107663D01*
X0017200Y0112663D01*
X0019700Y0115163D01*
X0017200Y0117663D01*
X0017200Y0122663D01*
X0019700Y0125163D01*
X0017200Y0127663D01*
X0017200Y0132663D01*
X0019700Y0135163D01*
X0017200Y0137663D01*
X0017200Y0142663D01*
X0019700Y0145163D01*
X0017200Y0147663D01*
X0017200Y0152663D01*
X0019700Y0155163D01*
X0017200Y0157663D01*
X0017200Y0162663D01*
X0019700Y0165163D01*
X0017200Y0167663D01*
X0017200Y0172663D01*
X0019700Y0175163D01*
X0017200Y0177663D01*
X0017200Y0182663D01*
X0019700Y0185163D01*
X0017200Y0187663D01*
X0017200Y0192663D01*
X0019700Y0195163D01*
X0017200Y0197663D01*
X0017200Y0202663D01*
X0019700Y0205163D01*
X0017200Y0207663D01*
X0017200Y0212663D01*
X0019700Y0215163D01*
X0017200Y0217663D01*
X0017200Y0222663D01*
X0019700Y0225163D01*
X0017200Y0227663D01*
X0017200Y0232663D01*
X0019700Y0235163D01*
X0017200Y0237663D01*
X0017200Y0242663D01*
X0019700Y0245163D01*
X0034700Y0245163D01*
X0037200Y0242663D01*
X0037200Y0237663D01*
X0034700Y0235163D01*
X0037200Y0232663D01*
X0037200Y0227663D01*
X0034700Y0225163D01*
X0037200Y0222663D01*
X0037200Y0217663D01*
X0034700Y0215163D01*
X0037200Y0212663D01*
X0037200Y0207663D01*
X0034700Y0205163D01*
X0037200Y0202663D01*
X0037200Y0197663D01*
X0034700Y0195163D01*
X0037200Y0192663D01*
X0037200Y0187663D01*
X0034700Y0185163D01*
X0037200Y0182663D01*
X0037200Y0177663D01*
X0034700Y0175163D01*
X0037200Y0172663D01*
X0037200Y0167663D01*
X0034700Y0165163D01*
X0037200Y0162663D01*
X0037200Y0157663D01*
X0034700Y0155163D01*
X0037200Y0152663D01*
X0037200Y0147663D01*
X0034700Y0145163D01*
X0037200Y0142663D01*
X0037200Y0137663D01*
X0034700Y0135163D01*
X0037200Y0132663D01*
X0037200Y0127663D01*
X0034700Y0125163D01*
X0037200Y0122663D01*
X0037200Y0117663D01*
X0034700Y0115163D01*
X0037200Y0112663D01*
X0037200Y0107663D01*
X0034700Y0105163D01*
X0037200Y0102663D01*
X0037200Y0097663D01*
X0034700Y0095163D01*
X0037200Y0092663D01*
D13*
X0115200Y0233163D02*
X0115200Y0239163D01*
X0113200Y0237163D01*
X0115200Y0239163D02*
X0117200Y0237163D01*
D14*
X0117900Y0199865D02*
X0118901Y0199865D01*
X0119234Y0199531D01*
X0119234Y0198864D01*
X0118901Y0198531D01*
X0117900Y0198531D01*
X0118567Y0198531D02*
X0119234Y0197863D01*
X0120110Y0197863D02*
X0121444Y0197863D01*
X0120777Y0197863D02*
X0120777Y0199865D01*
X0120110Y0199198D01*
X0122320Y0199531D02*
X0122653Y0199865D01*
X0123321Y0199865D01*
X0123654Y0199531D01*
X0123654Y0199198D01*
X0123321Y0198864D01*
X0123654Y0198531D01*
X0123654Y0198197D01*
X0123321Y0197863D01*
X0122653Y0197863D01*
X0122320Y0198197D01*
X0122987Y0198864D02*
X0123321Y0198864D01*
X0125900Y0198531D02*
X0126901Y0198531D01*
X0127234Y0198864D01*
X0127234Y0199531D01*
X0126901Y0199865D01*
X0125900Y0199865D01*
X0125900Y0197863D01*
X0126567Y0198531D02*
X0127234Y0197863D01*
X0128110Y0197863D02*
X0129444Y0197863D01*
X0128777Y0197863D02*
X0128777Y0199865D01*
X0128110Y0199198D01*
X0130320Y0198864D02*
X0130987Y0199198D01*
X0131321Y0199198D01*
X0131654Y0198864D01*
X0131654Y0198197D01*
X0131321Y0197863D01*
X0130653Y0197863D01*
X0130320Y0198197D01*
X0130320Y0198864D02*
X0130320Y0199865D01*
X0131654Y0199865D01*
X0133900Y0199865D02*
X0134901Y0199865D01*
X0135234Y0199531D01*
X0135234Y0198864D01*
X0134901Y0198531D01*
X0133900Y0198531D01*
X0134567Y0198531D02*
X0135234Y0197863D01*
X0136110Y0197863D02*
X0137444Y0197863D01*
X0136777Y0197863D02*
X0136777Y0199865D01*
X0136110Y0199198D01*
X0138320Y0198864D02*
X0139321Y0198864D01*
X0139654Y0198531D01*
X0139654Y0198197D01*
X0139321Y0197863D01*
X0138653Y0197863D01*
X0138320Y0198197D01*
X0138320Y0198864D01*
X0138987Y0199531D01*
X0139654Y0199865D01*
X0133900Y0199865D02*
X0133900Y0197863D01*
X0117900Y0197863D02*
X0117900Y0199865D01*
X0115654Y0199531D02*
X0115321Y0199865D01*
X0114653Y0199865D01*
X0114320Y0199531D01*
X0115654Y0199531D02*
X0115654Y0199198D01*
X0114320Y0197863D01*
X0115654Y0197863D01*
X0113444Y0197863D02*
X0112110Y0197863D01*
X0112777Y0197863D02*
X0112777Y0199865D01*
X0112110Y0199198D01*
X0111234Y0199531D02*
X0111234Y0198864D01*
X0110901Y0198531D01*
X0109900Y0198531D01*
X0110567Y0198531D02*
X0111234Y0197863D01*
X0109900Y0197863D02*
X0109900Y0199865D01*
X0110901Y0199865D01*
X0111234Y0199531D01*
X0107654Y0197863D02*
X0106320Y0197863D01*
X0106987Y0197863D02*
X0106987Y0199865D01*
X0106320Y0199198D01*
X0105444Y0197863D02*
X0104110Y0197863D01*
X0104777Y0197863D02*
X0104777Y0199865D01*
X0104110Y0199198D01*
X0103234Y0199531D02*
X0103234Y0198864D01*
X0102901Y0198531D01*
X0101900Y0198531D01*
X0102567Y0198531D02*
X0103234Y0197863D01*
X0101900Y0197863D02*
X0101900Y0199865D01*
X0102901Y0199865D01*
X0103234Y0199531D01*
X0122104Y0173965D02*
X0121770Y0173631D01*
X0121770Y0172297D01*
X0122104Y0171963D01*
X0122771Y0171963D01*
X0123105Y0172297D01*
X0123980Y0171963D02*
X0125315Y0171963D01*
X0124647Y0171963D02*
X0124647Y0173965D01*
X0123980Y0173298D01*
X0123105Y0173631D02*
X0122771Y0173965D01*
X0122104Y0173965D01*
X0126190Y0173631D02*
X0126524Y0173965D01*
X0127191Y0173965D01*
X0127525Y0173631D01*
X0127525Y0173298D01*
X0127191Y0172964D01*
X0127525Y0172631D01*
X0127525Y0172297D01*
X0127191Y0171963D01*
X0126524Y0171963D01*
X0126190Y0172297D01*
X0126857Y0172964D02*
X0127191Y0172964D01*
X0112025Y0167131D02*
X0110690Y0165797D01*
X0111024Y0165463D01*
X0111691Y0165463D01*
X0112025Y0165797D01*
X0112025Y0167131D01*
X0111691Y0167465D01*
X0111024Y0167465D01*
X0110690Y0167131D01*
X0110690Y0165797D01*
X0109815Y0165463D02*
X0108480Y0165463D01*
X0109147Y0165463D02*
X0109147Y0167465D01*
X0108480Y0166798D01*
X0107605Y0167131D02*
X0107271Y0167465D01*
X0106604Y0167465D01*
X0106270Y0167131D01*
X0106270Y0165797D01*
X0106604Y0165463D01*
X0107271Y0165463D01*
X0107605Y0165797D01*
X0107734Y0150865D02*
X0107400Y0150531D01*
X0107400Y0149197D01*
X0107734Y0148863D01*
X0108401Y0148863D01*
X0108734Y0149197D01*
X0109610Y0149197D02*
X0109610Y0149531D01*
X0109943Y0149864D01*
X0110611Y0149864D01*
X0110944Y0149531D01*
X0110944Y0149197D01*
X0110611Y0148863D01*
X0109943Y0148863D01*
X0109610Y0149197D01*
X0109943Y0149864D02*
X0109610Y0150198D01*
X0109610Y0150531D01*
X0109943Y0150865D01*
X0110611Y0150865D01*
X0110944Y0150531D01*
X0110944Y0150198D01*
X0110611Y0149864D01*
X0108734Y0150531D02*
X0108401Y0150865D01*
X0107734Y0150865D01*
X0105321Y0148365D02*
X0105654Y0148031D01*
X0105654Y0147698D01*
X0105321Y0147364D01*
X0105654Y0147031D01*
X0105654Y0146697D01*
X0105321Y0146363D01*
X0104653Y0146363D01*
X0104320Y0146697D01*
X0103444Y0146363D02*
X0102110Y0146363D01*
X0103444Y0147698D01*
X0103444Y0148031D01*
X0103111Y0148365D01*
X0102443Y0148365D01*
X0102110Y0148031D01*
X0101234Y0148031D02*
X0101234Y0147364D01*
X0100901Y0147031D01*
X0099900Y0147031D01*
X0100567Y0147031D02*
X0101234Y0146363D01*
X0099900Y0146363D02*
X0099900Y0148365D01*
X0100901Y0148365D01*
X0101234Y0148031D01*
X0104320Y0148031D02*
X0104653Y0148365D01*
X0105321Y0148365D01*
X0105321Y0147364D02*
X0104987Y0147364D01*
X0118270Y0142465D02*
X0118270Y0140463D01*
X0118270Y0141131D02*
X0119271Y0141131D01*
X0119605Y0141464D01*
X0119605Y0142131D01*
X0119271Y0142465D01*
X0118270Y0142465D01*
X0118938Y0141131D02*
X0119605Y0140463D01*
X0120480Y0140463D02*
X0121815Y0141798D01*
X0121815Y0142131D01*
X0121481Y0142465D01*
X0120814Y0142465D01*
X0120480Y0142131D01*
X0120480Y0140463D02*
X0121815Y0140463D01*
X0122690Y0140797D02*
X0123024Y0140463D01*
X0123691Y0140463D01*
X0124025Y0140797D01*
X0124025Y0141464D01*
X0123691Y0141798D01*
X0123357Y0141798D01*
X0122690Y0141464D01*
X0122690Y0142465D01*
X0124025Y0142465D01*
X0111567Y0122259D02*
X0111567Y0120257D01*
X0110900Y0120257D02*
X0112234Y0120257D01*
X0110900Y0121592D02*
X0111567Y0122259D01*
X0110025Y0122259D02*
X0110025Y0121925D01*
X0109357Y0121258D01*
X0109357Y0120257D01*
X0109357Y0121258D02*
X0108690Y0121925D01*
X0108690Y0122259D01*
X0099944Y0115531D02*
X0099611Y0115865D01*
X0098943Y0115865D01*
X0098610Y0115531D01*
X0097734Y0115531D02*
X0097734Y0114864D01*
X0097401Y0114531D01*
X0096400Y0114531D01*
X0097067Y0114531D02*
X0097734Y0113863D01*
X0098610Y0113863D02*
X0099944Y0115198D01*
X0099944Y0115531D01*
X0099944Y0113863D02*
X0098610Y0113863D01*
X0097734Y0115531D02*
X0097401Y0115865D01*
X0096400Y0115865D01*
X0096400Y0113863D01*
X0087111Y0125363D02*
X0087111Y0127365D01*
X0086110Y0126364D01*
X0087444Y0126364D01*
X0085234Y0125697D02*
X0084901Y0125363D01*
X0084234Y0125363D01*
X0083900Y0125697D01*
X0083900Y0127031D01*
X0084234Y0127365D01*
X0084901Y0127365D01*
X0085234Y0127031D01*
X0084901Y0140363D02*
X0085234Y0140697D01*
X0084901Y0140363D02*
X0084234Y0140363D01*
X0083900Y0140697D01*
X0083900Y0142031D01*
X0084234Y0142365D01*
X0084901Y0142365D01*
X0085234Y0142031D01*
X0086110Y0142031D02*
X0086443Y0142365D01*
X0087111Y0142365D01*
X0087444Y0142031D01*
X0087444Y0141698D01*
X0087111Y0141364D01*
X0087444Y0141031D01*
X0087444Y0140697D01*
X0087111Y0140363D01*
X0086443Y0140363D01*
X0086110Y0140697D01*
X0086777Y0141364D02*
X0087111Y0141364D01*
X0088498Y0154863D02*
X0088498Y0155864D01*
X0088832Y0156198D01*
X0089499Y0156198D01*
X0089833Y0155864D01*
X0089833Y0154863D01*
X0090500Y0154863D02*
X0088498Y0154863D01*
X0089833Y0155531D02*
X0090500Y0156198D01*
X0090500Y0157073D02*
X0089166Y0158408D01*
X0088832Y0158408D01*
X0088498Y0158074D01*
X0088498Y0157407D01*
X0088832Y0157073D01*
X0090500Y0157073D02*
X0090500Y0158408D01*
X0089499Y0159283D02*
X0089499Y0160618D01*
X0088498Y0160284D02*
X0089499Y0159283D01*
X0090500Y0160284D02*
X0088498Y0160284D01*
X0066777Y0114865D02*
X0066777Y0112863D01*
X0066110Y0112863D02*
X0067444Y0112863D01*
X0066110Y0114198D02*
X0066777Y0114865D01*
X0065234Y0114865D02*
X0064567Y0114865D01*
X0064901Y0114865D02*
X0064901Y0113197D01*
X0064567Y0112863D01*
X0064234Y0112863D01*
X0063900Y0113197D01*
X0107900Y0099865D02*
X0108901Y0099865D01*
X0109234Y0099531D01*
X0109234Y0098864D01*
X0108901Y0098531D01*
X0107900Y0098531D01*
X0108567Y0098531D02*
X0109234Y0097863D01*
X0110110Y0097863D02*
X0111444Y0097863D01*
X0110777Y0097863D02*
X0110777Y0099865D01*
X0110110Y0099198D01*
X0107900Y0099865D02*
X0107900Y0097863D01*
X0113480Y0105463D02*
X0113480Y0107465D01*
X0114481Y0107465D01*
X0114815Y0107131D01*
X0114815Y0106464D01*
X0114481Y0106131D01*
X0113480Y0106131D01*
X0114147Y0106131D02*
X0114815Y0105463D01*
X0115690Y0106464D02*
X0117025Y0106464D01*
X0116691Y0105463D02*
X0116691Y0107465D01*
X0115690Y0106464D01*
X0127400Y0099365D02*
X0128401Y0099365D01*
X0128734Y0099031D01*
X0128734Y0098364D01*
X0128401Y0098031D01*
X0127400Y0098031D01*
X0128067Y0098031D02*
X0128734Y0097363D01*
X0129610Y0097697D02*
X0129943Y0097363D01*
X0130611Y0097363D01*
X0130944Y0097697D01*
X0130944Y0098031D01*
X0130611Y0098364D01*
X0130277Y0098364D01*
X0130611Y0098364D02*
X0130944Y0098698D01*
X0130944Y0099031D01*
X0130611Y0099365D01*
X0129943Y0099365D01*
X0129610Y0099031D01*
X0127400Y0099365D02*
X0127400Y0097363D01*
X0144980Y0093965D02*
X0145981Y0093965D01*
X0146315Y0093631D01*
X0146315Y0092964D01*
X0145981Y0092631D01*
X0144980Y0092631D01*
X0145647Y0092631D02*
X0146315Y0091963D01*
X0147190Y0092297D02*
X0147190Y0092631D01*
X0147524Y0092964D01*
X0148191Y0092964D01*
X0148525Y0092631D01*
X0148525Y0092297D01*
X0148191Y0091963D01*
X0147524Y0091963D01*
X0147190Y0092297D01*
X0147524Y0092964D02*
X0147190Y0093298D01*
X0147190Y0093631D01*
X0147524Y0093965D01*
X0148191Y0093965D01*
X0148525Y0093631D01*
X0148525Y0093298D01*
X0148191Y0092964D01*
X0144980Y0091963D02*
X0144980Y0093965D01*
X0163980Y0110463D02*
X0163980Y0112465D01*
X0164981Y0112465D01*
X0165315Y0112131D01*
X0165315Y0111464D01*
X0164981Y0111131D01*
X0163980Y0111131D01*
X0164647Y0111131D02*
X0165315Y0110463D01*
X0166190Y0110797D02*
X0166524Y0110463D01*
X0167191Y0110463D01*
X0167525Y0110797D01*
X0167525Y0111131D01*
X0167191Y0111464D01*
X0166190Y0111464D01*
X0166190Y0110797D01*
X0166190Y0111464D02*
X0166857Y0112131D01*
X0167525Y0112465D01*
X0153944Y0112865D02*
X0152610Y0112865D01*
X0152610Y0111864D01*
X0153277Y0112198D01*
X0153611Y0112198D01*
X0153944Y0111864D01*
X0153944Y0111197D01*
X0153611Y0110863D01*
X0152943Y0110863D01*
X0152610Y0111197D01*
X0151734Y0111197D02*
X0151401Y0110863D01*
X0150734Y0110863D01*
X0150400Y0111197D01*
X0150400Y0112531D01*
X0150734Y0112865D01*
X0151401Y0112865D01*
X0151734Y0112531D01*
X0150395Y0124913D02*
X0150395Y0127582D01*
X0150062Y0127249D02*
X0150729Y0127249D01*
X0151063Y0126915D01*
X0150729Y0126248D02*
X0150062Y0126248D01*
X0149728Y0126581D01*
X0149728Y0126915D01*
X0150062Y0127249D01*
X0150729Y0126248D02*
X0151063Y0125914D01*
X0151063Y0125580D01*
X0150729Y0125247D01*
X0150062Y0125247D01*
X0149728Y0125580D01*
X0148853Y0125580D02*
X0148853Y0127249D01*
X0147518Y0127249D02*
X0147518Y0125580D01*
X0147852Y0125247D01*
X0148519Y0125247D01*
X0148853Y0125580D01*
X0151938Y0125247D02*
X0153273Y0125247D01*
X0152605Y0125247D02*
X0152605Y0127249D01*
X0151938Y0126581D01*
X0173900Y0099365D02*
X0174901Y0099365D01*
X0175234Y0099031D01*
X0175234Y0098364D01*
X0174901Y0098031D01*
X0173900Y0098031D01*
X0174567Y0098031D02*
X0175234Y0097363D01*
X0176110Y0097697D02*
X0176443Y0097363D01*
X0177111Y0097363D01*
X0177444Y0097697D01*
X0177444Y0099031D01*
X0177111Y0099365D01*
X0176443Y0099365D01*
X0176110Y0099031D01*
X0176110Y0098698D01*
X0176443Y0098364D01*
X0177444Y0098364D01*
X0173900Y0097363D02*
X0173900Y0099365D01*
X0187900Y0107363D02*
X0187900Y0109365D01*
X0188901Y0109365D01*
X0189234Y0109031D01*
X0189234Y0108364D01*
X0188901Y0108031D01*
X0187900Y0108031D01*
X0188567Y0108031D02*
X0189234Y0107363D01*
X0190110Y0107363D02*
X0190110Y0107697D01*
X0191444Y0109031D01*
X0191444Y0109365D01*
X0190110Y0109365D01*
X0188321Y0155363D02*
X0187653Y0155363D01*
X0187320Y0155697D01*
X0187320Y0156364D01*
X0188321Y0156364D01*
X0188654Y0156031D01*
X0188654Y0155697D01*
X0188321Y0155363D01*
X0187320Y0156364D02*
X0187987Y0157031D01*
X0188654Y0157365D01*
X0186444Y0157031D02*
X0186444Y0156698D01*
X0185110Y0155363D01*
X0186444Y0155363D01*
X0186444Y0157031D02*
X0186111Y0157365D01*
X0185443Y0157365D01*
X0185110Y0157031D01*
X0184234Y0157031D02*
X0184234Y0156364D01*
X0183901Y0156031D01*
X0182900Y0156031D01*
X0183567Y0156031D02*
X0184234Y0155363D01*
X0182900Y0155363D02*
X0182900Y0157365D01*
X0183901Y0157365D01*
X0184234Y0157031D01*
X0195400Y0159863D02*
X0195400Y0161865D01*
X0196401Y0161865D01*
X0196734Y0161531D01*
X0196734Y0160864D01*
X0196401Y0160531D01*
X0195400Y0160531D01*
X0196067Y0160531D02*
X0196734Y0159863D01*
X0197610Y0159863D02*
X0198944Y0161198D01*
X0198944Y0161531D01*
X0198611Y0161865D01*
X0197943Y0161865D01*
X0197610Y0161531D01*
X0197610Y0159863D02*
X0198944Y0159863D01*
X0199820Y0160197D02*
X0199820Y0160531D01*
X0200153Y0160864D01*
X0200821Y0160864D01*
X0201154Y0160531D01*
X0201154Y0160197D01*
X0200821Y0159863D01*
X0200153Y0159863D01*
X0199820Y0160197D01*
X0200153Y0160864D02*
X0199820Y0161198D01*
X0199820Y0161531D01*
X0200153Y0161865D01*
X0200821Y0161865D01*
X0201154Y0161531D01*
X0201154Y0161198D01*
X0200821Y0160864D01*
X0155654Y0196863D02*
X0154320Y0196863D01*
X0155654Y0198198D01*
X0155654Y0198531D01*
X0155321Y0198865D01*
X0154653Y0198865D01*
X0154320Y0198531D01*
X0153444Y0198531D02*
X0153111Y0198865D01*
X0152443Y0198865D01*
X0152110Y0198531D01*
X0151234Y0198531D02*
X0151234Y0197864D01*
X0150901Y0197531D01*
X0149900Y0197531D01*
X0150567Y0197531D02*
X0151234Y0196863D01*
X0152110Y0196863D02*
X0153444Y0198198D01*
X0153444Y0198531D01*
X0153444Y0196863D02*
X0152110Y0196863D01*
X0151234Y0198531D02*
X0150901Y0198865D01*
X0149900Y0198865D01*
X0149900Y0196863D01*
X0249400Y0236197D02*
X0249734Y0235863D01*
X0250401Y0235863D01*
X0250734Y0236197D01*
X0250734Y0236531D01*
X0250401Y0236864D01*
X0249734Y0236864D01*
X0249400Y0237198D01*
X0249400Y0237531D01*
X0249734Y0237865D01*
X0250401Y0237865D01*
X0250734Y0237531D01*
X0251610Y0237865D02*
X0251610Y0236531D01*
X0252277Y0235863D01*
X0252944Y0236531D01*
X0252944Y0237865D01*
X0253820Y0237531D02*
X0254153Y0237865D01*
X0254821Y0237865D01*
X0255154Y0237531D01*
X0255154Y0237198D01*
X0253820Y0235863D01*
X0255154Y0235863D01*
X0046154Y0237863D02*
X0044820Y0237863D01*
X0045487Y0237863D02*
X0045487Y0239865D01*
X0044820Y0239198D01*
X0043944Y0238531D02*
X0043944Y0239865D01*
X0042610Y0239865D02*
X0042610Y0238531D01*
X0043277Y0237863D01*
X0043944Y0238531D01*
X0041734Y0238531D02*
X0041734Y0238197D01*
X0041401Y0237863D01*
X0040734Y0237863D01*
X0040400Y0238197D01*
X0040734Y0238864D02*
X0041401Y0238864D01*
X0041734Y0238531D01*
X0041734Y0239531D02*
X0041401Y0239865D01*
X0040734Y0239865D01*
X0040400Y0239531D01*
X0040400Y0239198D01*
X0040734Y0238864D01*
D15*
X0015450Y0239311D02*
X0010946Y0239311D01*
X0012447Y0237809D01*
X0015450Y0237809D02*
X0015450Y0240812D01*
X0039200Y0111163D02*
X0069200Y0111163D01*
X0069200Y0101163D01*
X0039200Y0101163D01*
X0039200Y0111163D01*
X0038946Y0073812D02*
X0039697Y0072311D01*
X0041198Y0070809D01*
X0041198Y0073061D01*
X0041949Y0073812D01*
X0042699Y0073812D01*
X0043450Y0073061D01*
X0043450Y0071560D01*
X0042699Y0070809D01*
X0041198Y0070809D01*
X0040447Y0069208D02*
X0041198Y0068457D01*
X0041949Y0069208D01*
X0042699Y0069208D01*
X0043450Y0068457D01*
X0043450Y0066956D01*
X0042699Y0066206D01*
X0041198Y0067707D02*
X0041198Y0068457D01*
X0040447Y0069208D02*
X0039697Y0069208D01*
X0038946Y0068457D01*
X0038946Y0066956D01*
X0039697Y0066206D01*
X0250946Y0239311D02*
X0255450Y0239311D01*
X0255450Y0240812D02*
X0255450Y0237809D01*
X0252447Y0237809D02*
X0250946Y0239311D01*
X0278946Y0073812D02*
X0279697Y0072311D01*
X0281198Y0070809D01*
X0281198Y0073061D01*
X0281949Y0073812D01*
X0282699Y0073812D01*
X0283450Y0073061D01*
X0283450Y0071560D01*
X0282699Y0070809D01*
X0281198Y0070809D01*
X0280447Y0069208D02*
X0281198Y0068457D01*
X0281949Y0069208D01*
X0282699Y0069208D01*
X0283450Y0068457D01*
X0283450Y0066956D01*
X0282699Y0066206D01*
X0281198Y0067707D02*
X0281198Y0068457D01*
X0280447Y0069208D02*
X0279697Y0069208D01*
X0278946Y0068457D01*
X0278946Y0066956D01*
X0279697Y0066206D01*
D16*
X0116893Y0123927D02*
X0115712Y0123927D01*
X0116893Y0123927D02*
X0116893Y0144400D01*
X0115712Y0144400D01*
X0104688Y0144400D02*
X0103507Y0144400D01*
X0103507Y0123927D01*
X0104688Y0123927D01*
M02*
