%
M48
M72
T01C0.01969
T02C0.02362
T03C0.03500
T04C0.03543
T05C0.03937
T06C0.04000
T07C0.06417
T08C0.12598
T09C0.12795
%
T01
X130200Y115163
X126700Y147663
X120200Y165663
X176200Y147163
T02
X96200Y194163
X108200Y179163
X116200Y179163
X124200Y181163
X142200Y192163
X152200Y173163
X144247Y172864
X154200Y163163
X155200Y152163
X147200Y144163
X139200Y136163
X125700Y131163
X144700Y116663
X143200Y111163
X146700Y107163
X154200Y115163
X160200Y123163
X155200Y136163
X167200Y145163
X176200Y155163
X165200Y162163
X139200Y152163
X123200Y151663
X121200Y159163
X101200Y164163
X94200Y164163
X86200Y170163
X78200Y178163
X74200Y182163
X70200Y186163
X59700Y180663
X94200Y134163
X94700Y108163
X103200Y102163
X88200Y89163
X86200Y97163
X42200Y79163
X136200Y91163
X136200Y104163
X180700Y114163
X187200Y113163
X194200Y117163
X196200Y128163
X198200Y145163
X209200Y151163
X233200Y150163
X245200Y163163
X251200Y167163
X176200Y192163
X162200Y202163
X119200Y203163
X182700Y98163
X197200Y98163
X180200Y50163
T03
X44200Y106163
X54200Y106163
X64200Y106163
T04
X107200Y79163
X117200Y79163
X127200Y79163
X137200Y79163
X132200Y69163
X122200Y69163
X112200Y69163
X102200Y69163
X157200Y69163
X167200Y69163
X177200Y69163
X187200Y69163
X182200Y79163
X192200Y79163
X172200Y79163
X162200Y79163
T05
X190231Y28179
X200231Y28179
X159208Y35148
X149208Y35148
X145192Y28179
X135192Y28179
X104169Y28179
X94169Y28179
T06
X22200Y70163
X32200Y70163
X32200Y80163
X22200Y80163
X22200Y90163
X32200Y90163
X32200Y100163
X22200Y100163
X22200Y110163
X32200Y110163
X32200Y120163
X22200Y120163
X22200Y130163
X32200Y130163
X32200Y140163
X22200Y140163
X22200Y150163
X32200Y150163
X32200Y160163
X22200Y160163
X22200Y170163
X32200Y170163
X32200Y180163
X22200Y180163
X22200Y190163
X32200Y190163
X32200Y200163
X22200Y200163
X22200Y210163
X32200Y210163
X32200Y220163
X22200Y220163
X22200Y230163
X32200Y230163
X32200Y240163
X22200Y240163
X262200Y240163
X262200Y230163
X272200Y230163
X272200Y240163
X272200Y220163
X262200Y220163
X262200Y210163
X262200Y200163
X272200Y200163
X272200Y210163
X272200Y190163
X262200Y190163
X262200Y180163
X272200Y180163
X272200Y170163
X272200Y160163
X262200Y160163
X262200Y170163
X262200Y150163
X272200Y150163
X272200Y140163
X272200Y130163
X262200Y130163
X262200Y140163
X262200Y120163
X272200Y120163
X272200Y110163
X272200Y100163
X262200Y100163
X262200Y110163
X262200Y90163
X272200Y90163
X272200Y80163
X262200Y80163
X262200Y70163
X272200Y70163
T07
X86314Y56171
X147200Y84675
X208086Y56171
T08
X52200Y255163
X242200Y250163
T09
X97200Y44163
X197200Y44163
M30
