G75*
%MOIN*%
%OFA0B0*%
%FSLAX25Y25*%
%IPPOS*%
%LPD*%
%AMOC8*
5,1,8,0,0,1.08239X$1,22.5*
%
%ADD10C,0.00000*%
%ADD11C,0.00400*%
%ADD12C,0.00800*%
D10*
X0010074Y0008163D02*
X0010074Y0268006D01*
X0119129Y0268006D01*
X0119129Y0244384D01*
X0205743Y0244384D01*
X0205743Y0268006D01*
X0285665Y0268006D01*
X0285665Y0008163D01*
X0010074Y0008163D01*
X0090802Y0044163D02*
X0090804Y0044323D01*
X0090810Y0044482D01*
X0090820Y0044641D01*
X0090834Y0044800D01*
X0090852Y0044959D01*
X0090873Y0045117D01*
X0090899Y0045274D01*
X0090929Y0045431D01*
X0090962Y0045587D01*
X0091000Y0045742D01*
X0091041Y0045896D01*
X0091086Y0046049D01*
X0091135Y0046201D01*
X0091188Y0046351D01*
X0091244Y0046500D01*
X0091304Y0046648D01*
X0091368Y0046794D01*
X0091436Y0046939D01*
X0091507Y0047082D01*
X0091581Y0047223D01*
X0091659Y0047362D01*
X0091741Y0047499D01*
X0091826Y0047634D01*
X0091914Y0047767D01*
X0092005Y0047898D01*
X0092100Y0048026D01*
X0092198Y0048152D01*
X0092299Y0048276D01*
X0092403Y0048396D01*
X0092510Y0048515D01*
X0092620Y0048630D01*
X0092733Y0048743D01*
X0092848Y0048853D01*
X0092967Y0048960D01*
X0093087Y0049064D01*
X0093211Y0049165D01*
X0093337Y0049263D01*
X0093465Y0049358D01*
X0093596Y0049449D01*
X0093729Y0049537D01*
X0093864Y0049622D01*
X0094001Y0049704D01*
X0094140Y0049782D01*
X0094281Y0049856D01*
X0094424Y0049927D01*
X0094569Y0049995D01*
X0094715Y0050059D01*
X0094863Y0050119D01*
X0095012Y0050175D01*
X0095162Y0050228D01*
X0095314Y0050277D01*
X0095467Y0050322D01*
X0095621Y0050363D01*
X0095776Y0050401D01*
X0095932Y0050434D01*
X0096089Y0050464D01*
X0096246Y0050490D01*
X0096404Y0050511D01*
X0096563Y0050529D01*
X0096722Y0050543D01*
X0096881Y0050553D01*
X0097040Y0050559D01*
X0097200Y0050561D01*
X0097360Y0050559D01*
X0097519Y0050553D01*
X0097678Y0050543D01*
X0097837Y0050529D01*
X0097996Y0050511D01*
X0098154Y0050490D01*
X0098311Y0050464D01*
X0098468Y0050434D01*
X0098624Y0050401D01*
X0098779Y0050363D01*
X0098933Y0050322D01*
X0099086Y0050277D01*
X0099238Y0050228D01*
X0099388Y0050175D01*
X0099537Y0050119D01*
X0099685Y0050059D01*
X0099831Y0049995D01*
X0099976Y0049927D01*
X0100119Y0049856D01*
X0100260Y0049782D01*
X0100399Y0049704D01*
X0100536Y0049622D01*
X0100671Y0049537D01*
X0100804Y0049449D01*
X0100935Y0049358D01*
X0101063Y0049263D01*
X0101189Y0049165D01*
X0101313Y0049064D01*
X0101433Y0048960D01*
X0101552Y0048853D01*
X0101667Y0048743D01*
X0101780Y0048630D01*
X0101890Y0048515D01*
X0101997Y0048396D01*
X0102101Y0048276D01*
X0102202Y0048152D01*
X0102300Y0048026D01*
X0102395Y0047898D01*
X0102486Y0047767D01*
X0102574Y0047634D01*
X0102659Y0047499D01*
X0102741Y0047362D01*
X0102819Y0047223D01*
X0102893Y0047082D01*
X0102964Y0046939D01*
X0103032Y0046794D01*
X0103096Y0046648D01*
X0103156Y0046500D01*
X0103212Y0046351D01*
X0103265Y0046201D01*
X0103314Y0046049D01*
X0103359Y0045896D01*
X0103400Y0045742D01*
X0103438Y0045587D01*
X0103471Y0045431D01*
X0103501Y0045274D01*
X0103527Y0045117D01*
X0103548Y0044959D01*
X0103566Y0044800D01*
X0103580Y0044641D01*
X0103590Y0044482D01*
X0103596Y0044323D01*
X0103598Y0044163D01*
X0103596Y0044003D01*
X0103590Y0043844D01*
X0103580Y0043685D01*
X0103566Y0043526D01*
X0103548Y0043367D01*
X0103527Y0043209D01*
X0103501Y0043052D01*
X0103471Y0042895D01*
X0103438Y0042739D01*
X0103400Y0042584D01*
X0103359Y0042430D01*
X0103314Y0042277D01*
X0103265Y0042125D01*
X0103212Y0041975D01*
X0103156Y0041826D01*
X0103096Y0041678D01*
X0103032Y0041532D01*
X0102964Y0041387D01*
X0102893Y0041244D01*
X0102819Y0041103D01*
X0102741Y0040964D01*
X0102659Y0040827D01*
X0102574Y0040692D01*
X0102486Y0040559D01*
X0102395Y0040428D01*
X0102300Y0040300D01*
X0102202Y0040174D01*
X0102101Y0040050D01*
X0101997Y0039930D01*
X0101890Y0039811D01*
X0101780Y0039696D01*
X0101667Y0039583D01*
X0101552Y0039473D01*
X0101433Y0039366D01*
X0101313Y0039262D01*
X0101189Y0039161D01*
X0101063Y0039063D01*
X0100935Y0038968D01*
X0100804Y0038877D01*
X0100671Y0038789D01*
X0100536Y0038704D01*
X0100399Y0038622D01*
X0100260Y0038544D01*
X0100119Y0038470D01*
X0099976Y0038399D01*
X0099831Y0038331D01*
X0099685Y0038267D01*
X0099537Y0038207D01*
X0099388Y0038151D01*
X0099238Y0038098D01*
X0099086Y0038049D01*
X0098933Y0038004D01*
X0098779Y0037963D01*
X0098624Y0037925D01*
X0098468Y0037892D01*
X0098311Y0037862D01*
X0098154Y0037836D01*
X0097996Y0037815D01*
X0097837Y0037797D01*
X0097678Y0037783D01*
X0097519Y0037773D01*
X0097360Y0037767D01*
X0097200Y0037765D01*
X0097040Y0037767D01*
X0096881Y0037773D01*
X0096722Y0037783D01*
X0096563Y0037797D01*
X0096404Y0037815D01*
X0096246Y0037836D01*
X0096089Y0037862D01*
X0095932Y0037892D01*
X0095776Y0037925D01*
X0095621Y0037963D01*
X0095467Y0038004D01*
X0095314Y0038049D01*
X0095162Y0038098D01*
X0095012Y0038151D01*
X0094863Y0038207D01*
X0094715Y0038267D01*
X0094569Y0038331D01*
X0094424Y0038399D01*
X0094281Y0038470D01*
X0094140Y0038544D01*
X0094001Y0038622D01*
X0093864Y0038704D01*
X0093729Y0038789D01*
X0093596Y0038877D01*
X0093465Y0038968D01*
X0093337Y0039063D01*
X0093211Y0039161D01*
X0093087Y0039262D01*
X0092967Y0039366D01*
X0092848Y0039473D01*
X0092733Y0039583D01*
X0092620Y0039696D01*
X0092510Y0039811D01*
X0092403Y0039930D01*
X0092299Y0040050D01*
X0092198Y0040174D01*
X0092100Y0040300D01*
X0092005Y0040428D01*
X0091914Y0040559D01*
X0091826Y0040692D01*
X0091741Y0040827D01*
X0091659Y0040964D01*
X0091581Y0041103D01*
X0091507Y0041244D01*
X0091436Y0041387D01*
X0091368Y0041532D01*
X0091304Y0041678D01*
X0091244Y0041826D01*
X0091188Y0041975D01*
X0091135Y0042125D01*
X0091086Y0042277D01*
X0091041Y0042430D01*
X0091000Y0042584D01*
X0090962Y0042739D01*
X0090929Y0042895D01*
X0090899Y0043052D01*
X0090873Y0043209D01*
X0090852Y0043367D01*
X0090834Y0043526D01*
X0090820Y0043685D01*
X0090810Y0043844D01*
X0090804Y0044003D01*
X0090802Y0044163D01*
X0190802Y0044163D02*
X0190804Y0044323D01*
X0190810Y0044482D01*
X0190820Y0044641D01*
X0190834Y0044800D01*
X0190852Y0044959D01*
X0190873Y0045117D01*
X0190899Y0045274D01*
X0190929Y0045431D01*
X0190962Y0045587D01*
X0191000Y0045742D01*
X0191041Y0045896D01*
X0191086Y0046049D01*
X0191135Y0046201D01*
X0191188Y0046351D01*
X0191244Y0046500D01*
X0191304Y0046648D01*
X0191368Y0046794D01*
X0191436Y0046939D01*
X0191507Y0047082D01*
X0191581Y0047223D01*
X0191659Y0047362D01*
X0191741Y0047499D01*
X0191826Y0047634D01*
X0191914Y0047767D01*
X0192005Y0047898D01*
X0192100Y0048026D01*
X0192198Y0048152D01*
X0192299Y0048276D01*
X0192403Y0048396D01*
X0192510Y0048515D01*
X0192620Y0048630D01*
X0192733Y0048743D01*
X0192848Y0048853D01*
X0192967Y0048960D01*
X0193087Y0049064D01*
X0193211Y0049165D01*
X0193337Y0049263D01*
X0193465Y0049358D01*
X0193596Y0049449D01*
X0193729Y0049537D01*
X0193864Y0049622D01*
X0194001Y0049704D01*
X0194140Y0049782D01*
X0194281Y0049856D01*
X0194424Y0049927D01*
X0194569Y0049995D01*
X0194715Y0050059D01*
X0194863Y0050119D01*
X0195012Y0050175D01*
X0195162Y0050228D01*
X0195314Y0050277D01*
X0195467Y0050322D01*
X0195621Y0050363D01*
X0195776Y0050401D01*
X0195932Y0050434D01*
X0196089Y0050464D01*
X0196246Y0050490D01*
X0196404Y0050511D01*
X0196563Y0050529D01*
X0196722Y0050543D01*
X0196881Y0050553D01*
X0197040Y0050559D01*
X0197200Y0050561D01*
X0197360Y0050559D01*
X0197519Y0050553D01*
X0197678Y0050543D01*
X0197837Y0050529D01*
X0197996Y0050511D01*
X0198154Y0050490D01*
X0198311Y0050464D01*
X0198468Y0050434D01*
X0198624Y0050401D01*
X0198779Y0050363D01*
X0198933Y0050322D01*
X0199086Y0050277D01*
X0199238Y0050228D01*
X0199388Y0050175D01*
X0199537Y0050119D01*
X0199685Y0050059D01*
X0199831Y0049995D01*
X0199976Y0049927D01*
X0200119Y0049856D01*
X0200260Y0049782D01*
X0200399Y0049704D01*
X0200536Y0049622D01*
X0200671Y0049537D01*
X0200804Y0049449D01*
X0200935Y0049358D01*
X0201063Y0049263D01*
X0201189Y0049165D01*
X0201313Y0049064D01*
X0201433Y0048960D01*
X0201552Y0048853D01*
X0201667Y0048743D01*
X0201780Y0048630D01*
X0201890Y0048515D01*
X0201997Y0048396D01*
X0202101Y0048276D01*
X0202202Y0048152D01*
X0202300Y0048026D01*
X0202395Y0047898D01*
X0202486Y0047767D01*
X0202574Y0047634D01*
X0202659Y0047499D01*
X0202741Y0047362D01*
X0202819Y0047223D01*
X0202893Y0047082D01*
X0202964Y0046939D01*
X0203032Y0046794D01*
X0203096Y0046648D01*
X0203156Y0046500D01*
X0203212Y0046351D01*
X0203265Y0046201D01*
X0203314Y0046049D01*
X0203359Y0045896D01*
X0203400Y0045742D01*
X0203438Y0045587D01*
X0203471Y0045431D01*
X0203501Y0045274D01*
X0203527Y0045117D01*
X0203548Y0044959D01*
X0203566Y0044800D01*
X0203580Y0044641D01*
X0203590Y0044482D01*
X0203596Y0044323D01*
X0203598Y0044163D01*
X0203596Y0044003D01*
X0203590Y0043844D01*
X0203580Y0043685D01*
X0203566Y0043526D01*
X0203548Y0043367D01*
X0203527Y0043209D01*
X0203501Y0043052D01*
X0203471Y0042895D01*
X0203438Y0042739D01*
X0203400Y0042584D01*
X0203359Y0042430D01*
X0203314Y0042277D01*
X0203265Y0042125D01*
X0203212Y0041975D01*
X0203156Y0041826D01*
X0203096Y0041678D01*
X0203032Y0041532D01*
X0202964Y0041387D01*
X0202893Y0041244D01*
X0202819Y0041103D01*
X0202741Y0040964D01*
X0202659Y0040827D01*
X0202574Y0040692D01*
X0202486Y0040559D01*
X0202395Y0040428D01*
X0202300Y0040300D01*
X0202202Y0040174D01*
X0202101Y0040050D01*
X0201997Y0039930D01*
X0201890Y0039811D01*
X0201780Y0039696D01*
X0201667Y0039583D01*
X0201552Y0039473D01*
X0201433Y0039366D01*
X0201313Y0039262D01*
X0201189Y0039161D01*
X0201063Y0039063D01*
X0200935Y0038968D01*
X0200804Y0038877D01*
X0200671Y0038789D01*
X0200536Y0038704D01*
X0200399Y0038622D01*
X0200260Y0038544D01*
X0200119Y0038470D01*
X0199976Y0038399D01*
X0199831Y0038331D01*
X0199685Y0038267D01*
X0199537Y0038207D01*
X0199388Y0038151D01*
X0199238Y0038098D01*
X0199086Y0038049D01*
X0198933Y0038004D01*
X0198779Y0037963D01*
X0198624Y0037925D01*
X0198468Y0037892D01*
X0198311Y0037862D01*
X0198154Y0037836D01*
X0197996Y0037815D01*
X0197837Y0037797D01*
X0197678Y0037783D01*
X0197519Y0037773D01*
X0197360Y0037767D01*
X0197200Y0037765D01*
X0197040Y0037767D01*
X0196881Y0037773D01*
X0196722Y0037783D01*
X0196563Y0037797D01*
X0196404Y0037815D01*
X0196246Y0037836D01*
X0196089Y0037862D01*
X0195932Y0037892D01*
X0195776Y0037925D01*
X0195621Y0037963D01*
X0195467Y0038004D01*
X0195314Y0038049D01*
X0195162Y0038098D01*
X0195012Y0038151D01*
X0194863Y0038207D01*
X0194715Y0038267D01*
X0194569Y0038331D01*
X0194424Y0038399D01*
X0194281Y0038470D01*
X0194140Y0038544D01*
X0194001Y0038622D01*
X0193864Y0038704D01*
X0193729Y0038789D01*
X0193596Y0038877D01*
X0193465Y0038968D01*
X0193337Y0039063D01*
X0193211Y0039161D01*
X0193087Y0039262D01*
X0192967Y0039366D01*
X0192848Y0039473D01*
X0192733Y0039583D01*
X0192620Y0039696D01*
X0192510Y0039811D01*
X0192403Y0039930D01*
X0192299Y0040050D01*
X0192198Y0040174D01*
X0192100Y0040300D01*
X0192005Y0040428D01*
X0191914Y0040559D01*
X0191826Y0040692D01*
X0191741Y0040827D01*
X0191659Y0040964D01*
X0191581Y0041103D01*
X0191507Y0041244D01*
X0191436Y0041387D01*
X0191368Y0041532D01*
X0191304Y0041678D01*
X0191244Y0041826D01*
X0191188Y0041975D01*
X0191135Y0042125D01*
X0191086Y0042277D01*
X0191041Y0042430D01*
X0191000Y0042584D01*
X0190962Y0042739D01*
X0190929Y0042895D01*
X0190899Y0043052D01*
X0190873Y0043209D01*
X0190852Y0043367D01*
X0190834Y0043526D01*
X0190820Y0043685D01*
X0190810Y0043844D01*
X0190804Y0044003D01*
X0190802Y0044163D01*
X0235901Y0250163D02*
X0235903Y0250321D01*
X0235909Y0250479D01*
X0235919Y0250637D01*
X0235933Y0250795D01*
X0235951Y0250952D01*
X0235972Y0251109D01*
X0235998Y0251265D01*
X0236028Y0251421D01*
X0236061Y0251576D01*
X0236099Y0251729D01*
X0236140Y0251882D01*
X0236185Y0252034D01*
X0236234Y0252185D01*
X0236287Y0252334D01*
X0236343Y0252482D01*
X0236403Y0252628D01*
X0236467Y0252773D01*
X0236535Y0252916D01*
X0236606Y0253058D01*
X0236680Y0253198D01*
X0236758Y0253335D01*
X0236840Y0253471D01*
X0236924Y0253605D01*
X0237013Y0253736D01*
X0237104Y0253865D01*
X0237199Y0253992D01*
X0237296Y0254117D01*
X0237397Y0254239D01*
X0237501Y0254358D01*
X0237608Y0254475D01*
X0237718Y0254589D01*
X0237831Y0254700D01*
X0237946Y0254809D01*
X0238064Y0254914D01*
X0238185Y0255016D01*
X0238308Y0255116D01*
X0238434Y0255212D01*
X0238562Y0255305D01*
X0238692Y0255395D01*
X0238825Y0255481D01*
X0238960Y0255565D01*
X0239096Y0255644D01*
X0239235Y0255721D01*
X0239376Y0255793D01*
X0239518Y0255863D01*
X0239662Y0255928D01*
X0239808Y0255990D01*
X0239955Y0256048D01*
X0240104Y0256103D01*
X0240254Y0256154D01*
X0240405Y0256201D01*
X0240557Y0256244D01*
X0240710Y0256283D01*
X0240865Y0256319D01*
X0241020Y0256350D01*
X0241176Y0256378D01*
X0241332Y0256402D01*
X0241489Y0256422D01*
X0241647Y0256438D01*
X0241804Y0256450D01*
X0241963Y0256458D01*
X0242121Y0256462D01*
X0242279Y0256462D01*
X0242437Y0256458D01*
X0242596Y0256450D01*
X0242753Y0256438D01*
X0242911Y0256422D01*
X0243068Y0256402D01*
X0243224Y0256378D01*
X0243380Y0256350D01*
X0243535Y0256319D01*
X0243690Y0256283D01*
X0243843Y0256244D01*
X0243995Y0256201D01*
X0244146Y0256154D01*
X0244296Y0256103D01*
X0244445Y0256048D01*
X0244592Y0255990D01*
X0244738Y0255928D01*
X0244882Y0255863D01*
X0245024Y0255793D01*
X0245165Y0255721D01*
X0245304Y0255644D01*
X0245440Y0255565D01*
X0245575Y0255481D01*
X0245708Y0255395D01*
X0245838Y0255305D01*
X0245966Y0255212D01*
X0246092Y0255116D01*
X0246215Y0255016D01*
X0246336Y0254914D01*
X0246454Y0254809D01*
X0246569Y0254700D01*
X0246682Y0254589D01*
X0246792Y0254475D01*
X0246899Y0254358D01*
X0247003Y0254239D01*
X0247104Y0254117D01*
X0247201Y0253992D01*
X0247296Y0253865D01*
X0247387Y0253736D01*
X0247476Y0253605D01*
X0247560Y0253471D01*
X0247642Y0253335D01*
X0247720Y0253198D01*
X0247794Y0253058D01*
X0247865Y0252916D01*
X0247933Y0252773D01*
X0247997Y0252628D01*
X0248057Y0252482D01*
X0248113Y0252334D01*
X0248166Y0252185D01*
X0248215Y0252034D01*
X0248260Y0251882D01*
X0248301Y0251729D01*
X0248339Y0251576D01*
X0248372Y0251421D01*
X0248402Y0251265D01*
X0248428Y0251109D01*
X0248449Y0250952D01*
X0248467Y0250795D01*
X0248481Y0250637D01*
X0248491Y0250479D01*
X0248497Y0250321D01*
X0248499Y0250163D01*
X0248497Y0250005D01*
X0248491Y0249847D01*
X0248481Y0249689D01*
X0248467Y0249531D01*
X0248449Y0249374D01*
X0248428Y0249217D01*
X0248402Y0249061D01*
X0248372Y0248905D01*
X0248339Y0248750D01*
X0248301Y0248597D01*
X0248260Y0248444D01*
X0248215Y0248292D01*
X0248166Y0248141D01*
X0248113Y0247992D01*
X0248057Y0247844D01*
X0247997Y0247698D01*
X0247933Y0247553D01*
X0247865Y0247410D01*
X0247794Y0247268D01*
X0247720Y0247128D01*
X0247642Y0246991D01*
X0247560Y0246855D01*
X0247476Y0246721D01*
X0247387Y0246590D01*
X0247296Y0246461D01*
X0247201Y0246334D01*
X0247104Y0246209D01*
X0247003Y0246087D01*
X0246899Y0245968D01*
X0246792Y0245851D01*
X0246682Y0245737D01*
X0246569Y0245626D01*
X0246454Y0245517D01*
X0246336Y0245412D01*
X0246215Y0245310D01*
X0246092Y0245210D01*
X0245966Y0245114D01*
X0245838Y0245021D01*
X0245708Y0244931D01*
X0245575Y0244845D01*
X0245440Y0244761D01*
X0245304Y0244682D01*
X0245165Y0244605D01*
X0245024Y0244533D01*
X0244882Y0244463D01*
X0244738Y0244398D01*
X0244592Y0244336D01*
X0244445Y0244278D01*
X0244296Y0244223D01*
X0244146Y0244172D01*
X0243995Y0244125D01*
X0243843Y0244082D01*
X0243690Y0244043D01*
X0243535Y0244007D01*
X0243380Y0243976D01*
X0243224Y0243948D01*
X0243068Y0243924D01*
X0242911Y0243904D01*
X0242753Y0243888D01*
X0242596Y0243876D01*
X0242437Y0243868D01*
X0242279Y0243864D01*
X0242121Y0243864D01*
X0241963Y0243868D01*
X0241804Y0243876D01*
X0241647Y0243888D01*
X0241489Y0243904D01*
X0241332Y0243924D01*
X0241176Y0243948D01*
X0241020Y0243976D01*
X0240865Y0244007D01*
X0240710Y0244043D01*
X0240557Y0244082D01*
X0240405Y0244125D01*
X0240254Y0244172D01*
X0240104Y0244223D01*
X0239955Y0244278D01*
X0239808Y0244336D01*
X0239662Y0244398D01*
X0239518Y0244463D01*
X0239376Y0244533D01*
X0239235Y0244605D01*
X0239096Y0244682D01*
X0238960Y0244761D01*
X0238825Y0244845D01*
X0238692Y0244931D01*
X0238562Y0245021D01*
X0238434Y0245114D01*
X0238308Y0245210D01*
X0238185Y0245310D01*
X0238064Y0245412D01*
X0237946Y0245517D01*
X0237831Y0245626D01*
X0237718Y0245737D01*
X0237608Y0245851D01*
X0237501Y0245968D01*
X0237397Y0246087D01*
X0237296Y0246209D01*
X0237199Y0246334D01*
X0237104Y0246461D01*
X0237013Y0246590D01*
X0236924Y0246721D01*
X0236840Y0246855D01*
X0236758Y0246991D01*
X0236680Y0247128D01*
X0236606Y0247268D01*
X0236535Y0247410D01*
X0236467Y0247553D01*
X0236403Y0247698D01*
X0236343Y0247844D01*
X0236287Y0247992D01*
X0236234Y0248141D01*
X0236185Y0248292D01*
X0236140Y0248444D01*
X0236099Y0248597D01*
X0236061Y0248750D01*
X0236028Y0248905D01*
X0235998Y0249061D01*
X0235972Y0249217D01*
X0235951Y0249374D01*
X0235933Y0249531D01*
X0235919Y0249689D01*
X0235909Y0249847D01*
X0235903Y0250005D01*
X0235901Y0250163D01*
X0045901Y0255163D02*
X0045903Y0255321D01*
X0045909Y0255479D01*
X0045919Y0255637D01*
X0045933Y0255795D01*
X0045951Y0255952D01*
X0045972Y0256109D01*
X0045998Y0256265D01*
X0046028Y0256421D01*
X0046061Y0256576D01*
X0046099Y0256729D01*
X0046140Y0256882D01*
X0046185Y0257034D01*
X0046234Y0257185D01*
X0046287Y0257334D01*
X0046343Y0257482D01*
X0046403Y0257628D01*
X0046467Y0257773D01*
X0046535Y0257916D01*
X0046606Y0258058D01*
X0046680Y0258198D01*
X0046758Y0258335D01*
X0046840Y0258471D01*
X0046924Y0258605D01*
X0047013Y0258736D01*
X0047104Y0258865D01*
X0047199Y0258992D01*
X0047296Y0259117D01*
X0047397Y0259239D01*
X0047501Y0259358D01*
X0047608Y0259475D01*
X0047718Y0259589D01*
X0047831Y0259700D01*
X0047946Y0259809D01*
X0048064Y0259914D01*
X0048185Y0260016D01*
X0048308Y0260116D01*
X0048434Y0260212D01*
X0048562Y0260305D01*
X0048692Y0260395D01*
X0048825Y0260481D01*
X0048960Y0260565D01*
X0049096Y0260644D01*
X0049235Y0260721D01*
X0049376Y0260793D01*
X0049518Y0260863D01*
X0049662Y0260928D01*
X0049808Y0260990D01*
X0049955Y0261048D01*
X0050104Y0261103D01*
X0050254Y0261154D01*
X0050405Y0261201D01*
X0050557Y0261244D01*
X0050710Y0261283D01*
X0050865Y0261319D01*
X0051020Y0261350D01*
X0051176Y0261378D01*
X0051332Y0261402D01*
X0051489Y0261422D01*
X0051647Y0261438D01*
X0051804Y0261450D01*
X0051963Y0261458D01*
X0052121Y0261462D01*
X0052279Y0261462D01*
X0052437Y0261458D01*
X0052596Y0261450D01*
X0052753Y0261438D01*
X0052911Y0261422D01*
X0053068Y0261402D01*
X0053224Y0261378D01*
X0053380Y0261350D01*
X0053535Y0261319D01*
X0053690Y0261283D01*
X0053843Y0261244D01*
X0053995Y0261201D01*
X0054146Y0261154D01*
X0054296Y0261103D01*
X0054445Y0261048D01*
X0054592Y0260990D01*
X0054738Y0260928D01*
X0054882Y0260863D01*
X0055024Y0260793D01*
X0055165Y0260721D01*
X0055304Y0260644D01*
X0055440Y0260565D01*
X0055575Y0260481D01*
X0055708Y0260395D01*
X0055838Y0260305D01*
X0055966Y0260212D01*
X0056092Y0260116D01*
X0056215Y0260016D01*
X0056336Y0259914D01*
X0056454Y0259809D01*
X0056569Y0259700D01*
X0056682Y0259589D01*
X0056792Y0259475D01*
X0056899Y0259358D01*
X0057003Y0259239D01*
X0057104Y0259117D01*
X0057201Y0258992D01*
X0057296Y0258865D01*
X0057387Y0258736D01*
X0057476Y0258605D01*
X0057560Y0258471D01*
X0057642Y0258335D01*
X0057720Y0258198D01*
X0057794Y0258058D01*
X0057865Y0257916D01*
X0057933Y0257773D01*
X0057997Y0257628D01*
X0058057Y0257482D01*
X0058113Y0257334D01*
X0058166Y0257185D01*
X0058215Y0257034D01*
X0058260Y0256882D01*
X0058301Y0256729D01*
X0058339Y0256576D01*
X0058372Y0256421D01*
X0058402Y0256265D01*
X0058428Y0256109D01*
X0058449Y0255952D01*
X0058467Y0255795D01*
X0058481Y0255637D01*
X0058491Y0255479D01*
X0058497Y0255321D01*
X0058499Y0255163D01*
X0058497Y0255005D01*
X0058491Y0254847D01*
X0058481Y0254689D01*
X0058467Y0254531D01*
X0058449Y0254374D01*
X0058428Y0254217D01*
X0058402Y0254061D01*
X0058372Y0253905D01*
X0058339Y0253750D01*
X0058301Y0253597D01*
X0058260Y0253444D01*
X0058215Y0253292D01*
X0058166Y0253141D01*
X0058113Y0252992D01*
X0058057Y0252844D01*
X0057997Y0252698D01*
X0057933Y0252553D01*
X0057865Y0252410D01*
X0057794Y0252268D01*
X0057720Y0252128D01*
X0057642Y0251991D01*
X0057560Y0251855D01*
X0057476Y0251721D01*
X0057387Y0251590D01*
X0057296Y0251461D01*
X0057201Y0251334D01*
X0057104Y0251209D01*
X0057003Y0251087D01*
X0056899Y0250968D01*
X0056792Y0250851D01*
X0056682Y0250737D01*
X0056569Y0250626D01*
X0056454Y0250517D01*
X0056336Y0250412D01*
X0056215Y0250310D01*
X0056092Y0250210D01*
X0055966Y0250114D01*
X0055838Y0250021D01*
X0055708Y0249931D01*
X0055575Y0249845D01*
X0055440Y0249761D01*
X0055304Y0249682D01*
X0055165Y0249605D01*
X0055024Y0249533D01*
X0054882Y0249463D01*
X0054738Y0249398D01*
X0054592Y0249336D01*
X0054445Y0249278D01*
X0054296Y0249223D01*
X0054146Y0249172D01*
X0053995Y0249125D01*
X0053843Y0249082D01*
X0053690Y0249043D01*
X0053535Y0249007D01*
X0053380Y0248976D01*
X0053224Y0248948D01*
X0053068Y0248924D01*
X0052911Y0248904D01*
X0052753Y0248888D01*
X0052596Y0248876D01*
X0052437Y0248868D01*
X0052279Y0248864D01*
X0052121Y0248864D01*
X0051963Y0248868D01*
X0051804Y0248876D01*
X0051647Y0248888D01*
X0051489Y0248904D01*
X0051332Y0248924D01*
X0051176Y0248948D01*
X0051020Y0248976D01*
X0050865Y0249007D01*
X0050710Y0249043D01*
X0050557Y0249082D01*
X0050405Y0249125D01*
X0050254Y0249172D01*
X0050104Y0249223D01*
X0049955Y0249278D01*
X0049808Y0249336D01*
X0049662Y0249398D01*
X0049518Y0249463D01*
X0049376Y0249533D01*
X0049235Y0249605D01*
X0049096Y0249682D01*
X0048960Y0249761D01*
X0048825Y0249845D01*
X0048692Y0249931D01*
X0048562Y0250021D01*
X0048434Y0250114D01*
X0048308Y0250210D01*
X0048185Y0250310D01*
X0048064Y0250412D01*
X0047946Y0250517D01*
X0047831Y0250626D01*
X0047718Y0250737D01*
X0047608Y0250851D01*
X0047501Y0250968D01*
X0047397Y0251087D01*
X0047296Y0251209D01*
X0047199Y0251334D01*
X0047104Y0251461D01*
X0047013Y0251590D01*
X0046924Y0251721D01*
X0046840Y0251855D01*
X0046758Y0251991D01*
X0046680Y0252128D01*
X0046606Y0252268D01*
X0046535Y0252410D01*
X0046467Y0252553D01*
X0046403Y0252698D01*
X0046343Y0252844D01*
X0046287Y0252992D01*
X0046234Y0253141D01*
X0046185Y0253292D01*
X0046140Y0253444D01*
X0046099Y0253597D01*
X0046061Y0253750D01*
X0046028Y0253905D01*
X0045998Y0254061D01*
X0045972Y0254217D01*
X0045951Y0254374D01*
X0045933Y0254531D01*
X0045919Y0254689D01*
X0045909Y0254847D01*
X0045903Y0255005D01*
X0045901Y0255163D01*
D11*
X0107579Y0175365D02*
X0107246Y0175031D01*
X0108580Y0173697D01*
X0108247Y0173363D01*
X0107579Y0173363D01*
X0107246Y0173697D01*
X0107246Y0175031D01*
X0107579Y0175365D02*
X0108247Y0175365D01*
X0108580Y0175031D01*
X0108580Y0173697D01*
X0109456Y0173697D02*
X0109789Y0173363D01*
X0110457Y0173363D01*
X0110790Y0173697D01*
X0111666Y0173363D02*
X0112333Y0174031D01*
X0111999Y0174031D02*
X0113000Y0174031D01*
X0113000Y0173363D02*
X0113000Y0175365D01*
X0111999Y0175365D01*
X0111666Y0175031D01*
X0111666Y0174364D01*
X0111999Y0174031D01*
X0110790Y0175031D02*
X0110457Y0175365D01*
X0109789Y0175365D01*
X0109456Y0175031D01*
X0109456Y0174698D01*
X0109789Y0174364D01*
X0109456Y0174031D01*
X0109456Y0173697D01*
X0109789Y0174364D02*
X0110123Y0174364D01*
X0110999Y0156365D02*
X0111666Y0156365D01*
X0112000Y0156031D01*
X0112000Y0154697D01*
X0111666Y0154363D01*
X0110999Y0154363D01*
X0110666Y0154697D01*
X0109790Y0154363D02*
X0108456Y0154363D01*
X0109123Y0154363D02*
X0109123Y0156365D01*
X0109790Y0155698D01*
X0110666Y0156031D02*
X0110999Y0156365D01*
X0107580Y0155364D02*
X0106246Y0155364D01*
X0106579Y0154363D02*
X0106579Y0156365D01*
X0107580Y0155364D01*
X0124894Y0144365D02*
X0124894Y0142363D01*
X0124561Y0143364D02*
X0125895Y0143364D01*
X0124894Y0144365D01*
X0126770Y0144031D02*
X0126770Y0143698D01*
X0127104Y0143364D01*
X0128105Y0143364D01*
X0128105Y0142363D02*
X0128105Y0144365D01*
X0127104Y0144365D01*
X0126770Y0144031D01*
X0127104Y0143364D02*
X0126770Y0143031D01*
X0126770Y0142697D01*
X0127104Y0142363D01*
X0128105Y0142363D01*
X0129648Y0143364D02*
X0130315Y0143364D01*
X0130315Y0142363D02*
X0130315Y0144365D01*
X0128980Y0144365D01*
X0116000Y0136031D02*
X0116000Y0134697D01*
X0115666Y0134363D01*
X0114999Y0134363D01*
X0114666Y0134697D01*
X0113790Y0134363D02*
X0112456Y0135698D01*
X0112456Y0136031D01*
X0112789Y0136365D01*
X0113457Y0136365D01*
X0113790Y0136031D01*
X0114666Y0136031D02*
X0114999Y0136365D01*
X0115666Y0136365D01*
X0116000Y0136031D01*
X0113790Y0134363D02*
X0112456Y0134363D01*
X0111580Y0134363D02*
X0110246Y0134363D01*
X0110913Y0134363D02*
X0110913Y0136365D01*
X0111580Y0135698D01*
X0106130Y0127465D02*
X0105129Y0127465D01*
X0104795Y0127131D01*
X0104795Y0126464D01*
X0105129Y0126131D01*
X0106130Y0126131D01*
X0105462Y0126131D02*
X0104795Y0125463D01*
X0103920Y0125463D02*
X0102585Y0125463D01*
X0103253Y0125463D02*
X0103253Y0127465D01*
X0103920Y0126798D01*
X0101710Y0126464D02*
X0100709Y0127465D01*
X0100709Y0125463D01*
X0100375Y0126464D02*
X0101710Y0126464D01*
X0106130Y0125463D02*
X0106130Y0127465D01*
X0120746Y0120365D02*
X0121413Y0120031D01*
X0122080Y0119364D01*
X0121079Y0119364D01*
X0120746Y0119031D01*
X0120746Y0118697D01*
X0121079Y0118363D01*
X0121747Y0118363D01*
X0122080Y0118697D01*
X0122080Y0119364D01*
X0122956Y0118363D02*
X0124290Y0118363D01*
X0123623Y0118363D02*
X0123623Y0120365D01*
X0124290Y0119698D01*
X0125166Y0120031D02*
X0125499Y0120365D01*
X0126166Y0120365D01*
X0126500Y0120031D01*
X0126500Y0118697D01*
X0126166Y0118363D01*
X0125499Y0118363D01*
X0125166Y0118697D01*
X0131875Y0112465D02*
X0131875Y0112131D01*
X0133210Y0110797D01*
X0133210Y0110463D01*
X0134085Y0110463D02*
X0135420Y0110463D01*
X0134753Y0110463D02*
X0134753Y0112465D01*
X0135420Y0111798D01*
X0136295Y0112131D02*
X0136629Y0112465D01*
X0137296Y0112465D01*
X0137630Y0112131D01*
X0137630Y0110797D01*
X0137296Y0110463D01*
X0136629Y0110463D01*
X0136295Y0110797D01*
X0133210Y0112465D02*
X0131875Y0112465D01*
X0139875Y0106965D02*
X0140543Y0106631D01*
X0141210Y0105964D01*
X0140209Y0105964D01*
X0139875Y0105631D01*
X0139875Y0105297D01*
X0140209Y0104963D01*
X0140876Y0104963D01*
X0141210Y0105297D01*
X0141210Y0105964D01*
X0142085Y0105297D02*
X0142419Y0104963D01*
X0143086Y0104963D01*
X0143420Y0105297D01*
X0143420Y0106631D01*
X0143086Y0106965D01*
X0142419Y0106965D01*
X0142085Y0106631D01*
X0149875Y0106631D02*
X0151210Y0105297D01*
X0151210Y0104963D01*
X0152085Y0105297D02*
X0152419Y0104963D01*
X0153086Y0104963D01*
X0153420Y0105297D01*
X0153420Y0106631D01*
X0153086Y0106965D01*
X0152419Y0106965D01*
X0152085Y0106631D01*
X0151210Y0106965D02*
X0149875Y0106965D01*
X0149875Y0106631D01*
X0170061Y0100531D02*
X0170061Y0100198D01*
X0170394Y0099864D01*
X0170061Y0099531D01*
X0170061Y0099197D01*
X0170394Y0098863D01*
X0171061Y0098863D01*
X0171395Y0099197D01*
X0172270Y0099197D02*
X0172604Y0098863D01*
X0173605Y0098863D01*
X0173605Y0100865D01*
X0172604Y0100865D01*
X0172270Y0100531D01*
X0172270Y0100198D01*
X0172604Y0099864D01*
X0173605Y0099864D01*
X0172604Y0099864D02*
X0172270Y0099531D01*
X0172270Y0099197D01*
X0171395Y0100531D02*
X0171061Y0100865D01*
X0170394Y0100865D01*
X0170061Y0100531D01*
X0170394Y0099864D02*
X0170728Y0099864D01*
X0174480Y0100865D02*
X0175815Y0100865D01*
X0175815Y0098863D01*
X0175815Y0099864D02*
X0175148Y0099864D01*
X0172666Y0094365D02*
X0173000Y0094031D01*
X0173000Y0092697D01*
X0172666Y0092363D01*
X0171999Y0092363D01*
X0171666Y0092697D01*
X0170790Y0092363D02*
X0169456Y0093698D01*
X0169456Y0094031D01*
X0169789Y0094365D01*
X0170457Y0094365D01*
X0170790Y0094031D01*
X0171666Y0094031D02*
X0171999Y0094365D01*
X0172666Y0094365D01*
X0170790Y0092363D02*
X0169456Y0092363D01*
X0182875Y0092797D02*
X0183209Y0092463D01*
X0183876Y0092463D01*
X0184210Y0092797D01*
X0182875Y0094131D01*
X0182875Y0092797D01*
X0182875Y0094131D02*
X0183209Y0094465D01*
X0183876Y0094465D01*
X0184210Y0094131D01*
X0184210Y0092797D01*
X0185085Y0092463D02*
X0186420Y0092463D01*
X0185753Y0092463D02*
X0185753Y0094465D01*
X0186420Y0093798D01*
X0187295Y0094131D02*
X0187295Y0093464D01*
X0187629Y0093131D01*
X0188630Y0093131D01*
X0187962Y0093131D02*
X0187295Y0092463D01*
X0188630Y0092463D02*
X0188630Y0094465D01*
X0187629Y0094465D01*
X0187295Y0094131D01*
X0175796Y0105963D02*
X0175129Y0105963D01*
X0174795Y0106297D01*
X0173920Y0105963D02*
X0172585Y0107298D01*
X0172585Y0107631D01*
X0172919Y0107965D01*
X0173586Y0107965D01*
X0173920Y0107631D01*
X0174795Y0107631D02*
X0175129Y0107965D01*
X0175796Y0107965D01*
X0176130Y0107631D01*
X0176130Y0106297D01*
X0175796Y0105963D01*
X0173920Y0105963D02*
X0172585Y0105963D01*
X0171710Y0106297D02*
X0170375Y0107631D01*
X0170375Y0106297D01*
X0170709Y0105963D01*
X0171376Y0105963D01*
X0171710Y0106297D01*
X0171710Y0107631D01*
X0171376Y0107965D01*
X0170709Y0107965D01*
X0170375Y0107631D01*
X0170709Y0113963D02*
X0170375Y0114297D01*
X0170375Y0115631D01*
X0170709Y0115965D01*
X0171376Y0115965D01*
X0171710Y0115631D01*
X0171710Y0115298D01*
X0171376Y0114964D01*
X0170375Y0114964D01*
X0170709Y0113963D02*
X0171376Y0113963D01*
X0171710Y0114297D01*
X0172585Y0113963D02*
X0173920Y0113963D01*
X0173253Y0113963D02*
X0173253Y0115965D01*
X0173920Y0115298D01*
X0174795Y0115631D02*
X0175129Y0115965D01*
X0175796Y0115965D01*
X0176130Y0115631D01*
X0176130Y0114297D01*
X0175796Y0113963D01*
X0175129Y0113963D01*
X0174795Y0114297D01*
X0177709Y0121963D02*
X0178376Y0121963D01*
X0178710Y0122297D01*
X0178710Y0122631D01*
X0178376Y0122964D01*
X0177709Y0122964D01*
X0177375Y0122631D01*
X0177375Y0122297D01*
X0177709Y0121963D01*
X0177709Y0122964D02*
X0177375Y0123298D01*
X0177375Y0123631D01*
X0177709Y0123965D01*
X0178376Y0123965D01*
X0178710Y0123631D01*
X0178710Y0123298D01*
X0178376Y0122964D01*
X0179585Y0121963D02*
X0180920Y0121963D01*
X0180253Y0121963D02*
X0180253Y0123965D01*
X0180920Y0123298D01*
X0181795Y0123631D02*
X0182129Y0123965D01*
X0182796Y0123965D01*
X0183130Y0123631D01*
X0183130Y0122297D01*
X0182796Y0121963D01*
X0182129Y0121963D01*
X0181795Y0122297D01*
X0181395Y0128963D02*
X0180061Y0130298D01*
X0180061Y0130631D01*
X0180394Y0130965D01*
X0181061Y0130965D01*
X0181395Y0130631D01*
X0182270Y0130631D02*
X0182270Y0130298D01*
X0182604Y0129964D01*
X0183605Y0129964D01*
X0183605Y0128963D02*
X0183605Y0130965D01*
X0182604Y0130965D01*
X0182270Y0130631D01*
X0182604Y0129964D02*
X0182270Y0129631D01*
X0182270Y0129297D01*
X0182604Y0128963D01*
X0183605Y0128963D01*
X0185148Y0129964D02*
X0185815Y0129964D01*
X0185815Y0128963D02*
X0185815Y0130965D01*
X0184480Y0130965D01*
X0181395Y0128963D02*
X0180061Y0128963D01*
X0177068Y0138863D02*
X0175734Y0138863D01*
X0175400Y0139197D01*
X0175400Y0139864D01*
X0175734Y0140198D01*
X0175400Y0141073D02*
X0175400Y0142408D01*
X0175400Y0141741D02*
X0177402Y0141741D01*
X0176734Y0141073D01*
X0177068Y0140198D02*
X0177402Y0139864D01*
X0177402Y0139197D01*
X0177068Y0138863D01*
X0176734Y0143283D02*
X0177402Y0143950D01*
X0175400Y0143950D01*
X0175400Y0143283D02*
X0175400Y0144618D01*
X0180375Y0146297D02*
X0180709Y0145963D01*
X0181376Y0145963D01*
X0181710Y0146297D01*
X0181376Y0146964D02*
X0180375Y0146964D01*
X0180375Y0146297D02*
X0180375Y0147631D01*
X0180709Y0147965D01*
X0181376Y0147965D01*
X0181710Y0147631D01*
X0181710Y0147298D01*
X0181376Y0146964D01*
X0182585Y0146297D02*
X0182919Y0145963D01*
X0183586Y0145963D01*
X0183920Y0146297D01*
X0183920Y0147631D01*
X0183586Y0147965D01*
X0182919Y0147965D01*
X0182585Y0147631D01*
X0186710Y0155963D02*
X0186710Y0156297D01*
X0185375Y0157631D01*
X0185375Y0157965D01*
X0186710Y0157965D01*
X0187585Y0157631D02*
X0187919Y0157965D01*
X0188586Y0157965D01*
X0188920Y0157631D01*
X0189795Y0157631D02*
X0189795Y0156964D01*
X0190129Y0156631D01*
X0191130Y0156631D01*
X0190462Y0156631D02*
X0189795Y0155963D01*
X0188920Y0155963D02*
X0187585Y0157298D01*
X0187585Y0157631D01*
X0187585Y0155963D02*
X0188920Y0155963D01*
X0189795Y0157631D02*
X0190129Y0157965D01*
X0191130Y0157965D01*
X0191130Y0155963D01*
X0172500Y0170697D02*
X0172166Y0170363D01*
X0171499Y0170363D01*
X0171166Y0170697D01*
X0170290Y0170363D02*
X0168956Y0170363D01*
X0169623Y0170363D02*
X0169623Y0172365D01*
X0170290Y0171698D01*
X0171166Y0172031D02*
X0171499Y0172365D01*
X0172166Y0172365D01*
X0172500Y0172031D01*
X0172500Y0170697D01*
X0168080Y0170697D02*
X0167747Y0170363D01*
X0167079Y0170363D01*
X0166746Y0170697D01*
X0166746Y0171364D01*
X0167079Y0171698D01*
X0167413Y0171698D01*
X0168080Y0171364D01*
X0168080Y0172365D01*
X0166746Y0172365D01*
X0166956Y0184863D02*
X0168290Y0184863D01*
X0166956Y0186198D01*
X0166956Y0186531D01*
X0167289Y0186865D01*
X0167957Y0186865D01*
X0168290Y0186531D01*
X0169166Y0186531D02*
X0169166Y0185864D01*
X0169499Y0185531D01*
X0170500Y0185531D01*
X0169833Y0185531D02*
X0169166Y0184863D01*
X0170500Y0184863D02*
X0170500Y0186865D01*
X0169499Y0186865D01*
X0169166Y0186531D01*
X0166080Y0186198D02*
X0165413Y0186865D01*
X0165413Y0184863D01*
X0166080Y0184863D02*
X0164746Y0184863D01*
X0144000Y0183031D02*
X0144000Y0181697D01*
X0143666Y0181363D01*
X0142999Y0181363D01*
X0142666Y0181697D01*
X0141790Y0181363D02*
X0140456Y0181363D01*
X0141123Y0181363D02*
X0141123Y0183365D01*
X0141790Y0182698D01*
X0142666Y0183031D02*
X0142999Y0183365D01*
X0143666Y0183365D01*
X0144000Y0183031D01*
X0139580Y0183031D02*
X0139247Y0183365D01*
X0138579Y0183365D01*
X0138246Y0183031D01*
X0138246Y0182698D01*
X0139580Y0181363D01*
X0138246Y0181363D01*
X0079500Y0159531D02*
X0079500Y0158197D01*
X0079166Y0157863D01*
X0078499Y0157863D01*
X0078166Y0158197D01*
X0077290Y0157863D02*
X0075956Y0159198D01*
X0075956Y0159531D01*
X0076289Y0159865D01*
X0076957Y0159865D01*
X0077290Y0159531D01*
X0078166Y0159531D02*
X0078499Y0159865D01*
X0079166Y0159865D01*
X0079500Y0159531D01*
X0077290Y0157863D02*
X0075956Y0157863D01*
X0075080Y0158197D02*
X0074747Y0157863D01*
X0074079Y0157863D01*
X0073746Y0158197D01*
X0073746Y0158531D01*
X0074079Y0158864D01*
X0074413Y0158864D01*
X0074079Y0158864D02*
X0073746Y0159198D01*
X0073746Y0159531D01*
X0074079Y0159865D01*
X0074747Y0159865D01*
X0075080Y0159531D01*
X0071750Y0134115D02*
X0071750Y0132447D01*
X0071416Y0132113D01*
X0070749Y0132113D01*
X0070416Y0132447D01*
X0070416Y0134115D01*
X0069540Y0133448D02*
X0068873Y0134115D01*
X0068873Y0132113D01*
X0069540Y0132113D02*
X0068206Y0132113D01*
X0068376Y0122965D02*
X0068710Y0122631D01*
X0068376Y0122965D02*
X0067709Y0122965D01*
X0067375Y0122631D01*
X0067375Y0122298D01*
X0068710Y0120963D01*
X0067375Y0120963D01*
X0069585Y0120963D02*
X0070920Y0120963D01*
X0069585Y0122298D01*
X0069585Y0122631D01*
X0069919Y0122965D01*
X0070586Y0122965D01*
X0070920Y0122631D01*
X0071795Y0122631D02*
X0072129Y0122965D01*
X0072796Y0122965D01*
X0073130Y0122631D01*
X0073130Y0121297D01*
X0072796Y0120963D01*
X0072129Y0120963D01*
X0071795Y0121297D01*
X0109456Y0094365D02*
X0110790Y0094365D01*
X0110790Y0093364D01*
X0110123Y0093698D01*
X0109789Y0093698D01*
X0109456Y0093364D01*
X0109456Y0092697D01*
X0109789Y0092363D01*
X0110457Y0092363D01*
X0110790Y0092697D01*
X0111666Y0092363D02*
X0112333Y0093031D01*
X0111999Y0093031D02*
X0113000Y0093031D01*
X0113000Y0092363D02*
X0113000Y0094365D01*
X0111999Y0094365D01*
X0111666Y0094031D01*
X0111666Y0093364D01*
X0111999Y0093031D01*
X0114061Y0102963D02*
X0115395Y0102963D01*
X0114728Y0102963D02*
X0114728Y0104965D01*
X0115395Y0104298D01*
X0116270Y0104298D02*
X0116604Y0103964D01*
X0117605Y0103964D01*
X0117605Y0102963D02*
X0116604Y0102963D01*
X0116270Y0103297D01*
X0116270Y0103631D01*
X0116604Y0103964D01*
X0116270Y0104298D02*
X0116270Y0104631D01*
X0116604Y0104965D01*
X0117605Y0104965D01*
X0117605Y0102963D01*
X0119148Y0103964D02*
X0119815Y0103964D01*
X0119815Y0102963D02*
X0119815Y0104965D01*
X0118480Y0104965D01*
X0124043Y0094465D02*
X0124043Y0092463D01*
X0124710Y0092463D02*
X0123375Y0092463D01*
X0124710Y0093798D02*
X0124043Y0094465D01*
X0125585Y0094131D02*
X0125919Y0094465D01*
X0126586Y0094465D01*
X0126920Y0094131D01*
X0126920Y0092797D01*
X0126586Y0092463D01*
X0125919Y0092463D01*
X0125585Y0092797D01*
X0139413Y0063365D02*
X0139413Y0061363D01*
X0140080Y0061363D02*
X0138746Y0061363D01*
X0140080Y0062698D02*
X0139413Y0063365D01*
X0140956Y0063031D02*
X0140956Y0062698D01*
X0141289Y0062364D01*
X0140956Y0062031D01*
X0140956Y0061697D01*
X0141289Y0061363D01*
X0141957Y0061363D01*
X0142290Y0061697D01*
X0143166Y0061363D02*
X0143833Y0062031D01*
X0143499Y0062031D02*
X0144500Y0062031D01*
X0144500Y0061363D02*
X0144500Y0063365D01*
X0143499Y0063365D01*
X0143166Y0063031D01*
X0143166Y0062364D01*
X0143499Y0062031D01*
X0142290Y0063031D02*
X0141957Y0063365D01*
X0141289Y0063365D01*
X0140956Y0063031D01*
X0141289Y0062364D02*
X0141623Y0062364D01*
X0124130Y0056465D02*
X0123129Y0056465D01*
X0122795Y0056131D01*
X0122795Y0055464D01*
X0123129Y0055131D01*
X0124130Y0055131D01*
X0123462Y0055131D02*
X0122795Y0054463D01*
X0121920Y0054463D02*
X0120585Y0054463D01*
X0121253Y0054463D02*
X0121253Y0056465D01*
X0121920Y0055798D01*
X0119710Y0055798D02*
X0119710Y0056131D01*
X0119376Y0056465D01*
X0118709Y0056465D01*
X0118375Y0056131D01*
X0118375Y0055798D01*
X0118709Y0055464D01*
X0119376Y0055464D01*
X0119710Y0055798D01*
X0119376Y0055464D02*
X0119710Y0055131D01*
X0119710Y0054797D01*
X0119376Y0054463D01*
X0118709Y0054463D01*
X0118375Y0054797D01*
X0118375Y0055131D01*
X0118709Y0055464D01*
X0115130Y0055131D02*
X0114129Y0055131D01*
X0113795Y0055464D01*
X0113795Y0056131D01*
X0114129Y0056465D01*
X0115130Y0056465D01*
X0115130Y0054463D01*
X0114462Y0055131D02*
X0113795Y0054463D01*
X0112920Y0054463D02*
X0111585Y0054463D01*
X0112253Y0054463D02*
X0112253Y0056465D01*
X0112920Y0055798D01*
X0110710Y0056465D02*
X0109375Y0056465D01*
X0109375Y0056131D01*
X0110710Y0054797D01*
X0110710Y0054463D01*
X0124130Y0054463D02*
X0124130Y0056465D01*
X0168375Y0049131D02*
X0168375Y0047797D01*
X0168709Y0047463D01*
X0169376Y0047463D01*
X0169710Y0047797D01*
X0169376Y0048464D02*
X0168375Y0048464D01*
X0168375Y0049131D02*
X0168709Y0049465D01*
X0169376Y0049465D01*
X0169710Y0049131D01*
X0169710Y0048798D01*
X0169376Y0048464D01*
X0170585Y0047463D02*
X0171920Y0047463D01*
X0171253Y0047463D02*
X0171253Y0049465D01*
X0171920Y0048798D01*
X0172795Y0049131D02*
X0172795Y0048464D01*
X0173129Y0048131D01*
X0174130Y0048131D01*
X0173462Y0048131D02*
X0172795Y0047463D01*
X0174130Y0047463D02*
X0174130Y0049465D01*
X0173129Y0049465D01*
X0172795Y0049131D01*
X0183375Y0048131D02*
X0184710Y0046797D01*
X0184376Y0046463D01*
X0183709Y0046463D01*
X0183375Y0046797D01*
X0183375Y0048131D01*
X0183709Y0048465D01*
X0184376Y0048465D01*
X0184710Y0048131D01*
X0184710Y0046797D01*
X0185585Y0046463D02*
X0186920Y0046463D01*
X0185585Y0047798D01*
X0185585Y0048131D01*
X0185919Y0048465D01*
X0186586Y0048465D01*
X0186920Y0048131D01*
X0187795Y0048131D02*
X0187795Y0047464D01*
X0188129Y0047131D01*
X0189130Y0047131D01*
X0188462Y0047131D02*
X0187795Y0046463D01*
X0189130Y0046463D02*
X0189130Y0048465D01*
X0188129Y0048465D01*
X0187795Y0048131D01*
X0236579Y0183363D02*
X0236246Y0183697D01*
X0236246Y0185031D01*
X0236579Y0185365D01*
X0237247Y0185365D01*
X0237580Y0185031D01*
X0237580Y0184698D01*
X0237247Y0184364D01*
X0236246Y0184364D01*
X0236579Y0183363D02*
X0237247Y0183363D01*
X0237580Y0183697D01*
X0238456Y0183363D02*
X0239790Y0183363D01*
X0238456Y0184698D01*
X0238456Y0185031D01*
X0238789Y0185365D01*
X0239457Y0185365D01*
X0239790Y0185031D01*
X0240666Y0185031D02*
X0240666Y0184364D01*
X0240999Y0184031D01*
X0242000Y0184031D01*
X0241333Y0184031D02*
X0240666Y0183363D01*
X0242000Y0183363D02*
X0242000Y0185365D01*
X0240999Y0185365D01*
X0240666Y0185031D01*
D12*
X0068100Y0148663D02*
X0068100Y0135663D01*
X0042300Y0135663D01*
X0042300Y0148663D01*
X0068100Y0148663D01*
M02*
