G75*
%MOIN*%
%OFA0B0*%
%FSLAX25Y25*%
%IPPOS*%
%LPD*%
%AMOC8*
5,1,8,0,0,1.08239X$1,22.5*
%
%ADD10C,0.00000*%
%ADD11R,0.04331X0.03937*%
%ADD12R,0.03937X0.04331*%
%ADD13C,0.00591*%
%ADD14R,0.09449X0.06693*%
D10*
X0010074Y0008163D02*
X0010074Y0268006D01*
X0119129Y0268006D01*
X0119129Y0244384D01*
X0205743Y0244384D01*
X0205743Y0268006D01*
X0285665Y0268006D01*
X0285665Y0008163D01*
X0010074Y0008163D01*
X0090802Y0044163D02*
X0090804Y0044323D01*
X0090810Y0044482D01*
X0090820Y0044641D01*
X0090834Y0044800D01*
X0090852Y0044959D01*
X0090873Y0045117D01*
X0090899Y0045274D01*
X0090929Y0045431D01*
X0090962Y0045587D01*
X0091000Y0045742D01*
X0091041Y0045896D01*
X0091086Y0046049D01*
X0091135Y0046201D01*
X0091188Y0046351D01*
X0091244Y0046500D01*
X0091304Y0046648D01*
X0091368Y0046794D01*
X0091436Y0046939D01*
X0091507Y0047082D01*
X0091581Y0047223D01*
X0091659Y0047362D01*
X0091741Y0047499D01*
X0091826Y0047634D01*
X0091914Y0047767D01*
X0092005Y0047898D01*
X0092100Y0048026D01*
X0092198Y0048152D01*
X0092299Y0048276D01*
X0092403Y0048396D01*
X0092510Y0048515D01*
X0092620Y0048630D01*
X0092733Y0048743D01*
X0092848Y0048853D01*
X0092967Y0048960D01*
X0093087Y0049064D01*
X0093211Y0049165D01*
X0093337Y0049263D01*
X0093465Y0049358D01*
X0093596Y0049449D01*
X0093729Y0049537D01*
X0093864Y0049622D01*
X0094001Y0049704D01*
X0094140Y0049782D01*
X0094281Y0049856D01*
X0094424Y0049927D01*
X0094569Y0049995D01*
X0094715Y0050059D01*
X0094863Y0050119D01*
X0095012Y0050175D01*
X0095162Y0050228D01*
X0095314Y0050277D01*
X0095467Y0050322D01*
X0095621Y0050363D01*
X0095776Y0050401D01*
X0095932Y0050434D01*
X0096089Y0050464D01*
X0096246Y0050490D01*
X0096404Y0050511D01*
X0096563Y0050529D01*
X0096722Y0050543D01*
X0096881Y0050553D01*
X0097040Y0050559D01*
X0097200Y0050561D01*
X0097360Y0050559D01*
X0097519Y0050553D01*
X0097678Y0050543D01*
X0097837Y0050529D01*
X0097996Y0050511D01*
X0098154Y0050490D01*
X0098311Y0050464D01*
X0098468Y0050434D01*
X0098624Y0050401D01*
X0098779Y0050363D01*
X0098933Y0050322D01*
X0099086Y0050277D01*
X0099238Y0050228D01*
X0099388Y0050175D01*
X0099537Y0050119D01*
X0099685Y0050059D01*
X0099831Y0049995D01*
X0099976Y0049927D01*
X0100119Y0049856D01*
X0100260Y0049782D01*
X0100399Y0049704D01*
X0100536Y0049622D01*
X0100671Y0049537D01*
X0100804Y0049449D01*
X0100935Y0049358D01*
X0101063Y0049263D01*
X0101189Y0049165D01*
X0101313Y0049064D01*
X0101433Y0048960D01*
X0101552Y0048853D01*
X0101667Y0048743D01*
X0101780Y0048630D01*
X0101890Y0048515D01*
X0101997Y0048396D01*
X0102101Y0048276D01*
X0102202Y0048152D01*
X0102300Y0048026D01*
X0102395Y0047898D01*
X0102486Y0047767D01*
X0102574Y0047634D01*
X0102659Y0047499D01*
X0102741Y0047362D01*
X0102819Y0047223D01*
X0102893Y0047082D01*
X0102964Y0046939D01*
X0103032Y0046794D01*
X0103096Y0046648D01*
X0103156Y0046500D01*
X0103212Y0046351D01*
X0103265Y0046201D01*
X0103314Y0046049D01*
X0103359Y0045896D01*
X0103400Y0045742D01*
X0103438Y0045587D01*
X0103471Y0045431D01*
X0103501Y0045274D01*
X0103527Y0045117D01*
X0103548Y0044959D01*
X0103566Y0044800D01*
X0103580Y0044641D01*
X0103590Y0044482D01*
X0103596Y0044323D01*
X0103598Y0044163D01*
X0103596Y0044003D01*
X0103590Y0043844D01*
X0103580Y0043685D01*
X0103566Y0043526D01*
X0103548Y0043367D01*
X0103527Y0043209D01*
X0103501Y0043052D01*
X0103471Y0042895D01*
X0103438Y0042739D01*
X0103400Y0042584D01*
X0103359Y0042430D01*
X0103314Y0042277D01*
X0103265Y0042125D01*
X0103212Y0041975D01*
X0103156Y0041826D01*
X0103096Y0041678D01*
X0103032Y0041532D01*
X0102964Y0041387D01*
X0102893Y0041244D01*
X0102819Y0041103D01*
X0102741Y0040964D01*
X0102659Y0040827D01*
X0102574Y0040692D01*
X0102486Y0040559D01*
X0102395Y0040428D01*
X0102300Y0040300D01*
X0102202Y0040174D01*
X0102101Y0040050D01*
X0101997Y0039930D01*
X0101890Y0039811D01*
X0101780Y0039696D01*
X0101667Y0039583D01*
X0101552Y0039473D01*
X0101433Y0039366D01*
X0101313Y0039262D01*
X0101189Y0039161D01*
X0101063Y0039063D01*
X0100935Y0038968D01*
X0100804Y0038877D01*
X0100671Y0038789D01*
X0100536Y0038704D01*
X0100399Y0038622D01*
X0100260Y0038544D01*
X0100119Y0038470D01*
X0099976Y0038399D01*
X0099831Y0038331D01*
X0099685Y0038267D01*
X0099537Y0038207D01*
X0099388Y0038151D01*
X0099238Y0038098D01*
X0099086Y0038049D01*
X0098933Y0038004D01*
X0098779Y0037963D01*
X0098624Y0037925D01*
X0098468Y0037892D01*
X0098311Y0037862D01*
X0098154Y0037836D01*
X0097996Y0037815D01*
X0097837Y0037797D01*
X0097678Y0037783D01*
X0097519Y0037773D01*
X0097360Y0037767D01*
X0097200Y0037765D01*
X0097040Y0037767D01*
X0096881Y0037773D01*
X0096722Y0037783D01*
X0096563Y0037797D01*
X0096404Y0037815D01*
X0096246Y0037836D01*
X0096089Y0037862D01*
X0095932Y0037892D01*
X0095776Y0037925D01*
X0095621Y0037963D01*
X0095467Y0038004D01*
X0095314Y0038049D01*
X0095162Y0038098D01*
X0095012Y0038151D01*
X0094863Y0038207D01*
X0094715Y0038267D01*
X0094569Y0038331D01*
X0094424Y0038399D01*
X0094281Y0038470D01*
X0094140Y0038544D01*
X0094001Y0038622D01*
X0093864Y0038704D01*
X0093729Y0038789D01*
X0093596Y0038877D01*
X0093465Y0038968D01*
X0093337Y0039063D01*
X0093211Y0039161D01*
X0093087Y0039262D01*
X0092967Y0039366D01*
X0092848Y0039473D01*
X0092733Y0039583D01*
X0092620Y0039696D01*
X0092510Y0039811D01*
X0092403Y0039930D01*
X0092299Y0040050D01*
X0092198Y0040174D01*
X0092100Y0040300D01*
X0092005Y0040428D01*
X0091914Y0040559D01*
X0091826Y0040692D01*
X0091741Y0040827D01*
X0091659Y0040964D01*
X0091581Y0041103D01*
X0091507Y0041244D01*
X0091436Y0041387D01*
X0091368Y0041532D01*
X0091304Y0041678D01*
X0091244Y0041826D01*
X0091188Y0041975D01*
X0091135Y0042125D01*
X0091086Y0042277D01*
X0091041Y0042430D01*
X0091000Y0042584D01*
X0090962Y0042739D01*
X0090929Y0042895D01*
X0090899Y0043052D01*
X0090873Y0043209D01*
X0090852Y0043367D01*
X0090834Y0043526D01*
X0090820Y0043685D01*
X0090810Y0043844D01*
X0090804Y0044003D01*
X0090802Y0044163D01*
X0190802Y0044163D02*
X0190804Y0044323D01*
X0190810Y0044482D01*
X0190820Y0044641D01*
X0190834Y0044800D01*
X0190852Y0044959D01*
X0190873Y0045117D01*
X0190899Y0045274D01*
X0190929Y0045431D01*
X0190962Y0045587D01*
X0191000Y0045742D01*
X0191041Y0045896D01*
X0191086Y0046049D01*
X0191135Y0046201D01*
X0191188Y0046351D01*
X0191244Y0046500D01*
X0191304Y0046648D01*
X0191368Y0046794D01*
X0191436Y0046939D01*
X0191507Y0047082D01*
X0191581Y0047223D01*
X0191659Y0047362D01*
X0191741Y0047499D01*
X0191826Y0047634D01*
X0191914Y0047767D01*
X0192005Y0047898D01*
X0192100Y0048026D01*
X0192198Y0048152D01*
X0192299Y0048276D01*
X0192403Y0048396D01*
X0192510Y0048515D01*
X0192620Y0048630D01*
X0192733Y0048743D01*
X0192848Y0048853D01*
X0192967Y0048960D01*
X0193087Y0049064D01*
X0193211Y0049165D01*
X0193337Y0049263D01*
X0193465Y0049358D01*
X0193596Y0049449D01*
X0193729Y0049537D01*
X0193864Y0049622D01*
X0194001Y0049704D01*
X0194140Y0049782D01*
X0194281Y0049856D01*
X0194424Y0049927D01*
X0194569Y0049995D01*
X0194715Y0050059D01*
X0194863Y0050119D01*
X0195012Y0050175D01*
X0195162Y0050228D01*
X0195314Y0050277D01*
X0195467Y0050322D01*
X0195621Y0050363D01*
X0195776Y0050401D01*
X0195932Y0050434D01*
X0196089Y0050464D01*
X0196246Y0050490D01*
X0196404Y0050511D01*
X0196563Y0050529D01*
X0196722Y0050543D01*
X0196881Y0050553D01*
X0197040Y0050559D01*
X0197200Y0050561D01*
X0197360Y0050559D01*
X0197519Y0050553D01*
X0197678Y0050543D01*
X0197837Y0050529D01*
X0197996Y0050511D01*
X0198154Y0050490D01*
X0198311Y0050464D01*
X0198468Y0050434D01*
X0198624Y0050401D01*
X0198779Y0050363D01*
X0198933Y0050322D01*
X0199086Y0050277D01*
X0199238Y0050228D01*
X0199388Y0050175D01*
X0199537Y0050119D01*
X0199685Y0050059D01*
X0199831Y0049995D01*
X0199976Y0049927D01*
X0200119Y0049856D01*
X0200260Y0049782D01*
X0200399Y0049704D01*
X0200536Y0049622D01*
X0200671Y0049537D01*
X0200804Y0049449D01*
X0200935Y0049358D01*
X0201063Y0049263D01*
X0201189Y0049165D01*
X0201313Y0049064D01*
X0201433Y0048960D01*
X0201552Y0048853D01*
X0201667Y0048743D01*
X0201780Y0048630D01*
X0201890Y0048515D01*
X0201997Y0048396D01*
X0202101Y0048276D01*
X0202202Y0048152D01*
X0202300Y0048026D01*
X0202395Y0047898D01*
X0202486Y0047767D01*
X0202574Y0047634D01*
X0202659Y0047499D01*
X0202741Y0047362D01*
X0202819Y0047223D01*
X0202893Y0047082D01*
X0202964Y0046939D01*
X0203032Y0046794D01*
X0203096Y0046648D01*
X0203156Y0046500D01*
X0203212Y0046351D01*
X0203265Y0046201D01*
X0203314Y0046049D01*
X0203359Y0045896D01*
X0203400Y0045742D01*
X0203438Y0045587D01*
X0203471Y0045431D01*
X0203501Y0045274D01*
X0203527Y0045117D01*
X0203548Y0044959D01*
X0203566Y0044800D01*
X0203580Y0044641D01*
X0203590Y0044482D01*
X0203596Y0044323D01*
X0203598Y0044163D01*
X0203596Y0044003D01*
X0203590Y0043844D01*
X0203580Y0043685D01*
X0203566Y0043526D01*
X0203548Y0043367D01*
X0203527Y0043209D01*
X0203501Y0043052D01*
X0203471Y0042895D01*
X0203438Y0042739D01*
X0203400Y0042584D01*
X0203359Y0042430D01*
X0203314Y0042277D01*
X0203265Y0042125D01*
X0203212Y0041975D01*
X0203156Y0041826D01*
X0203096Y0041678D01*
X0203032Y0041532D01*
X0202964Y0041387D01*
X0202893Y0041244D01*
X0202819Y0041103D01*
X0202741Y0040964D01*
X0202659Y0040827D01*
X0202574Y0040692D01*
X0202486Y0040559D01*
X0202395Y0040428D01*
X0202300Y0040300D01*
X0202202Y0040174D01*
X0202101Y0040050D01*
X0201997Y0039930D01*
X0201890Y0039811D01*
X0201780Y0039696D01*
X0201667Y0039583D01*
X0201552Y0039473D01*
X0201433Y0039366D01*
X0201313Y0039262D01*
X0201189Y0039161D01*
X0201063Y0039063D01*
X0200935Y0038968D01*
X0200804Y0038877D01*
X0200671Y0038789D01*
X0200536Y0038704D01*
X0200399Y0038622D01*
X0200260Y0038544D01*
X0200119Y0038470D01*
X0199976Y0038399D01*
X0199831Y0038331D01*
X0199685Y0038267D01*
X0199537Y0038207D01*
X0199388Y0038151D01*
X0199238Y0038098D01*
X0199086Y0038049D01*
X0198933Y0038004D01*
X0198779Y0037963D01*
X0198624Y0037925D01*
X0198468Y0037892D01*
X0198311Y0037862D01*
X0198154Y0037836D01*
X0197996Y0037815D01*
X0197837Y0037797D01*
X0197678Y0037783D01*
X0197519Y0037773D01*
X0197360Y0037767D01*
X0197200Y0037765D01*
X0197040Y0037767D01*
X0196881Y0037773D01*
X0196722Y0037783D01*
X0196563Y0037797D01*
X0196404Y0037815D01*
X0196246Y0037836D01*
X0196089Y0037862D01*
X0195932Y0037892D01*
X0195776Y0037925D01*
X0195621Y0037963D01*
X0195467Y0038004D01*
X0195314Y0038049D01*
X0195162Y0038098D01*
X0195012Y0038151D01*
X0194863Y0038207D01*
X0194715Y0038267D01*
X0194569Y0038331D01*
X0194424Y0038399D01*
X0194281Y0038470D01*
X0194140Y0038544D01*
X0194001Y0038622D01*
X0193864Y0038704D01*
X0193729Y0038789D01*
X0193596Y0038877D01*
X0193465Y0038968D01*
X0193337Y0039063D01*
X0193211Y0039161D01*
X0193087Y0039262D01*
X0192967Y0039366D01*
X0192848Y0039473D01*
X0192733Y0039583D01*
X0192620Y0039696D01*
X0192510Y0039811D01*
X0192403Y0039930D01*
X0192299Y0040050D01*
X0192198Y0040174D01*
X0192100Y0040300D01*
X0192005Y0040428D01*
X0191914Y0040559D01*
X0191826Y0040692D01*
X0191741Y0040827D01*
X0191659Y0040964D01*
X0191581Y0041103D01*
X0191507Y0041244D01*
X0191436Y0041387D01*
X0191368Y0041532D01*
X0191304Y0041678D01*
X0191244Y0041826D01*
X0191188Y0041975D01*
X0191135Y0042125D01*
X0191086Y0042277D01*
X0191041Y0042430D01*
X0191000Y0042584D01*
X0190962Y0042739D01*
X0190929Y0042895D01*
X0190899Y0043052D01*
X0190873Y0043209D01*
X0190852Y0043367D01*
X0190834Y0043526D01*
X0190820Y0043685D01*
X0190810Y0043844D01*
X0190804Y0044003D01*
X0190802Y0044163D01*
X0235901Y0250163D02*
X0235903Y0250321D01*
X0235909Y0250479D01*
X0235919Y0250637D01*
X0235933Y0250795D01*
X0235951Y0250952D01*
X0235972Y0251109D01*
X0235998Y0251265D01*
X0236028Y0251421D01*
X0236061Y0251576D01*
X0236099Y0251729D01*
X0236140Y0251882D01*
X0236185Y0252034D01*
X0236234Y0252185D01*
X0236287Y0252334D01*
X0236343Y0252482D01*
X0236403Y0252628D01*
X0236467Y0252773D01*
X0236535Y0252916D01*
X0236606Y0253058D01*
X0236680Y0253198D01*
X0236758Y0253335D01*
X0236840Y0253471D01*
X0236924Y0253605D01*
X0237013Y0253736D01*
X0237104Y0253865D01*
X0237199Y0253992D01*
X0237296Y0254117D01*
X0237397Y0254239D01*
X0237501Y0254358D01*
X0237608Y0254475D01*
X0237718Y0254589D01*
X0237831Y0254700D01*
X0237946Y0254809D01*
X0238064Y0254914D01*
X0238185Y0255016D01*
X0238308Y0255116D01*
X0238434Y0255212D01*
X0238562Y0255305D01*
X0238692Y0255395D01*
X0238825Y0255481D01*
X0238960Y0255565D01*
X0239096Y0255644D01*
X0239235Y0255721D01*
X0239376Y0255793D01*
X0239518Y0255863D01*
X0239662Y0255928D01*
X0239808Y0255990D01*
X0239955Y0256048D01*
X0240104Y0256103D01*
X0240254Y0256154D01*
X0240405Y0256201D01*
X0240557Y0256244D01*
X0240710Y0256283D01*
X0240865Y0256319D01*
X0241020Y0256350D01*
X0241176Y0256378D01*
X0241332Y0256402D01*
X0241489Y0256422D01*
X0241647Y0256438D01*
X0241804Y0256450D01*
X0241963Y0256458D01*
X0242121Y0256462D01*
X0242279Y0256462D01*
X0242437Y0256458D01*
X0242596Y0256450D01*
X0242753Y0256438D01*
X0242911Y0256422D01*
X0243068Y0256402D01*
X0243224Y0256378D01*
X0243380Y0256350D01*
X0243535Y0256319D01*
X0243690Y0256283D01*
X0243843Y0256244D01*
X0243995Y0256201D01*
X0244146Y0256154D01*
X0244296Y0256103D01*
X0244445Y0256048D01*
X0244592Y0255990D01*
X0244738Y0255928D01*
X0244882Y0255863D01*
X0245024Y0255793D01*
X0245165Y0255721D01*
X0245304Y0255644D01*
X0245440Y0255565D01*
X0245575Y0255481D01*
X0245708Y0255395D01*
X0245838Y0255305D01*
X0245966Y0255212D01*
X0246092Y0255116D01*
X0246215Y0255016D01*
X0246336Y0254914D01*
X0246454Y0254809D01*
X0246569Y0254700D01*
X0246682Y0254589D01*
X0246792Y0254475D01*
X0246899Y0254358D01*
X0247003Y0254239D01*
X0247104Y0254117D01*
X0247201Y0253992D01*
X0247296Y0253865D01*
X0247387Y0253736D01*
X0247476Y0253605D01*
X0247560Y0253471D01*
X0247642Y0253335D01*
X0247720Y0253198D01*
X0247794Y0253058D01*
X0247865Y0252916D01*
X0247933Y0252773D01*
X0247997Y0252628D01*
X0248057Y0252482D01*
X0248113Y0252334D01*
X0248166Y0252185D01*
X0248215Y0252034D01*
X0248260Y0251882D01*
X0248301Y0251729D01*
X0248339Y0251576D01*
X0248372Y0251421D01*
X0248402Y0251265D01*
X0248428Y0251109D01*
X0248449Y0250952D01*
X0248467Y0250795D01*
X0248481Y0250637D01*
X0248491Y0250479D01*
X0248497Y0250321D01*
X0248499Y0250163D01*
X0248497Y0250005D01*
X0248491Y0249847D01*
X0248481Y0249689D01*
X0248467Y0249531D01*
X0248449Y0249374D01*
X0248428Y0249217D01*
X0248402Y0249061D01*
X0248372Y0248905D01*
X0248339Y0248750D01*
X0248301Y0248597D01*
X0248260Y0248444D01*
X0248215Y0248292D01*
X0248166Y0248141D01*
X0248113Y0247992D01*
X0248057Y0247844D01*
X0247997Y0247698D01*
X0247933Y0247553D01*
X0247865Y0247410D01*
X0247794Y0247268D01*
X0247720Y0247128D01*
X0247642Y0246991D01*
X0247560Y0246855D01*
X0247476Y0246721D01*
X0247387Y0246590D01*
X0247296Y0246461D01*
X0247201Y0246334D01*
X0247104Y0246209D01*
X0247003Y0246087D01*
X0246899Y0245968D01*
X0246792Y0245851D01*
X0246682Y0245737D01*
X0246569Y0245626D01*
X0246454Y0245517D01*
X0246336Y0245412D01*
X0246215Y0245310D01*
X0246092Y0245210D01*
X0245966Y0245114D01*
X0245838Y0245021D01*
X0245708Y0244931D01*
X0245575Y0244845D01*
X0245440Y0244761D01*
X0245304Y0244682D01*
X0245165Y0244605D01*
X0245024Y0244533D01*
X0244882Y0244463D01*
X0244738Y0244398D01*
X0244592Y0244336D01*
X0244445Y0244278D01*
X0244296Y0244223D01*
X0244146Y0244172D01*
X0243995Y0244125D01*
X0243843Y0244082D01*
X0243690Y0244043D01*
X0243535Y0244007D01*
X0243380Y0243976D01*
X0243224Y0243948D01*
X0243068Y0243924D01*
X0242911Y0243904D01*
X0242753Y0243888D01*
X0242596Y0243876D01*
X0242437Y0243868D01*
X0242279Y0243864D01*
X0242121Y0243864D01*
X0241963Y0243868D01*
X0241804Y0243876D01*
X0241647Y0243888D01*
X0241489Y0243904D01*
X0241332Y0243924D01*
X0241176Y0243948D01*
X0241020Y0243976D01*
X0240865Y0244007D01*
X0240710Y0244043D01*
X0240557Y0244082D01*
X0240405Y0244125D01*
X0240254Y0244172D01*
X0240104Y0244223D01*
X0239955Y0244278D01*
X0239808Y0244336D01*
X0239662Y0244398D01*
X0239518Y0244463D01*
X0239376Y0244533D01*
X0239235Y0244605D01*
X0239096Y0244682D01*
X0238960Y0244761D01*
X0238825Y0244845D01*
X0238692Y0244931D01*
X0238562Y0245021D01*
X0238434Y0245114D01*
X0238308Y0245210D01*
X0238185Y0245310D01*
X0238064Y0245412D01*
X0237946Y0245517D01*
X0237831Y0245626D01*
X0237718Y0245737D01*
X0237608Y0245851D01*
X0237501Y0245968D01*
X0237397Y0246087D01*
X0237296Y0246209D01*
X0237199Y0246334D01*
X0237104Y0246461D01*
X0237013Y0246590D01*
X0236924Y0246721D01*
X0236840Y0246855D01*
X0236758Y0246991D01*
X0236680Y0247128D01*
X0236606Y0247268D01*
X0236535Y0247410D01*
X0236467Y0247553D01*
X0236403Y0247698D01*
X0236343Y0247844D01*
X0236287Y0247992D01*
X0236234Y0248141D01*
X0236185Y0248292D01*
X0236140Y0248444D01*
X0236099Y0248597D01*
X0236061Y0248750D01*
X0236028Y0248905D01*
X0235998Y0249061D01*
X0235972Y0249217D01*
X0235951Y0249374D01*
X0235933Y0249531D01*
X0235919Y0249689D01*
X0235909Y0249847D01*
X0235903Y0250005D01*
X0235901Y0250163D01*
X0045901Y0255163D02*
X0045903Y0255321D01*
X0045909Y0255479D01*
X0045919Y0255637D01*
X0045933Y0255795D01*
X0045951Y0255952D01*
X0045972Y0256109D01*
X0045998Y0256265D01*
X0046028Y0256421D01*
X0046061Y0256576D01*
X0046099Y0256729D01*
X0046140Y0256882D01*
X0046185Y0257034D01*
X0046234Y0257185D01*
X0046287Y0257334D01*
X0046343Y0257482D01*
X0046403Y0257628D01*
X0046467Y0257773D01*
X0046535Y0257916D01*
X0046606Y0258058D01*
X0046680Y0258198D01*
X0046758Y0258335D01*
X0046840Y0258471D01*
X0046924Y0258605D01*
X0047013Y0258736D01*
X0047104Y0258865D01*
X0047199Y0258992D01*
X0047296Y0259117D01*
X0047397Y0259239D01*
X0047501Y0259358D01*
X0047608Y0259475D01*
X0047718Y0259589D01*
X0047831Y0259700D01*
X0047946Y0259809D01*
X0048064Y0259914D01*
X0048185Y0260016D01*
X0048308Y0260116D01*
X0048434Y0260212D01*
X0048562Y0260305D01*
X0048692Y0260395D01*
X0048825Y0260481D01*
X0048960Y0260565D01*
X0049096Y0260644D01*
X0049235Y0260721D01*
X0049376Y0260793D01*
X0049518Y0260863D01*
X0049662Y0260928D01*
X0049808Y0260990D01*
X0049955Y0261048D01*
X0050104Y0261103D01*
X0050254Y0261154D01*
X0050405Y0261201D01*
X0050557Y0261244D01*
X0050710Y0261283D01*
X0050865Y0261319D01*
X0051020Y0261350D01*
X0051176Y0261378D01*
X0051332Y0261402D01*
X0051489Y0261422D01*
X0051647Y0261438D01*
X0051804Y0261450D01*
X0051963Y0261458D01*
X0052121Y0261462D01*
X0052279Y0261462D01*
X0052437Y0261458D01*
X0052596Y0261450D01*
X0052753Y0261438D01*
X0052911Y0261422D01*
X0053068Y0261402D01*
X0053224Y0261378D01*
X0053380Y0261350D01*
X0053535Y0261319D01*
X0053690Y0261283D01*
X0053843Y0261244D01*
X0053995Y0261201D01*
X0054146Y0261154D01*
X0054296Y0261103D01*
X0054445Y0261048D01*
X0054592Y0260990D01*
X0054738Y0260928D01*
X0054882Y0260863D01*
X0055024Y0260793D01*
X0055165Y0260721D01*
X0055304Y0260644D01*
X0055440Y0260565D01*
X0055575Y0260481D01*
X0055708Y0260395D01*
X0055838Y0260305D01*
X0055966Y0260212D01*
X0056092Y0260116D01*
X0056215Y0260016D01*
X0056336Y0259914D01*
X0056454Y0259809D01*
X0056569Y0259700D01*
X0056682Y0259589D01*
X0056792Y0259475D01*
X0056899Y0259358D01*
X0057003Y0259239D01*
X0057104Y0259117D01*
X0057201Y0258992D01*
X0057296Y0258865D01*
X0057387Y0258736D01*
X0057476Y0258605D01*
X0057560Y0258471D01*
X0057642Y0258335D01*
X0057720Y0258198D01*
X0057794Y0258058D01*
X0057865Y0257916D01*
X0057933Y0257773D01*
X0057997Y0257628D01*
X0058057Y0257482D01*
X0058113Y0257334D01*
X0058166Y0257185D01*
X0058215Y0257034D01*
X0058260Y0256882D01*
X0058301Y0256729D01*
X0058339Y0256576D01*
X0058372Y0256421D01*
X0058402Y0256265D01*
X0058428Y0256109D01*
X0058449Y0255952D01*
X0058467Y0255795D01*
X0058481Y0255637D01*
X0058491Y0255479D01*
X0058497Y0255321D01*
X0058499Y0255163D01*
X0058497Y0255005D01*
X0058491Y0254847D01*
X0058481Y0254689D01*
X0058467Y0254531D01*
X0058449Y0254374D01*
X0058428Y0254217D01*
X0058402Y0254061D01*
X0058372Y0253905D01*
X0058339Y0253750D01*
X0058301Y0253597D01*
X0058260Y0253444D01*
X0058215Y0253292D01*
X0058166Y0253141D01*
X0058113Y0252992D01*
X0058057Y0252844D01*
X0057997Y0252698D01*
X0057933Y0252553D01*
X0057865Y0252410D01*
X0057794Y0252268D01*
X0057720Y0252128D01*
X0057642Y0251991D01*
X0057560Y0251855D01*
X0057476Y0251721D01*
X0057387Y0251590D01*
X0057296Y0251461D01*
X0057201Y0251334D01*
X0057104Y0251209D01*
X0057003Y0251087D01*
X0056899Y0250968D01*
X0056792Y0250851D01*
X0056682Y0250737D01*
X0056569Y0250626D01*
X0056454Y0250517D01*
X0056336Y0250412D01*
X0056215Y0250310D01*
X0056092Y0250210D01*
X0055966Y0250114D01*
X0055838Y0250021D01*
X0055708Y0249931D01*
X0055575Y0249845D01*
X0055440Y0249761D01*
X0055304Y0249682D01*
X0055165Y0249605D01*
X0055024Y0249533D01*
X0054882Y0249463D01*
X0054738Y0249398D01*
X0054592Y0249336D01*
X0054445Y0249278D01*
X0054296Y0249223D01*
X0054146Y0249172D01*
X0053995Y0249125D01*
X0053843Y0249082D01*
X0053690Y0249043D01*
X0053535Y0249007D01*
X0053380Y0248976D01*
X0053224Y0248948D01*
X0053068Y0248924D01*
X0052911Y0248904D01*
X0052753Y0248888D01*
X0052596Y0248876D01*
X0052437Y0248868D01*
X0052279Y0248864D01*
X0052121Y0248864D01*
X0051963Y0248868D01*
X0051804Y0248876D01*
X0051647Y0248888D01*
X0051489Y0248904D01*
X0051332Y0248924D01*
X0051176Y0248948D01*
X0051020Y0248976D01*
X0050865Y0249007D01*
X0050710Y0249043D01*
X0050557Y0249082D01*
X0050405Y0249125D01*
X0050254Y0249172D01*
X0050104Y0249223D01*
X0049955Y0249278D01*
X0049808Y0249336D01*
X0049662Y0249398D01*
X0049518Y0249463D01*
X0049376Y0249533D01*
X0049235Y0249605D01*
X0049096Y0249682D01*
X0048960Y0249761D01*
X0048825Y0249845D01*
X0048692Y0249931D01*
X0048562Y0250021D01*
X0048434Y0250114D01*
X0048308Y0250210D01*
X0048185Y0250310D01*
X0048064Y0250412D01*
X0047946Y0250517D01*
X0047831Y0250626D01*
X0047718Y0250737D01*
X0047608Y0250851D01*
X0047501Y0250968D01*
X0047397Y0251087D01*
X0047296Y0251209D01*
X0047199Y0251334D01*
X0047104Y0251461D01*
X0047013Y0251590D01*
X0046924Y0251721D01*
X0046840Y0251855D01*
X0046758Y0251991D01*
X0046680Y0252128D01*
X0046606Y0252268D01*
X0046535Y0252410D01*
X0046467Y0252553D01*
X0046403Y0252698D01*
X0046343Y0252844D01*
X0046287Y0252992D01*
X0046234Y0253141D01*
X0046185Y0253292D01*
X0046140Y0253444D01*
X0046099Y0253597D01*
X0046061Y0253750D01*
X0046028Y0253905D01*
X0045998Y0254061D01*
X0045972Y0254217D01*
X0045951Y0254374D01*
X0045933Y0254531D01*
X0045919Y0254689D01*
X0045909Y0254847D01*
X0045903Y0255005D01*
X0045901Y0255163D01*
D11*
X0104200Y0194510D03*
X0104200Y0187817D03*
X0112200Y0187817D03*
X0112200Y0194510D03*
X0120200Y0194510D03*
X0120200Y0187817D03*
X0128200Y0187817D03*
X0128200Y0194510D03*
X0136200Y0194510D03*
X0136200Y0187817D03*
X0152700Y0186817D03*
X0152700Y0193510D03*
X0115546Y0162163D03*
X0108854Y0162163D03*
X0108854Y0154163D03*
X0115546Y0154163D03*
X0102200Y0151817D03*
X0102200Y0158510D03*
X0094200Y0158510D03*
X0094200Y0151817D03*
X0090854Y0141163D03*
X0097546Y0141163D03*
X0097546Y0126163D03*
X0090854Y0126163D03*
X0103200Y0114510D03*
X0103200Y0107817D03*
X0120200Y0130817D03*
X0120200Y0137510D03*
X0198200Y0150317D03*
X0198200Y0157010D03*
D12*
X0188546Y0151663D03*
X0181854Y0151663D03*
X0184546Y0107163D03*
X0177854Y0107163D03*
X0172546Y0107163D03*
X0165854Y0107163D03*
X0163854Y0098163D03*
X0158546Y0094163D03*
X0151854Y0094163D03*
X0152200Y0100817D03*
X0152200Y0107510D03*
X0140546Y0098163D03*
X0133854Y0098163D03*
X0127046Y0106663D03*
X0120354Y0106663D03*
X0121046Y0098663D03*
X0114354Y0098663D03*
X0170546Y0098163D03*
X0127200Y0161817D03*
X0127200Y0168510D03*
D13*
X0134110Y0158238D02*
X0134700Y0158238D01*
X0134110Y0158238D02*
X0134110Y0160010D01*
X0134700Y0160010D01*
X0134700Y0158238D01*
X0134700Y0158828D02*
X0134110Y0158828D01*
X0134110Y0159418D02*
X0134700Y0159418D01*
X0134700Y0160008D02*
X0134110Y0160008D01*
X0136078Y0158238D02*
X0136668Y0158238D01*
X0136078Y0158238D02*
X0136078Y0160010D01*
X0136668Y0160010D01*
X0136668Y0158238D01*
X0136668Y0158828D02*
X0136078Y0158828D01*
X0136078Y0159418D02*
X0136668Y0159418D01*
X0136668Y0160008D02*
X0136078Y0160008D01*
X0138047Y0158238D02*
X0138637Y0158238D01*
X0138047Y0158238D02*
X0138047Y0160010D01*
X0138637Y0160010D01*
X0138637Y0158238D01*
X0138637Y0158828D02*
X0138047Y0158828D01*
X0138047Y0159418D02*
X0138637Y0159418D01*
X0138637Y0160008D02*
X0138047Y0160008D01*
X0140015Y0158238D02*
X0140605Y0158238D01*
X0140015Y0158238D02*
X0140015Y0160010D01*
X0140605Y0160010D01*
X0140605Y0158238D01*
X0140605Y0158828D02*
X0140015Y0158828D01*
X0140015Y0159418D02*
X0140605Y0159418D01*
X0140605Y0160008D02*
X0140015Y0160008D01*
X0141984Y0158238D02*
X0142574Y0158238D01*
X0141984Y0158238D02*
X0141984Y0160010D01*
X0142574Y0160010D01*
X0142574Y0158238D01*
X0142574Y0158828D02*
X0141984Y0158828D01*
X0141984Y0159418D02*
X0142574Y0159418D01*
X0142574Y0160008D02*
X0141984Y0160008D01*
X0143952Y0158238D02*
X0144542Y0158238D01*
X0143952Y0158238D02*
X0143952Y0160010D01*
X0144542Y0160010D01*
X0144542Y0158238D01*
X0144542Y0158828D02*
X0143952Y0158828D01*
X0143952Y0159418D02*
X0144542Y0159418D01*
X0144542Y0160008D02*
X0143952Y0160008D01*
X0145921Y0158238D02*
X0146511Y0158238D01*
X0145921Y0158238D02*
X0145921Y0160010D01*
X0146511Y0160010D01*
X0146511Y0158238D01*
X0146511Y0158828D02*
X0145921Y0158828D01*
X0145921Y0159418D02*
X0146511Y0159418D01*
X0146511Y0160008D02*
X0145921Y0160008D01*
X0147889Y0158238D02*
X0148479Y0158238D01*
X0147889Y0158238D02*
X0147889Y0160010D01*
X0148479Y0160010D01*
X0148479Y0158238D01*
X0148479Y0158828D02*
X0147889Y0158828D01*
X0147889Y0159418D02*
X0148479Y0159418D01*
X0148479Y0160008D02*
X0147889Y0160008D01*
X0149858Y0158238D02*
X0150448Y0158238D01*
X0149858Y0158238D02*
X0149858Y0160010D01*
X0150448Y0160010D01*
X0150448Y0158238D01*
X0150448Y0158828D02*
X0149858Y0158828D01*
X0149858Y0159418D02*
X0150448Y0159418D01*
X0150448Y0160008D02*
X0149858Y0160008D01*
X0151826Y0158238D02*
X0152416Y0158238D01*
X0151826Y0158238D02*
X0151826Y0160010D01*
X0152416Y0160010D01*
X0152416Y0158238D01*
X0152416Y0158828D02*
X0151826Y0158828D01*
X0151826Y0159418D02*
X0152416Y0159418D01*
X0152416Y0160008D02*
X0151826Y0160008D01*
X0153795Y0158238D02*
X0154385Y0158238D01*
X0153795Y0158238D02*
X0153795Y0160010D01*
X0154385Y0160010D01*
X0154385Y0158238D01*
X0154385Y0158828D02*
X0153795Y0158828D01*
X0153795Y0159418D02*
X0154385Y0159418D01*
X0154385Y0160008D02*
X0153795Y0160008D01*
X0155763Y0158238D02*
X0156353Y0158238D01*
X0155763Y0158238D02*
X0155763Y0160010D01*
X0156353Y0160010D01*
X0156353Y0158238D01*
X0156353Y0158828D02*
X0155763Y0158828D01*
X0155763Y0159418D02*
X0156353Y0159418D01*
X0156353Y0160008D02*
X0155763Y0160008D01*
X0157732Y0158238D02*
X0158322Y0158238D01*
X0157732Y0158238D02*
X0157732Y0160010D01*
X0158322Y0160010D01*
X0158322Y0158238D01*
X0158322Y0158828D02*
X0157732Y0158828D01*
X0157732Y0159418D02*
X0158322Y0159418D01*
X0158322Y0160008D02*
X0157732Y0160008D01*
X0159700Y0158238D02*
X0160290Y0158238D01*
X0159700Y0158238D02*
X0159700Y0160010D01*
X0160290Y0160010D01*
X0160290Y0158238D01*
X0160290Y0158828D02*
X0159700Y0158828D01*
X0159700Y0159418D02*
X0160290Y0159418D01*
X0160290Y0160008D02*
X0159700Y0160008D01*
X0161275Y0157254D02*
X0161275Y0156664D01*
X0161275Y0157254D02*
X0163047Y0157254D01*
X0163047Y0156664D01*
X0161275Y0156664D01*
X0161275Y0157254D02*
X0163047Y0157254D01*
X0161275Y0155285D02*
X0161275Y0154695D01*
X0161275Y0155285D02*
X0163047Y0155285D01*
X0163047Y0154695D01*
X0161275Y0154695D01*
X0161275Y0155285D02*
X0163047Y0155285D01*
X0161275Y0153317D02*
X0161275Y0152727D01*
X0161275Y0153317D02*
X0163047Y0153317D01*
X0163047Y0152727D01*
X0161275Y0152727D01*
X0161275Y0153317D02*
X0163047Y0153317D01*
X0161275Y0151348D02*
X0161275Y0150758D01*
X0161275Y0151348D02*
X0163047Y0151348D01*
X0163047Y0150758D01*
X0161275Y0150758D01*
X0161275Y0151348D02*
X0163047Y0151348D01*
X0161275Y0149380D02*
X0161275Y0148790D01*
X0161275Y0149380D02*
X0163047Y0149380D01*
X0163047Y0148790D01*
X0161275Y0148790D01*
X0161275Y0149380D02*
X0163047Y0149380D01*
X0161275Y0147411D02*
X0161275Y0146821D01*
X0161275Y0147411D02*
X0163047Y0147411D01*
X0163047Y0146821D01*
X0161275Y0146821D01*
X0161275Y0147411D02*
X0163047Y0147411D01*
X0161275Y0145443D02*
X0161275Y0144853D01*
X0161275Y0145443D02*
X0163047Y0145443D01*
X0163047Y0144853D01*
X0161275Y0144853D01*
X0161275Y0145443D02*
X0163047Y0145443D01*
X0161275Y0143474D02*
X0161275Y0142884D01*
X0161275Y0143474D02*
X0163047Y0143474D01*
X0163047Y0142884D01*
X0161275Y0142884D01*
X0161275Y0143474D02*
X0163047Y0143474D01*
X0161275Y0141506D02*
X0161275Y0140916D01*
X0161275Y0141506D02*
X0163047Y0141506D01*
X0163047Y0140916D01*
X0161275Y0140916D01*
X0161275Y0141506D02*
X0163047Y0141506D01*
X0161275Y0139537D02*
X0161275Y0138947D01*
X0161275Y0139537D02*
X0163047Y0139537D01*
X0163047Y0138947D01*
X0161275Y0138947D01*
X0161275Y0139537D02*
X0163047Y0139537D01*
X0161275Y0137569D02*
X0161275Y0136979D01*
X0161275Y0137569D02*
X0163047Y0137569D01*
X0163047Y0136979D01*
X0161275Y0136979D01*
X0161275Y0137569D02*
X0163047Y0137569D01*
X0161275Y0135600D02*
X0161275Y0135010D01*
X0161275Y0135600D02*
X0163047Y0135600D01*
X0163047Y0135010D01*
X0161275Y0135010D01*
X0161275Y0135600D02*
X0163047Y0135600D01*
X0161275Y0133632D02*
X0161275Y0133042D01*
X0161275Y0133632D02*
X0163047Y0133632D01*
X0163047Y0133042D01*
X0161275Y0133042D01*
X0161275Y0133632D02*
X0163047Y0133632D01*
X0161275Y0131663D02*
X0161275Y0131073D01*
X0161275Y0131663D02*
X0163047Y0131663D01*
X0163047Y0131073D01*
X0161275Y0131073D01*
X0161275Y0131663D02*
X0163047Y0131663D01*
X0160290Y0130089D02*
X0159700Y0130089D01*
X0160290Y0130089D02*
X0160290Y0128317D01*
X0159700Y0128317D01*
X0159700Y0130089D01*
X0159700Y0128907D02*
X0160290Y0128907D01*
X0160290Y0129497D02*
X0159700Y0129497D01*
X0159700Y0130087D02*
X0160290Y0130087D01*
X0158322Y0130089D02*
X0157732Y0130089D01*
X0158322Y0130089D02*
X0158322Y0128317D01*
X0157732Y0128317D01*
X0157732Y0130089D01*
X0157732Y0128907D02*
X0158322Y0128907D01*
X0158322Y0129497D02*
X0157732Y0129497D01*
X0157732Y0130087D02*
X0158322Y0130087D01*
X0156353Y0130089D02*
X0155763Y0130089D01*
X0156353Y0130089D02*
X0156353Y0128317D01*
X0155763Y0128317D01*
X0155763Y0130089D01*
X0155763Y0128907D02*
X0156353Y0128907D01*
X0156353Y0129497D02*
X0155763Y0129497D01*
X0155763Y0130087D02*
X0156353Y0130087D01*
X0154385Y0130089D02*
X0153795Y0130089D01*
X0154385Y0130089D02*
X0154385Y0128317D01*
X0153795Y0128317D01*
X0153795Y0130089D01*
X0153795Y0128907D02*
X0154385Y0128907D01*
X0154385Y0129497D02*
X0153795Y0129497D01*
X0153795Y0130087D02*
X0154385Y0130087D01*
X0152416Y0130089D02*
X0151826Y0130089D01*
X0152416Y0130089D02*
X0152416Y0128317D01*
X0151826Y0128317D01*
X0151826Y0130089D01*
X0151826Y0128907D02*
X0152416Y0128907D01*
X0152416Y0129497D02*
X0151826Y0129497D01*
X0151826Y0130087D02*
X0152416Y0130087D01*
X0150448Y0130089D02*
X0149858Y0130089D01*
X0150448Y0130089D02*
X0150448Y0128317D01*
X0149858Y0128317D01*
X0149858Y0130089D01*
X0149858Y0128907D02*
X0150448Y0128907D01*
X0150448Y0129497D02*
X0149858Y0129497D01*
X0149858Y0130087D02*
X0150448Y0130087D01*
X0148479Y0130089D02*
X0147889Y0130089D01*
X0148479Y0130089D02*
X0148479Y0128317D01*
X0147889Y0128317D01*
X0147889Y0130089D01*
X0147889Y0128907D02*
X0148479Y0128907D01*
X0148479Y0129497D02*
X0147889Y0129497D01*
X0147889Y0130087D02*
X0148479Y0130087D01*
X0146511Y0130089D02*
X0145921Y0130089D01*
X0146511Y0130089D02*
X0146511Y0128317D01*
X0145921Y0128317D01*
X0145921Y0130089D01*
X0145921Y0128907D02*
X0146511Y0128907D01*
X0146511Y0129497D02*
X0145921Y0129497D01*
X0145921Y0130087D02*
X0146511Y0130087D01*
X0144542Y0130089D02*
X0143952Y0130089D01*
X0144542Y0130089D02*
X0144542Y0128317D01*
X0143952Y0128317D01*
X0143952Y0130089D01*
X0143952Y0128907D02*
X0144542Y0128907D01*
X0144542Y0129497D02*
X0143952Y0129497D01*
X0143952Y0130087D02*
X0144542Y0130087D01*
X0142574Y0130089D02*
X0141984Y0130089D01*
X0142574Y0130089D02*
X0142574Y0128317D01*
X0141984Y0128317D01*
X0141984Y0130089D01*
X0141984Y0128907D02*
X0142574Y0128907D01*
X0142574Y0129497D02*
X0141984Y0129497D01*
X0141984Y0130087D02*
X0142574Y0130087D01*
X0140605Y0130089D02*
X0140015Y0130089D01*
X0140605Y0130089D02*
X0140605Y0128317D01*
X0140015Y0128317D01*
X0140015Y0130089D01*
X0140015Y0128907D02*
X0140605Y0128907D01*
X0140605Y0129497D02*
X0140015Y0129497D01*
X0140015Y0130087D02*
X0140605Y0130087D01*
X0138637Y0130089D02*
X0138047Y0130089D01*
X0138637Y0130089D02*
X0138637Y0128317D01*
X0138047Y0128317D01*
X0138047Y0130089D01*
X0138047Y0128907D02*
X0138637Y0128907D01*
X0138637Y0129497D02*
X0138047Y0129497D01*
X0138047Y0130087D02*
X0138637Y0130087D01*
X0136668Y0130089D02*
X0136078Y0130089D01*
X0136668Y0130089D02*
X0136668Y0128317D01*
X0136078Y0128317D01*
X0136078Y0130089D01*
X0136078Y0128907D02*
X0136668Y0128907D01*
X0136668Y0129497D02*
X0136078Y0129497D01*
X0136078Y0130087D02*
X0136668Y0130087D01*
X0134700Y0130089D02*
X0134110Y0130089D01*
X0134700Y0130089D02*
X0134700Y0128317D01*
X0134110Y0128317D01*
X0134110Y0130089D01*
X0134110Y0128907D02*
X0134700Y0128907D01*
X0134700Y0129497D02*
X0134110Y0129497D01*
X0134110Y0130087D02*
X0134700Y0130087D01*
X0133125Y0131073D02*
X0133125Y0131663D01*
X0133125Y0131073D02*
X0131353Y0131073D01*
X0131353Y0131663D01*
X0133125Y0131663D01*
X0131353Y0131663D01*
X0133125Y0133042D02*
X0133125Y0133632D01*
X0133125Y0133042D02*
X0131353Y0133042D01*
X0131353Y0133632D01*
X0133125Y0133632D01*
X0131353Y0133632D01*
X0133125Y0135010D02*
X0133125Y0135600D01*
X0133125Y0135010D02*
X0131353Y0135010D01*
X0131353Y0135600D01*
X0133125Y0135600D01*
X0131353Y0135600D01*
X0133125Y0136979D02*
X0133125Y0137569D01*
X0133125Y0136979D02*
X0131353Y0136979D01*
X0131353Y0137569D01*
X0133125Y0137569D01*
X0131353Y0137569D01*
X0133125Y0138947D02*
X0133125Y0139537D01*
X0133125Y0138947D02*
X0131353Y0138947D01*
X0131353Y0139537D01*
X0133125Y0139537D01*
X0131353Y0139537D01*
X0133125Y0140916D02*
X0133125Y0141506D01*
X0133125Y0140916D02*
X0131353Y0140916D01*
X0131353Y0141506D01*
X0133125Y0141506D01*
X0131353Y0141506D01*
X0133125Y0142884D02*
X0133125Y0143474D01*
X0133125Y0142884D02*
X0131353Y0142884D01*
X0131353Y0143474D01*
X0133125Y0143474D01*
X0131353Y0143474D01*
X0133125Y0144853D02*
X0133125Y0145443D01*
X0133125Y0144853D02*
X0131353Y0144853D01*
X0131353Y0145443D01*
X0133125Y0145443D01*
X0131353Y0145443D01*
X0133125Y0146821D02*
X0133125Y0147411D01*
X0133125Y0146821D02*
X0131353Y0146821D01*
X0131353Y0147411D01*
X0133125Y0147411D01*
X0131353Y0147411D01*
X0133125Y0148790D02*
X0133125Y0149380D01*
X0133125Y0148790D02*
X0131353Y0148790D01*
X0131353Y0149380D01*
X0133125Y0149380D01*
X0131353Y0149380D01*
X0133125Y0150758D02*
X0133125Y0151348D01*
X0133125Y0150758D02*
X0131353Y0150758D01*
X0131353Y0151348D01*
X0133125Y0151348D01*
X0131353Y0151348D01*
X0133125Y0152727D02*
X0133125Y0153317D01*
X0133125Y0152727D02*
X0131353Y0152727D01*
X0131353Y0153317D01*
X0133125Y0153317D01*
X0131353Y0153317D01*
X0133125Y0154695D02*
X0133125Y0155285D01*
X0133125Y0154695D02*
X0131353Y0154695D01*
X0131353Y0155285D01*
X0133125Y0155285D01*
X0131353Y0155285D01*
X0133125Y0156664D02*
X0133125Y0157254D01*
X0133125Y0156664D02*
X0131353Y0156664D01*
X0131353Y0157254D01*
X0133125Y0157254D01*
X0131353Y0157254D01*
D14*
X0110200Y0141447D03*
X0110200Y0126880D03*
M02*
