G75*
%MOIN*%
%OFA0B0*%
%FSLAX25Y25*%
%IPPOS*%
%LPD*%
%AMOC8*
5,1,8,0,0,1.08239X$1,22.5*
%
%ADD10C,0.00000*%
%ADD11R,0.04331X0.03937*%
%ADD12R,0.03937X0.04331*%
%ADD13R,0.06299X0.07087*%
%ADD14R,0.07087X0.06299*%
%ADD15R,0.06500X0.06500*%
%ADD16C,0.06500*%
%ADD17OC8,0.06000*%
%ADD18C,0.05543*%
%ADD19C,0.05937*%
%ADD20C,0.09626*%
%ADD21R,0.04800X0.08800*%
%ADD22R,0.14173X0.08661*%
%ADD23R,0.05906X0.05118*%
%ADD24C,0.02400*%
%ADD25C,0.01000*%
%ADD26C,0.03562*%
%ADD27C,0.01200*%
%ADD28C,0.01600*%
%ADD29C,0.03169*%
D10*
X0010074Y0008163D02*
X0010074Y0268006D01*
X0119129Y0268006D01*
X0119129Y0244384D01*
X0205743Y0244384D01*
X0205743Y0268006D01*
X0285665Y0268006D01*
X0285665Y0008163D01*
X0010074Y0008163D01*
X0090802Y0044163D02*
X0090804Y0044323D01*
X0090810Y0044482D01*
X0090820Y0044641D01*
X0090834Y0044800D01*
X0090852Y0044959D01*
X0090873Y0045117D01*
X0090899Y0045274D01*
X0090929Y0045431D01*
X0090962Y0045587D01*
X0091000Y0045742D01*
X0091041Y0045896D01*
X0091086Y0046049D01*
X0091135Y0046201D01*
X0091188Y0046351D01*
X0091244Y0046500D01*
X0091304Y0046648D01*
X0091368Y0046794D01*
X0091436Y0046939D01*
X0091507Y0047082D01*
X0091581Y0047223D01*
X0091659Y0047362D01*
X0091741Y0047499D01*
X0091826Y0047634D01*
X0091914Y0047767D01*
X0092005Y0047898D01*
X0092100Y0048026D01*
X0092198Y0048152D01*
X0092299Y0048276D01*
X0092403Y0048396D01*
X0092510Y0048515D01*
X0092620Y0048630D01*
X0092733Y0048743D01*
X0092848Y0048853D01*
X0092967Y0048960D01*
X0093087Y0049064D01*
X0093211Y0049165D01*
X0093337Y0049263D01*
X0093465Y0049358D01*
X0093596Y0049449D01*
X0093729Y0049537D01*
X0093864Y0049622D01*
X0094001Y0049704D01*
X0094140Y0049782D01*
X0094281Y0049856D01*
X0094424Y0049927D01*
X0094569Y0049995D01*
X0094715Y0050059D01*
X0094863Y0050119D01*
X0095012Y0050175D01*
X0095162Y0050228D01*
X0095314Y0050277D01*
X0095467Y0050322D01*
X0095621Y0050363D01*
X0095776Y0050401D01*
X0095932Y0050434D01*
X0096089Y0050464D01*
X0096246Y0050490D01*
X0096404Y0050511D01*
X0096563Y0050529D01*
X0096722Y0050543D01*
X0096881Y0050553D01*
X0097040Y0050559D01*
X0097200Y0050561D01*
X0097360Y0050559D01*
X0097519Y0050553D01*
X0097678Y0050543D01*
X0097837Y0050529D01*
X0097996Y0050511D01*
X0098154Y0050490D01*
X0098311Y0050464D01*
X0098468Y0050434D01*
X0098624Y0050401D01*
X0098779Y0050363D01*
X0098933Y0050322D01*
X0099086Y0050277D01*
X0099238Y0050228D01*
X0099388Y0050175D01*
X0099537Y0050119D01*
X0099685Y0050059D01*
X0099831Y0049995D01*
X0099976Y0049927D01*
X0100119Y0049856D01*
X0100260Y0049782D01*
X0100399Y0049704D01*
X0100536Y0049622D01*
X0100671Y0049537D01*
X0100804Y0049449D01*
X0100935Y0049358D01*
X0101063Y0049263D01*
X0101189Y0049165D01*
X0101313Y0049064D01*
X0101433Y0048960D01*
X0101552Y0048853D01*
X0101667Y0048743D01*
X0101780Y0048630D01*
X0101890Y0048515D01*
X0101997Y0048396D01*
X0102101Y0048276D01*
X0102202Y0048152D01*
X0102300Y0048026D01*
X0102395Y0047898D01*
X0102486Y0047767D01*
X0102574Y0047634D01*
X0102659Y0047499D01*
X0102741Y0047362D01*
X0102819Y0047223D01*
X0102893Y0047082D01*
X0102964Y0046939D01*
X0103032Y0046794D01*
X0103096Y0046648D01*
X0103156Y0046500D01*
X0103212Y0046351D01*
X0103265Y0046201D01*
X0103314Y0046049D01*
X0103359Y0045896D01*
X0103400Y0045742D01*
X0103438Y0045587D01*
X0103471Y0045431D01*
X0103501Y0045274D01*
X0103527Y0045117D01*
X0103548Y0044959D01*
X0103566Y0044800D01*
X0103580Y0044641D01*
X0103590Y0044482D01*
X0103596Y0044323D01*
X0103598Y0044163D01*
X0103596Y0044003D01*
X0103590Y0043844D01*
X0103580Y0043685D01*
X0103566Y0043526D01*
X0103548Y0043367D01*
X0103527Y0043209D01*
X0103501Y0043052D01*
X0103471Y0042895D01*
X0103438Y0042739D01*
X0103400Y0042584D01*
X0103359Y0042430D01*
X0103314Y0042277D01*
X0103265Y0042125D01*
X0103212Y0041975D01*
X0103156Y0041826D01*
X0103096Y0041678D01*
X0103032Y0041532D01*
X0102964Y0041387D01*
X0102893Y0041244D01*
X0102819Y0041103D01*
X0102741Y0040964D01*
X0102659Y0040827D01*
X0102574Y0040692D01*
X0102486Y0040559D01*
X0102395Y0040428D01*
X0102300Y0040300D01*
X0102202Y0040174D01*
X0102101Y0040050D01*
X0101997Y0039930D01*
X0101890Y0039811D01*
X0101780Y0039696D01*
X0101667Y0039583D01*
X0101552Y0039473D01*
X0101433Y0039366D01*
X0101313Y0039262D01*
X0101189Y0039161D01*
X0101063Y0039063D01*
X0100935Y0038968D01*
X0100804Y0038877D01*
X0100671Y0038789D01*
X0100536Y0038704D01*
X0100399Y0038622D01*
X0100260Y0038544D01*
X0100119Y0038470D01*
X0099976Y0038399D01*
X0099831Y0038331D01*
X0099685Y0038267D01*
X0099537Y0038207D01*
X0099388Y0038151D01*
X0099238Y0038098D01*
X0099086Y0038049D01*
X0098933Y0038004D01*
X0098779Y0037963D01*
X0098624Y0037925D01*
X0098468Y0037892D01*
X0098311Y0037862D01*
X0098154Y0037836D01*
X0097996Y0037815D01*
X0097837Y0037797D01*
X0097678Y0037783D01*
X0097519Y0037773D01*
X0097360Y0037767D01*
X0097200Y0037765D01*
X0097040Y0037767D01*
X0096881Y0037773D01*
X0096722Y0037783D01*
X0096563Y0037797D01*
X0096404Y0037815D01*
X0096246Y0037836D01*
X0096089Y0037862D01*
X0095932Y0037892D01*
X0095776Y0037925D01*
X0095621Y0037963D01*
X0095467Y0038004D01*
X0095314Y0038049D01*
X0095162Y0038098D01*
X0095012Y0038151D01*
X0094863Y0038207D01*
X0094715Y0038267D01*
X0094569Y0038331D01*
X0094424Y0038399D01*
X0094281Y0038470D01*
X0094140Y0038544D01*
X0094001Y0038622D01*
X0093864Y0038704D01*
X0093729Y0038789D01*
X0093596Y0038877D01*
X0093465Y0038968D01*
X0093337Y0039063D01*
X0093211Y0039161D01*
X0093087Y0039262D01*
X0092967Y0039366D01*
X0092848Y0039473D01*
X0092733Y0039583D01*
X0092620Y0039696D01*
X0092510Y0039811D01*
X0092403Y0039930D01*
X0092299Y0040050D01*
X0092198Y0040174D01*
X0092100Y0040300D01*
X0092005Y0040428D01*
X0091914Y0040559D01*
X0091826Y0040692D01*
X0091741Y0040827D01*
X0091659Y0040964D01*
X0091581Y0041103D01*
X0091507Y0041244D01*
X0091436Y0041387D01*
X0091368Y0041532D01*
X0091304Y0041678D01*
X0091244Y0041826D01*
X0091188Y0041975D01*
X0091135Y0042125D01*
X0091086Y0042277D01*
X0091041Y0042430D01*
X0091000Y0042584D01*
X0090962Y0042739D01*
X0090929Y0042895D01*
X0090899Y0043052D01*
X0090873Y0043209D01*
X0090852Y0043367D01*
X0090834Y0043526D01*
X0090820Y0043685D01*
X0090810Y0043844D01*
X0090804Y0044003D01*
X0090802Y0044163D01*
X0190802Y0044163D02*
X0190804Y0044323D01*
X0190810Y0044482D01*
X0190820Y0044641D01*
X0190834Y0044800D01*
X0190852Y0044959D01*
X0190873Y0045117D01*
X0190899Y0045274D01*
X0190929Y0045431D01*
X0190962Y0045587D01*
X0191000Y0045742D01*
X0191041Y0045896D01*
X0191086Y0046049D01*
X0191135Y0046201D01*
X0191188Y0046351D01*
X0191244Y0046500D01*
X0191304Y0046648D01*
X0191368Y0046794D01*
X0191436Y0046939D01*
X0191507Y0047082D01*
X0191581Y0047223D01*
X0191659Y0047362D01*
X0191741Y0047499D01*
X0191826Y0047634D01*
X0191914Y0047767D01*
X0192005Y0047898D01*
X0192100Y0048026D01*
X0192198Y0048152D01*
X0192299Y0048276D01*
X0192403Y0048396D01*
X0192510Y0048515D01*
X0192620Y0048630D01*
X0192733Y0048743D01*
X0192848Y0048853D01*
X0192967Y0048960D01*
X0193087Y0049064D01*
X0193211Y0049165D01*
X0193337Y0049263D01*
X0193465Y0049358D01*
X0193596Y0049449D01*
X0193729Y0049537D01*
X0193864Y0049622D01*
X0194001Y0049704D01*
X0194140Y0049782D01*
X0194281Y0049856D01*
X0194424Y0049927D01*
X0194569Y0049995D01*
X0194715Y0050059D01*
X0194863Y0050119D01*
X0195012Y0050175D01*
X0195162Y0050228D01*
X0195314Y0050277D01*
X0195467Y0050322D01*
X0195621Y0050363D01*
X0195776Y0050401D01*
X0195932Y0050434D01*
X0196089Y0050464D01*
X0196246Y0050490D01*
X0196404Y0050511D01*
X0196563Y0050529D01*
X0196722Y0050543D01*
X0196881Y0050553D01*
X0197040Y0050559D01*
X0197200Y0050561D01*
X0197360Y0050559D01*
X0197519Y0050553D01*
X0197678Y0050543D01*
X0197837Y0050529D01*
X0197996Y0050511D01*
X0198154Y0050490D01*
X0198311Y0050464D01*
X0198468Y0050434D01*
X0198624Y0050401D01*
X0198779Y0050363D01*
X0198933Y0050322D01*
X0199086Y0050277D01*
X0199238Y0050228D01*
X0199388Y0050175D01*
X0199537Y0050119D01*
X0199685Y0050059D01*
X0199831Y0049995D01*
X0199976Y0049927D01*
X0200119Y0049856D01*
X0200260Y0049782D01*
X0200399Y0049704D01*
X0200536Y0049622D01*
X0200671Y0049537D01*
X0200804Y0049449D01*
X0200935Y0049358D01*
X0201063Y0049263D01*
X0201189Y0049165D01*
X0201313Y0049064D01*
X0201433Y0048960D01*
X0201552Y0048853D01*
X0201667Y0048743D01*
X0201780Y0048630D01*
X0201890Y0048515D01*
X0201997Y0048396D01*
X0202101Y0048276D01*
X0202202Y0048152D01*
X0202300Y0048026D01*
X0202395Y0047898D01*
X0202486Y0047767D01*
X0202574Y0047634D01*
X0202659Y0047499D01*
X0202741Y0047362D01*
X0202819Y0047223D01*
X0202893Y0047082D01*
X0202964Y0046939D01*
X0203032Y0046794D01*
X0203096Y0046648D01*
X0203156Y0046500D01*
X0203212Y0046351D01*
X0203265Y0046201D01*
X0203314Y0046049D01*
X0203359Y0045896D01*
X0203400Y0045742D01*
X0203438Y0045587D01*
X0203471Y0045431D01*
X0203501Y0045274D01*
X0203527Y0045117D01*
X0203548Y0044959D01*
X0203566Y0044800D01*
X0203580Y0044641D01*
X0203590Y0044482D01*
X0203596Y0044323D01*
X0203598Y0044163D01*
X0203596Y0044003D01*
X0203590Y0043844D01*
X0203580Y0043685D01*
X0203566Y0043526D01*
X0203548Y0043367D01*
X0203527Y0043209D01*
X0203501Y0043052D01*
X0203471Y0042895D01*
X0203438Y0042739D01*
X0203400Y0042584D01*
X0203359Y0042430D01*
X0203314Y0042277D01*
X0203265Y0042125D01*
X0203212Y0041975D01*
X0203156Y0041826D01*
X0203096Y0041678D01*
X0203032Y0041532D01*
X0202964Y0041387D01*
X0202893Y0041244D01*
X0202819Y0041103D01*
X0202741Y0040964D01*
X0202659Y0040827D01*
X0202574Y0040692D01*
X0202486Y0040559D01*
X0202395Y0040428D01*
X0202300Y0040300D01*
X0202202Y0040174D01*
X0202101Y0040050D01*
X0201997Y0039930D01*
X0201890Y0039811D01*
X0201780Y0039696D01*
X0201667Y0039583D01*
X0201552Y0039473D01*
X0201433Y0039366D01*
X0201313Y0039262D01*
X0201189Y0039161D01*
X0201063Y0039063D01*
X0200935Y0038968D01*
X0200804Y0038877D01*
X0200671Y0038789D01*
X0200536Y0038704D01*
X0200399Y0038622D01*
X0200260Y0038544D01*
X0200119Y0038470D01*
X0199976Y0038399D01*
X0199831Y0038331D01*
X0199685Y0038267D01*
X0199537Y0038207D01*
X0199388Y0038151D01*
X0199238Y0038098D01*
X0199086Y0038049D01*
X0198933Y0038004D01*
X0198779Y0037963D01*
X0198624Y0037925D01*
X0198468Y0037892D01*
X0198311Y0037862D01*
X0198154Y0037836D01*
X0197996Y0037815D01*
X0197837Y0037797D01*
X0197678Y0037783D01*
X0197519Y0037773D01*
X0197360Y0037767D01*
X0197200Y0037765D01*
X0197040Y0037767D01*
X0196881Y0037773D01*
X0196722Y0037783D01*
X0196563Y0037797D01*
X0196404Y0037815D01*
X0196246Y0037836D01*
X0196089Y0037862D01*
X0195932Y0037892D01*
X0195776Y0037925D01*
X0195621Y0037963D01*
X0195467Y0038004D01*
X0195314Y0038049D01*
X0195162Y0038098D01*
X0195012Y0038151D01*
X0194863Y0038207D01*
X0194715Y0038267D01*
X0194569Y0038331D01*
X0194424Y0038399D01*
X0194281Y0038470D01*
X0194140Y0038544D01*
X0194001Y0038622D01*
X0193864Y0038704D01*
X0193729Y0038789D01*
X0193596Y0038877D01*
X0193465Y0038968D01*
X0193337Y0039063D01*
X0193211Y0039161D01*
X0193087Y0039262D01*
X0192967Y0039366D01*
X0192848Y0039473D01*
X0192733Y0039583D01*
X0192620Y0039696D01*
X0192510Y0039811D01*
X0192403Y0039930D01*
X0192299Y0040050D01*
X0192198Y0040174D01*
X0192100Y0040300D01*
X0192005Y0040428D01*
X0191914Y0040559D01*
X0191826Y0040692D01*
X0191741Y0040827D01*
X0191659Y0040964D01*
X0191581Y0041103D01*
X0191507Y0041244D01*
X0191436Y0041387D01*
X0191368Y0041532D01*
X0191304Y0041678D01*
X0191244Y0041826D01*
X0191188Y0041975D01*
X0191135Y0042125D01*
X0191086Y0042277D01*
X0191041Y0042430D01*
X0191000Y0042584D01*
X0190962Y0042739D01*
X0190929Y0042895D01*
X0190899Y0043052D01*
X0190873Y0043209D01*
X0190852Y0043367D01*
X0190834Y0043526D01*
X0190820Y0043685D01*
X0190810Y0043844D01*
X0190804Y0044003D01*
X0190802Y0044163D01*
X0235901Y0250163D02*
X0235903Y0250321D01*
X0235909Y0250479D01*
X0235919Y0250637D01*
X0235933Y0250795D01*
X0235951Y0250952D01*
X0235972Y0251109D01*
X0235998Y0251265D01*
X0236028Y0251421D01*
X0236061Y0251576D01*
X0236099Y0251729D01*
X0236140Y0251882D01*
X0236185Y0252034D01*
X0236234Y0252185D01*
X0236287Y0252334D01*
X0236343Y0252482D01*
X0236403Y0252628D01*
X0236467Y0252773D01*
X0236535Y0252916D01*
X0236606Y0253058D01*
X0236680Y0253198D01*
X0236758Y0253335D01*
X0236840Y0253471D01*
X0236924Y0253605D01*
X0237013Y0253736D01*
X0237104Y0253865D01*
X0237199Y0253992D01*
X0237296Y0254117D01*
X0237397Y0254239D01*
X0237501Y0254358D01*
X0237608Y0254475D01*
X0237718Y0254589D01*
X0237831Y0254700D01*
X0237946Y0254809D01*
X0238064Y0254914D01*
X0238185Y0255016D01*
X0238308Y0255116D01*
X0238434Y0255212D01*
X0238562Y0255305D01*
X0238692Y0255395D01*
X0238825Y0255481D01*
X0238960Y0255565D01*
X0239096Y0255644D01*
X0239235Y0255721D01*
X0239376Y0255793D01*
X0239518Y0255863D01*
X0239662Y0255928D01*
X0239808Y0255990D01*
X0239955Y0256048D01*
X0240104Y0256103D01*
X0240254Y0256154D01*
X0240405Y0256201D01*
X0240557Y0256244D01*
X0240710Y0256283D01*
X0240865Y0256319D01*
X0241020Y0256350D01*
X0241176Y0256378D01*
X0241332Y0256402D01*
X0241489Y0256422D01*
X0241647Y0256438D01*
X0241804Y0256450D01*
X0241963Y0256458D01*
X0242121Y0256462D01*
X0242279Y0256462D01*
X0242437Y0256458D01*
X0242596Y0256450D01*
X0242753Y0256438D01*
X0242911Y0256422D01*
X0243068Y0256402D01*
X0243224Y0256378D01*
X0243380Y0256350D01*
X0243535Y0256319D01*
X0243690Y0256283D01*
X0243843Y0256244D01*
X0243995Y0256201D01*
X0244146Y0256154D01*
X0244296Y0256103D01*
X0244445Y0256048D01*
X0244592Y0255990D01*
X0244738Y0255928D01*
X0244882Y0255863D01*
X0245024Y0255793D01*
X0245165Y0255721D01*
X0245304Y0255644D01*
X0245440Y0255565D01*
X0245575Y0255481D01*
X0245708Y0255395D01*
X0245838Y0255305D01*
X0245966Y0255212D01*
X0246092Y0255116D01*
X0246215Y0255016D01*
X0246336Y0254914D01*
X0246454Y0254809D01*
X0246569Y0254700D01*
X0246682Y0254589D01*
X0246792Y0254475D01*
X0246899Y0254358D01*
X0247003Y0254239D01*
X0247104Y0254117D01*
X0247201Y0253992D01*
X0247296Y0253865D01*
X0247387Y0253736D01*
X0247476Y0253605D01*
X0247560Y0253471D01*
X0247642Y0253335D01*
X0247720Y0253198D01*
X0247794Y0253058D01*
X0247865Y0252916D01*
X0247933Y0252773D01*
X0247997Y0252628D01*
X0248057Y0252482D01*
X0248113Y0252334D01*
X0248166Y0252185D01*
X0248215Y0252034D01*
X0248260Y0251882D01*
X0248301Y0251729D01*
X0248339Y0251576D01*
X0248372Y0251421D01*
X0248402Y0251265D01*
X0248428Y0251109D01*
X0248449Y0250952D01*
X0248467Y0250795D01*
X0248481Y0250637D01*
X0248491Y0250479D01*
X0248497Y0250321D01*
X0248499Y0250163D01*
X0248497Y0250005D01*
X0248491Y0249847D01*
X0248481Y0249689D01*
X0248467Y0249531D01*
X0248449Y0249374D01*
X0248428Y0249217D01*
X0248402Y0249061D01*
X0248372Y0248905D01*
X0248339Y0248750D01*
X0248301Y0248597D01*
X0248260Y0248444D01*
X0248215Y0248292D01*
X0248166Y0248141D01*
X0248113Y0247992D01*
X0248057Y0247844D01*
X0247997Y0247698D01*
X0247933Y0247553D01*
X0247865Y0247410D01*
X0247794Y0247268D01*
X0247720Y0247128D01*
X0247642Y0246991D01*
X0247560Y0246855D01*
X0247476Y0246721D01*
X0247387Y0246590D01*
X0247296Y0246461D01*
X0247201Y0246334D01*
X0247104Y0246209D01*
X0247003Y0246087D01*
X0246899Y0245968D01*
X0246792Y0245851D01*
X0246682Y0245737D01*
X0246569Y0245626D01*
X0246454Y0245517D01*
X0246336Y0245412D01*
X0246215Y0245310D01*
X0246092Y0245210D01*
X0245966Y0245114D01*
X0245838Y0245021D01*
X0245708Y0244931D01*
X0245575Y0244845D01*
X0245440Y0244761D01*
X0245304Y0244682D01*
X0245165Y0244605D01*
X0245024Y0244533D01*
X0244882Y0244463D01*
X0244738Y0244398D01*
X0244592Y0244336D01*
X0244445Y0244278D01*
X0244296Y0244223D01*
X0244146Y0244172D01*
X0243995Y0244125D01*
X0243843Y0244082D01*
X0243690Y0244043D01*
X0243535Y0244007D01*
X0243380Y0243976D01*
X0243224Y0243948D01*
X0243068Y0243924D01*
X0242911Y0243904D01*
X0242753Y0243888D01*
X0242596Y0243876D01*
X0242437Y0243868D01*
X0242279Y0243864D01*
X0242121Y0243864D01*
X0241963Y0243868D01*
X0241804Y0243876D01*
X0241647Y0243888D01*
X0241489Y0243904D01*
X0241332Y0243924D01*
X0241176Y0243948D01*
X0241020Y0243976D01*
X0240865Y0244007D01*
X0240710Y0244043D01*
X0240557Y0244082D01*
X0240405Y0244125D01*
X0240254Y0244172D01*
X0240104Y0244223D01*
X0239955Y0244278D01*
X0239808Y0244336D01*
X0239662Y0244398D01*
X0239518Y0244463D01*
X0239376Y0244533D01*
X0239235Y0244605D01*
X0239096Y0244682D01*
X0238960Y0244761D01*
X0238825Y0244845D01*
X0238692Y0244931D01*
X0238562Y0245021D01*
X0238434Y0245114D01*
X0238308Y0245210D01*
X0238185Y0245310D01*
X0238064Y0245412D01*
X0237946Y0245517D01*
X0237831Y0245626D01*
X0237718Y0245737D01*
X0237608Y0245851D01*
X0237501Y0245968D01*
X0237397Y0246087D01*
X0237296Y0246209D01*
X0237199Y0246334D01*
X0237104Y0246461D01*
X0237013Y0246590D01*
X0236924Y0246721D01*
X0236840Y0246855D01*
X0236758Y0246991D01*
X0236680Y0247128D01*
X0236606Y0247268D01*
X0236535Y0247410D01*
X0236467Y0247553D01*
X0236403Y0247698D01*
X0236343Y0247844D01*
X0236287Y0247992D01*
X0236234Y0248141D01*
X0236185Y0248292D01*
X0236140Y0248444D01*
X0236099Y0248597D01*
X0236061Y0248750D01*
X0236028Y0248905D01*
X0235998Y0249061D01*
X0235972Y0249217D01*
X0235951Y0249374D01*
X0235933Y0249531D01*
X0235919Y0249689D01*
X0235909Y0249847D01*
X0235903Y0250005D01*
X0235901Y0250163D01*
X0045901Y0255163D02*
X0045903Y0255321D01*
X0045909Y0255479D01*
X0045919Y0255637D01*
X0045933Y0255795D01*
X0045951Y0255952D01*
X0045972Y0256109D01*
X0045998Y0256265D01*
X0046028Y0256421D01*
X0046061Y0256576D01*
X0046099Y0256729D01*
X0046140Y0256882D01*
X0046185Y0257034D01*
X0046234Y0257185D01*
X0046287Y0257334D01*
X0046343Y0257482D01*
X0046403Y0257628D01*
X0046467Y0257773D01*
X0046535Y0257916D01*
X0046606Y0258058D01*
X0046680Y0258198D01*
X0046758Y0258335D01*
X0046840Y0258471D01*
X0046924Y0258605D01*
X0047013Y0258736D01*
X0047104Y0258865D01*
X0047199Y0258992D01*
X0047296Y0259117D01*
X0047397Y0259239D01*
X0047501Y0259358D01*
X0047608Y0259475D01*
X0047718Y0259589D01*
X0047831Y0259700D01*
X0047946Y0259809D01*
X0048064Y0259914D01*
X0048185Y0260016D01*
X0048308Y0260116D01*
X0048434Y0260212D01*
X0048562Y0260305D01*
X0048692Y0260395D01*
X0048825Y0260481D01*
X0048960Y0260565D01*
X0049096Y0260644D01*
X0049235Y0260721D01*
X0049376Y0260793D01*
X0049518Y0260863D01*
X0049662Y0260928D01*
X0049808Y0260990D01*
X0049955Y0261048D01*
X0050104Y0261103D01*
X0050254Y0261154D01*
X0050405Y0261201D01*
X0050557Y0261244D01*
X0050710Y0261283D01*
X0050865Y0261319D01*
X0051020Y0261350D01*
X0051176Y0261378D01*
X0051332Y0261402D01*
X0051489Y0261422D01*
X0051647Y0261438D01*
X0051804Y0261450D01*
X0051963Y0261458D01*
X0052121Y0261462D01*
X0052279Y0261462D01*
X0052437Y0261458D01*
X0052596Y0261450D01*
X0052753Y0261438D01*
X0052911Y0261422D01*
X0053068Y0261402D01*
X0053224Y0261378D01*
X0053380Y0261350D01*
X0053535Y0261319D01*
X0053690Y0261283D01*
X0053843Y0261244D01*
X0053995Y0261201D01*
X0054146Y0261154D01*
X0054296Y0261103D01*
X0054445Y0261048D01*
X0054592Y0260990D01*
X0054738Y0260928D01*
X0054882Y0260863D01*
X0055024Y0260793D01*
X0055165Y0260721D01*
X0055304Y0260644D01*
X0055440Y0260565D01*
X0055575Y0260481D01*
X0055708Y0260395D01*
X0055838Y0260305D01*
X0055966Y0260212D01*
X0056092Y0260116D01*
X0056215Y0260016D01*
X0056336Y0259914D01*
X0056454Y0259809D01*
X0056569Y0259700D01*
X0056682Y0259589D01*
X0056792Y0259475D01*
X0056899Y0259358D01*
X0057003Y0259239D01*
X0057104Y0259117D01*
X0057201Y0258992D01*
X0057296Y0258865D01*
X0057387Y0258736D01*
X0057476Y0258605D01*
X0057560Y0258471D01*
X0057642Y0258335D01*
X0057720Y0258198D01*
X0057794Y0258058D01*
X0057865Y0257916D01*
X0057933Y0257773D01*
X0057997Y0257628D01*
X0058057Y0257482D01*
X0058113Y0257334D01*
X0058166Y0257185D01*
X0058215Y0257034D01*
X0058260Y0256882D01*
X0058301Y0256729D01*
X0058339Y0256576D01*
X0058372Y0256421D01*
X0058402Y0256265D01*
X0058428Y0256109D01*
X0058449Y0255952D01*
X0058467Y0255795D01*
X0058481Y0255637D01*
X0058491Y0255479D01*
X0058497Y0255321D01*
X0058499Y0255163D01*
X0058497Y0255005D01*
X0058491Y0254847D01*
X0058481Y0254689D01*
X0058467Y0254531D01*
X0058449Y0254374D01*
X0058428Y0254217D01*
X0058402Y0254061D01*
X0058372Y0253905D01*
X0058339Y0253750D01*
X0058301Y0253597D01*
X0058260Y0253444D01*
X0058215Y0253292D01*
X0058166Y0253141D01*
X0058113Y0252992D01*
X0058057Y0252844D01*
X0057997Y0252698D01*
X0057933Y0252553D01*
X0057865Y0252410D01*
X0057794Y0252268D01*
X0057720Y0252128D01*
X0057642Y0251991D01*
X0057560Y0251855D01*
X0057476Y0251721D01*
X0057387Y0251590D01*
X0057296Y0251461D01*
X0057201Y0251334D01*
X0057104Y0251209D01*
X0057003Y0251087D01*
X0056899Y0250968D01*
X0056792Y0250851D01*
X0056682Y0250737D01*
X0056569Y0250626D01*
X0056454Y0250517D01*
X0056336Y0250412D01*
X0056215Y0250310D01*
X0056092Y0250210D01*
X0055966Y0250114D01*
X0055838Y0250021D01*
X0055708Y0249931D01*
X0055575Y0249845D01*
X0055440Y0249761D01*
X0055304Y0249682D01*
X0055165Y0249605D01*
X0055024Y0249533D01*
X0054882Y0249463D01*
X0054738Y0249398D01*
X0054592Y0249336D01*
X0054445Y0249278D01*
X0054296Y0249223D01*
X0054146Y0249172D01*
X0053995Y0249125D01*
X0053843Y0249082D01*
X0053690Y0249043D01*
X0053535Y0249007D01*
X0053380Y0248976D01*
X0053224Y0248948D01*
X0053068Y0248924D01*
X0052911Y0248904D01*
X0052753Y0248888D01*
X0052596Y0248876D01*
X0052437Y0248868D01*
X0052279Y0248864D01*
X0052121Y0248864D01*
X0051963Y0248868D01*
X0051804Y0248876D01*
X0051647Y0248888D01*
X0051489Y0248904D01*
X0051332Y0248924D01*
X0051176Y0248948D01*
X0051020Y0248976D01*
X0050865Y0249007D01*
X0050710Y0249043D01*
X0050557Y0249082D01*
X0050405Y0249125D01*
X0050254Y0249172D01*
X0050104Y0249223D01*
X0049955Y0249278D01*
X0049808Y0249336D01*
X0049662Y0249398D01*
X0049518Y0249463D01*
X0049376Y0249533D01*
X0049235Y0249605D01*
X0049096Y0249682D01*
X0048960Y0249761D01*
X0048825Y0249845D01*
X0048692Y0249931D01*
X0048562Y0250021D01*
X0048434Y0250114D01*
X0048308Y0250210D01*
X0048185Y0250310D01*
X0048064Y0250412D01*
X0047946Y0250517D01*
X0047831Y0250626D01*
X0047718Y0250737D01*
X0047608Y0250851D01*
X0047501Y0250968D01*
X0047397Y0251087D01*
X0047296Y0251209D01*
X0047199Y0251334D01*
X0047104Y0251461D01*
X0047013Y0251590D01*
X0046924Y0251721D01*
X0046840Y0251855D01*
X0046758Y0251991D01*
X0046680Y0252128D01*
X0046606Y0252268D01*
X0046535Y0252410D01*
X0046467Y0252553D01*
X0046403Y0252698D01*
X0046343Y0252844D01*
X0046287Y0252992D01*
X0046234Y0253141D01*
X0046185Y0253292D01*
X0046140Y0253444D01*
X0046099Y0253597D01*
X0046061Y0253750D01*
X0046028Y0253905D01*
X0045998Y0254061D01*
X0045972Y0254217D01*
X0045951Y0254374D01*
X0045933Y0254531D01*
X0045919Y0254689D01*
X0045909Y0254847D01*
X0045903Y0255005D01*
X0045901Y0255163D01*
D11*
X0136854Y0178163D03*
X0143546Y0178163D03*
X0165854Y0167163D03*
X0172546Y0167163D03*
X0168200Y0174817D03*
X0168200Y0181510D03*
X0188200Y0152510D03*
X0188200Y0145817D03*
X0176546Y0130163D03*
X0169854Y0130163D03*
X0166854Y0123163D03*
X0173546Y0123163D03*
X0166546Y0115163D03*
X0159854Y0115163D03*
X0159854Y0107163D03*
X0166546Y0107163D03*
X0166546Y0100163D03*
X0159854Y0100163D03*
X0164854Y0089163D03*
X0171546Y0089163D03*
X0171200Y0044510D03*
X0171200Y0037817D03*
X0180200Y0037817D03*
X0180200Y0044510D03*
X0124546Y0089163D03*
X0117854Y0089163D03*
X0115854Y0108163D03*
X0122546Y0108163D03*
X0123546Y0115163D03*
X0116854Y0115163D03*
X0119546Y0131163D03*
X0112854Y0131163D03*
X0119854Y0139163D03*
X0126546Y0139163D03*
X0116546Y0151163D03*
X0109854Y0151163D03*
X0112200Y0051510D03*
X0112200Y0044817D03*
X0121200Y0044817D03*
X0121200Y0051510D03*
D12*
X0110546Y0089163D03*
X0103854Y0089163D03*
X0129700Y0101817D03*
X0129700Y0108510D03*
X0143200Y0101510D03*
X0143200Y0094817D03*
X0151200Y0094817D03*
X0151200Y0101510D03*
X0179854Y0089163D03*
X0186546Y0089163D03*
X0181200Y0135817D03*
X0181200Y0142510D03*
X0172200Y0142510D03*
X0172200Y0135817D03*
X0110546Y0122163D03*
X0103854Y0122163D03*
X0102854Y0170163D03*
X0109546Y0170163D03*
X0232854Y0180163D03*
X0239546Y0180163D03*
D13*
X0068712Y0116163D03*
X0057688Y0116163D03*
D14*
X0076200Y0142652D03*
X0076200Y0153675D03*
D15*
X0064200Y0106163D03*
D16*
X0054200Y0106163D03*
X0044200Y0106163D03*
D17*
X0032200Y0110163D03*
X0032200Y0100163D03*
X0022200Y0100163D03*
X0022200Y0110163D03*
X0022200Y0120163D03*
X0032200Y0120163D03*
X0032200Y0130163D03*
X0022200Y0130163D03*
X0022200Y0140163D03*
X0032200Y0140163D03*
X0032200Y0150163D03*
X0022200Y0150163D03*
X0022200Y0160163D03*
X0032200Y0160163D03*
X0032200Y0170163D03*
X0022200Y0170163D03*
X0022200Y0180163D03*
X0032200Y0180163D03*
X0032200Y0190163D03*
X0022200Y0190163D03*
X0022200Y0200163D03*
X0032200Y0200163D03*
X0032200Y0210163D03*
X0022200Y0210163D03*
X0022200Y0220163D03*
X0032200Y0220163D03*
X0032200Y0230163D03*
X0022200Y0230163D03*
X0022200Y0240163D03*
X0032200Y0240163D03*
X0032200Y0090163D03*
X0022200Y0090163D03*
X0022200Y0080163D03*
X0032200Y0080163D03*
X0032200Y0070163D03*
X0022200Y0070163D03*
X0262200Y0070163D03*
X0272200Y0070163D03*
X0272200Y0080163D03*
X0262200Y0080163D03*
X0262200Y0090163D03*
X0272200Y0090163D03*
X0272200Y0100163D03*
X0262200Y0100163D03*
X0262200Y0110163D03*
X0272200Y0110163D03*
X0272200Y0120163D03*
X0262200Y0120163D03*
X0262200Y0130163D03*
X0272200Y0130163D03*
X0272200Y0140163D03*
X0262200Y0140163D03*
X0262200Y0150163D03*
X0272200Y0150163D03*
X0272200Y0160163D03*
X0262200Y0160163D03*
X0262200Y0170163D03*
X0272200Y0170163D03*
X0272200Y0180163D03*
X0262200Y0180163D03*
X0262200Y0190163D03*
X0272200Y0190163D03*
X0272200Y0200163D03*
X0262200Y0200163D03*
X0262200Y0210163D03*
X0272200Y0210163D03*
X0272200Y0220163D03*
X0262200Y0220163D03*
X0262200Y0230163D03*
X0272200Y0230163D03*
X0272200Y0240163D03*
X0262200Y0240163D03*
D18*
X0192200Y0079163D03*
X0182200Y0079163D03*
X0172200Y0079163D03*
X0162200Y0079163D03*
X0157200Y0069163D03*
X0167200Y0069163D03*
X0177200Y0069163D03*
X0187200Y0069163D03*
X0137200Y0079163D03*
X0127200Y0079163D03*
X0117200Y0079163D03*
X0107200Y0079163D03*
X0102200Y0069163D03*
X0112200Y0069163D03*
X0122200Y0069163D03*
X0132200Y0069163D03*
D19*
X0149208Y0035148D03*
X0145192Y0028179D03*
X0135192Y0028179D03*
X0159208Y0035148D03*
X0190231Y0028179D03*
X0200231Y0028179D03*
X0104169Y0028179D03*
X0094169Y0028179D03*
D20*
X0086314Y0056171D03*
X0147200Y0084675D03*
X0208086Y0056171D03*
D21*
X0064300Y0129963D03*
X0055200Y0129963D03*
X0046100Y0129963D03*
D22*
X0055200Y0154364D03*
D23*
X0141200Y0056904D03*
X0141200Y0049423D03*
D24*
X0141280Y0049344D02*
X0141280Y0044664D01*
X0144442Y0044664D01*
X0145002Y0044814D01*
X0145504Y0045104D01*
X0145913Y0045513D01*
X0146203Y0046015D01*
X0146353Y0046575D01*
X0146353Y0049344D01*
X0141280Y0049344D01*
X0141280Y0049503D01*
X0146353Y0049503D01*
X0146353Y0052272D01*
X0146203Y0052831D01*
X0145913Y0053333D01*
X0145800Y0053446D01*
X0145953Y0053599D01*
X0145953Y0060208D01*
X0144898Y0061263D01*
X0144200Y0061263D01*
X0144200Y0075760D01*
X0143743Y0076863D01*
X0141772Y0078834D01*
X0141772Y0080073D01*
X0141076Y0081753D01*
X0139790Y0083039D01*
X0138109Y0083735D01*
X0136291Y0083735D01*
X0134610Y0083039D01*
X0133324Y0081753D01*
X0132628Y0080073D01*
X0132628Y0078254D01*
X0133324Y0076574D01*
X0134610Y0075288D01*
X0136291Y0074592D01*
X0137529Y0074592D01*
X0138200Y0073921D01*
X0138200Y0061263D01*
X0137502Y0061263D01*
X0136447Y0060208D01*
X0136447Y0053599D01*
X0136600Y0053446D01*
X0136487Y0053333D01*
X0136197Y0052831D01*
X0136047Y0052272D01*
X0136047Y0049503D01*
X0141120Y0049503D01*
X0141120Y0049344D01*
X0136047Y0049344D01*
X0136047Y0046575D01*
X0136197Y0046015D01*
X0136487Y0045513D01*
X0136896Y0045104D01*
X0137398Y0044814D01*
X0137958Y0044664D01*
X0141120Y0044664D01*
X0141120Y0049344D01*
X0141280Y0049344D01*
X0141280Y0048938D02*
X0141120Y0048938D01*
X0141120Y0046540D02*
X0141280Y0046540D01*
X0146343Y0046540D02*
X0167235Y0046540D01*
X0167235Y0047224D02*
X0167235Y0042523D01*
X0166235Y0043523D01*
X0165559Y0044198D01*
X0164677Y0044563D01*
X0149723Y0044563D01*
X0148841Y0044198D01*
X0147841Y0043198D01*
X0147165Y0042523D01*
X0146800Y0041641D01*
X0146800Y0039312D01*
X0146507Y0039190D01*
X0145165Y0037849D01*
X0144439Y0036096D01*
X0144439Y0034199D01*
X0144958Y0032948D01*
X0144244Y0032948D01*
X0142491Y0032222D01*
X0141150Y0030880D01*
X0140424Y0029128D01*
X0140424Y0027231D01*
X0141150Y0025478D01*
X0142491Y0024137D01*
X0144244Y0023411D01*
X0146141Y0023411D01*
X0147893Y0024137D01*
X0149235Y0025478D01*
X0149961Y0027231D01*
X0149961Y0029128D01*
X0149442Y0030379D01*
X0150156Y0030379D01*
X0151909Y0031105D01*
X0153250Y0032446D01*
X0153976Y0034199D01*
X0153976Y0036096D01*
X0153250Y0037849D01*
X0151909Y0039190D01*
X0151600Y0039318D01*
X0151600Y0039763D01*
X0157891Y0039763D01*
X0156507Y0039190D01*
X0155165Y0037849D01*
X0154439Y0036096D01*
X0154439Y0034199D01*
X0155165Y0032446D01*
X0156507Y0031105D01*
X0158259Y0030379D01*
X0160156Y0030379D01*
X0161909Y0031105D01*
X0163250Y0032446D01*
X0163976Y0034199D01*
X0163976Y0036096D01*
X0163250Y0037849D01*
X0161909Y0039190D01*
X0160525Y0039763D01*
X0163206Y0039763D01*
X0167187Y0035782D01*
X0167235Y0035763D01*
X0167235Y0035103D01*
X0168289Y0034048D01*
X0174111Y0034048D01*
X0175165Y0035103D01*
X0175165Y0039432D01*
X0175400Y0039666D01*
X0175400Y0042660D01*
X0175165Y0042895D01*
X0175165Y0047224D01*
X0174111Y0048278D01*
X0173600Y0048278D01*
X0173600Y0054169D01*
X0174194Y0054763D01*
X0193677Y0054763D01*
X0194559Y0055129D01*
X0195235Y0055804D01*
X0202235Y0062804D01*
X0202600Y0063686D01*
X0202600Y0087641D01*
X0202235Y0088523D01*
X0200235Y0090523D01*
X0199559Y0091198D01*
X0198677Y0091563D01*
X0191994Y0091563D01*
X0192235Y0091804D01*
X0192600Y0092686D01*
X0192600Y0110641D01*
X0192235Y0111523D01*
X0190781Y0112976D01*
X0190781Y0113876D01*
X0190236Y0115192D01*
X0189500Y0115928D01*
X0189500Y0118116D01*
X0188153Y0119463D01*
X0186153Y0121463D01*
X0177912Y0121463D01*
X0177912Y0123163D01*
X0173547Y0123163D01*
X0173547Y0123163D01*
X0177912Y0123163D01*
X0177912Y0125422D01*
X0177762Y0125981D01*
X0177523Y0126395D01*
X0179457Y0126395D01*
X0180500Y0127438D01*
X0186436Y0127251D01*
X0190996Y0122691D01*
X0191727Y0121959D01*
X0192683Y0121563D01*
X0198200Y0121563D01*
X0198200Y0103406D01*
X0196538Y0101744D01*
X0196488Y0101744D01*
X0195171Y0101199D01*
X0194805Y0100833D01*
X0194501Y0100707D01*
X0193657Y0099863D01*
X0193200Y0098760D01*
X0193200Y0097567D01*
X0193657Y0096464D01*
X0194501Y0095620D01*
X0194805Y0095494D01*
X0195171Y0095127D01*
X0196488Y0094582D01*
X0197912Y0094582D01*
X0199229Y0095127D01*
X0200236Y0096135D01*
X0200781Y0097451D01*
X0200781Y0097502D01*
X0203743Y0100464D01*
X0204200Y0101567D01*
X0204200Y0142760D01*
X0203743Y0143863D01*
X0201781Y0145825D01*
X0201781Y0145876D01*
X0201236Y0147192D01*
X0200600Y0147828D01*
X0200600Y0160641D01*
X0200235Y0161523D01*
X0199559Y0162198D01*
X0197559Y0164198D01*
X0196677Y0164563D01*
X0176820Y0164563D01*
X0176912Y0164905D01*
X0176912Y0167163D01*
X0172547Y0167163D01*
X0172547Y0167163D01*
X0176912Y0167163D01*
X0176912Y0169422D01*
X0176762Y0169981D01*
X0176472Y0170483D01*
X0176392Y0170563D01*
X0237123Y0170563D01*
X0237600Y0170086D01*
X0237600Y0072646D01*
X0237996Y0071691D01*
X0240996Y0068691D01*
X0241727Y0067959D01*
X0242683Y0067563D01*
X0258012Y0067563D01*
X0260212Y0065363D01*
X0264188Y0065363D01*
X0267000Y0068175D01*
X0267000Y0072152D01*
X0264188Y0074963D01*
X0260212Y0074963D01*
X0258012Y0072763D01*
X0244277Y0072763D01*
X0242800Y0074240D01*
X0242800Y0087163D01*
X0242996Y0086691D01*
X0245996Y0083691D01*
X0246727Y0082959D01*
X0247683Y0082563D01*
X0257812Y0082563D01*
X0257400Y0082152D01*
X0257400Y0078175D01*
X0260212Y0075363D01*
X0264188Y0075363D01*
X0267000Y0078175D01*
X0267000Y0081686D01*
X0267400Y0081286D01*
X0267400Y0078175D01*
X0270212Y0075363D01*
X0274188Y0075363D01*
X0277000Y0078175D01*
X0277000Y0082152D01*
X0274188Y0084963D01*
X0271077Y0084963D01*
X0270677Y0085363D01*
X0274188Y0085363D01*
X0277000Y0088175D01*
X0277000Y0092152D01*
X0274188Y0094963D01*
X0270212Y0094963D01*
X0267400Y0092152D01*
X0267400Y0088175D01*
X0267879Y0087696D01*
X0267717Y0087763D01*
X0266588Y0087763D01*
X0267000Y0088175D01*
X0267000Y0092152D01*
X0264188Y0094963D01*
X0260212Y0094963D01*
X0257400Y0092152D01*
X0257400Y0088175D01*
X0257812Y0087763D01*
X0249277Y0087763D01*
X0247800Y0089240D01*
X0247800Y0160699D01*
X0248236Y0161135D01*
X0248781Y0162451D01*
X0248781Y0163876D01*
X0248327Y0164972D01*
X0249171Y0164127D01*
X0250488Y0163582D01*
X0251912Y0163582D01*
X0253229Y0164127D01*
X0253664Y0164563D01*
X0259717Y0164563D01*
X0259879Y0164630D01*
X0257400Y0162152D01*
X0257400Y0158175D01*
X0260212Y0155363D01*
X0264188Y0155363D01*
X0267000Y0158175D01*
X0267000Y0162152D01*
X0264188Y0164963D01*
X0260677Y0164963D01*
X0261077Y0165363D01*
X0264188Y0165363D01*
X0267000Y0168175D01*
X0267000Y0172152D01*
X0264188Y0174963D01*
X0260212Y0174963D01*
X0257400Y0172152D01*
X0257400Y0169763D01*
X0253664Y0169763D01*
X0253229Y0170199D01*
X0251912Y0170744D01*
X0250488Y0170744D01*
X0249171Y0170199D01*
X0248164Y0169192D01*
X0247800Y0168313D01*
X0247800Y0174681D01*
X0247404Y0175636D01*
X0246673Y0176368D01*
X0245080Y0177960D01*
X0243315Y0179893D01*
X0243315Y0183074D01*
X0242261Y0184129D01*
X0237932Y0184129D01*
X0237697Y0184363D01*
X0234703Y0184363D01*
X0234468Y0184129D01*
X0230139Y0184129D01*
X0230121Y0184110D01*
X0172165Y0184110D01*
X0172165Y0184224D01*
X0171200Y0185189D01*
X0171200Y0205760D01*
X0170743Y0206863D01*
X0169899Y0207707D01*
X0166899Y0210707D01*
X0165797Y0211163D01*
X0098603Y0211163D01*
X0097501Y0210707D01*
X0096657Y0209863D01*
X0093657Y0206863D01*
X0093200Y0205760D01*
X0093200Y0197163D01*
X0057603Y0197163D01*
X0056501Y0196707D01*
X0055657Y0195863D01*
X0052657Y0192863D01*
X0052200Y0191760D01*
X0052200Y0173463D01*
X0040247Y0173463D01*
X0038900Y0172116D01*
X0038900Y0136211D01*
X0040247Y0134863D01*
X0041900Y0134863D01*
X0041900Y0124818D01*
X0042954Y0123763D01*
X0045357Y0123763D01*
X0051200Y0117921D01*
X0051200Y0110305D01*
X0049919Y0109024D01*
X0049200Y0107289D01*
X0048481Y0109024D01*
X0047061Y0110445D01*
X0045205Y0111213D01*
X0043195Y0111213D01*
X0041339Y0110445D01*
X0039919Y0109024D01*
X0039150Y0107168D01*
X0039150Y0105159D01*
X0039919Y0103303D01*
X0041339Y0101882D01*
X0043195Y0101113D01*
X0045205Y0101113D01*
X0047061Y0101882D01*
X0048481Y0103303D01*
X0049200Y0105038D01*
X0049919Y0103303D01*
X0051339Y0101882D01*
X0053195Y0101113D01*
X0055205Y0101113D01*
X0057061Y0101882D01*
X0058481Y0103303D01*
X0059150Y0104918D01*
X0059150Y0102168D01*
X0060204Y0101113D01*
X0068196Y0101113D01*
X0069250Y0102168D01*
X0069250Y0110159D01*
X0068337Y0111072D01*
X0068337Y0115788D01*
X0069087Y0115788D01*
X0069087Y0110420D01*
X0072151Y0110420D01*
X0072711Y0110570D01*
X0073212Y0110860D01*
X0073622Y0111269D01*
X0073911Y0111771D01*
X0074061Y0112330D01*
X0074061Y0115789D01*
X0069087Y0115789D01*
X0069087Y0116538D01*
X0074061Y0116538D01*
X0074061Y0119996D01*
X0073911Y0120556D01*
X0073622Y0121058D01*
X0073212Y0121467D01*
X0072711Y0121757D01*
X0072151Y0121907D01*
X0069087Y0121907D01*
X0069087Y0116538D01*
X0068337Y0116538D01*
X0068337Y0115789D01*
X0063362Y0115789D01*
X0063362Y0112330D01*
X0063512Y0111771D01*
X0063802Y0111269D01*
X0063858Y0111213D01*
X0061977Y0111213D01*
X0062638Y0111874D01*
X0062638Y0120452D01*
X0061583Y0121507D01*
X0056099Y0121507D01*
X0053843Y0123763D01*
X0058346Y0123763D01*
X0059400Y0124818D01*
X0059400Y0134863D01*
X0059756Y0134863D01*
X0059700Y0134653D01*
X0059700Y0129963D01*
X0059700Y0125274D01*
X0059850Y0124714D01*
X0060140Y0124213D01*
X0060549Y0123803D01*
X0061051Y0123513D01*
X0061610Y0123363D01*
X0064300Y0123363D01*
X0066990Y0123363D01*
X0067549Y0123513D01*
X0068051Y0123803D01*
X0068460Y0124213D01*
X0068750Y0124714D01*
X0068900Y0125274D01*
X0068900Y0129963D01*
X0064300Y0129963D01*
X0064300Y0123363D01*
X0064300Y0129963D01*
X0064300Y0129963D01*
X0064300Y0129963D01*
X0059700Y0129963D01*
X0064300Y0129963D01*
X0064300Y0129963D01*
X0068900Y0129963D01*
X0068900Y0134653D01*
X0068844Y0134863D01*
X0070153Y0134863D01*
X0071500Y0136211D01*
X0071500Y0138113D01*
X0071911Y0137702D01*
X0077473Y0137702D01*
X0079600Y0135575D01*
X0079600Y0110146D01*
X0079996Y0109191D01*
X0080727Y0108459D01*
X0083227Y0105959D01*
X0084183Y0105563D01*
X0092236Y0105563D01*
X0092671Y0105127D01*
X0093988Y0104582D01*
X0095412Y0104582D01*
X0096729Y0105127D01*
X0097164Y0105563D01*
X0102051Y0105563D01*
X0101171Y0105199D01*
X0100164Y0104192D01*
X0099619Y0102876D01*
X0099619Y0101451D01*
X0100164Y0100135D01*
X0101171Y0099127D01*
X0101454Y0099011D01*
X0101454Y0093129D01*
X0101139Y0093129D01*
X0100085Y0092074D01*
X0100085Y0091563D01*
X0096723Y0091563D01*
X0095841Y0091198D01*
X0095165Y0090523D01*
X0093165Y0088523D01*
X0092800Y0087641D01*
X0092800Y0063686D01*
X0093165Y0062804D01*
X0093841Y0062129D01*
X0095841Y0060129D01*
X0096723Y0059763D01*
X0109206Y0059763D01*
X0109800Y0059169D01*
X0109800Y0055278D01*
X0109289Y0055278D01*
X0108235Y0054224D01*
X0108235Y0049895D01*
X0108000Y0049660D01*
X0108000Y0046666D01*
X0108235Y0046432D01*
X0108235Y0042103D01*
X0109289Y0041048D01*
X0109900Y0041048D01*
X0109900Y0025116D01*
X0109247Y0024463D01*
X0107196Y0024463D01*
X0108211Y0025478D01*
X0108937Y0027231D01*
X0108937Y0029128D01*
X0108211Y0030880D01*
X0106870Y0032222D01*
X0105117Y0032948D01*
X0103220Y0032948D01*
X0101467Y0032222D01*
X0100126Y0030880D01*
X0099400Y0029128D01*
X0099400Y0027231D01*
X0100126Y0025478D01*
X0101141Y0024463D01*
X0097196Y0024463D01*
X0098211Y0025478D01*
X0098937Y0027231D01*
X0098937Y0029128D01*
X0098211Y0030880D01*
X0096870Y0032222D01*
X0095117Y0032948D01*
X0093220Y0032948D01*
X0091467Y0032222D01*
X0090126Y0030880D01*
X0089400Y0029128D01*
X0089400Y0027231D01*
X0090126Y0025478D01*
X0091467Y0024137D01*
X0091900Y0023957D01*
X0091900Y0023211D01*
X0093247Y0021863D01*
X0095247Y0019863D01*
X0111153Y0019863D01*
X0112500Y0021211D01*
X0114500Y0023211D01*
X0114500Y0041048D01*
X0115111Y0041048D01*
X0116165Y0042103D01*
X0116165Y0046432D01*
X0116400Y0046666D01*
X0116400Y0049110D01*
X0117000Y0049110D01*
X0117000Y0046666D01*
X0117235Y0046432D01*
X0117235Y0042103D01*
X0118289Y0041048D01*
X0118900Y0041048D01*
X0118900Y0029211D01*
X0122232Y0025879D01*
X0130983Y0025879D01*
X0131150Y0025478D01*
X0132491Y0024137D01*
X0134244Y0023411D01*
X0136141Y0023411D01*
X0137893Y0024137D01*
X0139235Y0025478D01*
X0139961Y0027231D01*
X0139961Y0029128D01*
X0139235Y0030880D01*
X0137893Y0032222D01*
X0136141Y0032948D01*
X0134244Y0032948D01*
X0132491Y0032222D01*
X0131150Y0030880D01*
X0130983Y0030479D01*
X0124137Y0030479D01*
X0123500Y0031116D01*
X0123500Y0041048D01*
X0124111Y0041048D01*
X0125165Y0042103D01*
X0125165Y0046432D01*
X0125400Y0046666D01*
X0125400Y0049660D01*
X0125165Y0049895D01*
X0125165Y0054224D01*
X0124111Y0055278D01*
X0118289Y0055278D01*
X0117235Y0054224D01*
X0117235Y0053910D01*
X0116165Y0053910D01*
X0116165Y0054224D01*
X0115111Y0055278D01*
X0114600Y0055278D01*
X0114600Y0060641D01*
X0114235Y0061523D01*
X0112235Y0063523D01*
X0111559Y0064198D01*
X0110677Y0064563D01*
X0098194Y0064563D01*
X0097600Y0065157D01*
X0097600Y0086169D01*
X0098194Y0086763D01*
X0100085Y0086763D01*
X0100085Y0086252D01*
X0101139Y0085198D01*
X0106568Y0085198D01*
X0107200Y0085830D01*
X0107832Y0085198D01*
X0113261Y0085198D01*
X0114200Y0086137D01*
X0114800Y0085537D01*
X0114800Y0083118D01*
X0114610Y0083039D01*
X0113324Y0081753D01*
X0112628Y0080073D01*
X0112628Y0078254D01*
X0113324Y0076574D01*
X0114610Y0075288D01*
X0114800Y0075209D01*
X0114800Y0073686D01*
X0115165Y0072804D01*
X0117707Y0070262D01*
X0117628Y0070073D01*
X0117628Y0068254D01*
X0118324Y0066574D01*
X0119610Y0065288D01*
X0121291Y0064592D01*
X0123109Y0064592D01*
X0124790Y0065288D01*
X0126076Y0066574D01*
X0126772Y0068254D01*
X0126772Y0070073D01*
X0126076Y0071753D01*
X0124790Y0073039D01*
X0123109Y0073735D01*
X0121291Y0073735D01*
X0121101Y0073656D01*
X0119600Y0075157D01*
X0119600Y0075209D01*
X0119790Y0075288D01*
X0121076Y0076574D01*
X0121772Y0078254D01*
X0121772Y0080073D01*
X0121076Y0081753D01*
X0119790Y0083039D01*
X0119600Y0083118D01*
X0119600Y0085066D01*
X0119703Y0084963D01*
X0122697Y0084963D01*
X0122729Y0084995D01*
X0124546Y0084995D01*
X0124546Y0089163D01*
X0124547Y0089163D01*
X0124547Y0089163D01*
X0128912Y0089163D01*
X0128912Y0086905D01*
X0128762Y0086346D01*
X0128472Y0085844D01*
X0128063Y0085434D01*
X0127561Y0085145D01*
X0127001Y0084995D01*
X0124547Y0084995D01*
X0124547Y0089163D01*
X0128912Y0089163D01*
X0128912Y0091422D01*
X0128762Y0091981D01*
X0128472Y0092483D01*
X0128063Y0092892D01*
X0127561Y0093182D01*
X0127001Y0093332D01*
X0124547Y0093332D01*
X0124547Y0089164D01*
X0124546Y0089164D01*
X0124546Y0093332D01*
X0122729Y0093332D01*
X0122697Y0093363D01*
X0119703Y0093363D01*
X0119271Y0092932D01*
X0114943Y0092932D01*
X0114200Y0092189D01*
X0113261Y0093129D01*
X0108932Y0093129D01*
X0108697Y0093363D01*
X0106254Y0093363D01*
X0106254Y0099863D01*
X0121153Y0099863D01*
X0122500Y0101211D01*
X0124846Y0103557D01*
X0124846Y0104395D01*
X0125457Y0104395D01*
X0125604Y0104541D01*
X0125531Y0104272D01*
X0125531Y0101817D01*
X0129700Y0101817D01*
X0129700Y0101817D01*
X0125531Y0101817D01*
X0125531Y0099362D01*
X0125681Y0098802D01*
X0125971Y0098301D01*
X0126381Y0097891D01*
X0126882Y0097602D01*
X0127442Y0097452D01*
X0129700Y0097452D01*
X0131958Y0097452D01*
X0132518Y0097602D01*
X0133019Y0097891D01*
X0133429Y0098301D01*
X0133719Y0098802D01*
X0133868Y0099362D01*
X0133868Y0101430D01*
X0134171Y0101127D01*
X0135488Y0100582D01*
X0136912Y0100582D01*
X0138229Y0101127D01*
X0139236Y0102135D01*
X0139431Y0102607D01*
X0139431Y0098599D01*
X0139584Y0098446D01*
X0139471Y0098333D01*
X0139181Y0097831D01*
X0139031Y0097272D01*
X0139031Y0094817D01*
X0143200Y0094817D01*
X0151200Y0094817D01*
X0155368Y0094817D01*
X0155368Y0097272D01*
X0155219Y0097831D01*
X0154929Y0098333D01*
X0154816Y0098446D01*
X0154968Y0098599D01*
X0154968Y0104421D01*
X0154526Y0104863D01*
X0155888Y0104863D01*
X0155888Y0104449D01*
X0156674Y0103663D01*
X0155888Y0102877D01*
X0155888Y0097449D01*
X0156943Y0096395D01*
X0162764Y0096395D01*
X0163200Y0096830D01*
X0163636Y0096395D01*
X0169457Y0096395D01*
X0170512Y0097449D01*
X0170512Y0097763D01*
X0178706Y0097763D01*
X0179190Y0097279D01*
X0179664Y0096135D01*
X0180671Y0095127D01*
X0181988Y0094582D01*
X0183412Y0094582D01*
X0184729Y0095127D01*
X0185736Y0096135D01*
X0186281Y0097451D01*
X0186281Y0098876D01*
X0185736Y0100192D01*
X0184729Y0101199D01*
X0183412Y0101744D01*
X0181988Y0101744D01*
X0181652Y0101605D01*
X0181059Y0102198D01*
X0180177Y0102563D01*
X0170512Y0102563D01*
X0170512Y0102877D01*
X0169994Y0103395D01*
X0170063Y0103434D01*
X0170472Y0103844D01*
X0170762Y0104346D01*
X0170912Y0104905D01*
X0170912Y0107163D01*
X0166547Y0107163D01*
X0166547Y0107163D01*
X0170912Y0107163D01*
X0170912Y0109422D01*
X0170762Y0109981D01*
X0170472Y0110483D01*
X0170063Y0110892D01*
X0169593Y0111163D01*
X0170063Y0111434D01*
X0170472Y0111844D01*
X0170762Y0112346D01*
X0170912Y0112905D01*
X0170912Y0115163D01*
X0166547Y0115163D01*
X0166547Y0115163D01*
X0166547Y0107164D01*
X0166546Y0107164D01*
X0166546Y0111332D01*
X0166546Y0115163D01*
X0166547Y0115163D01*
X0170912Y0115163D01*
X0170912Y0116863D01*
X0184247Y0116863D01*
X0184900Y0116211D01*
X0184900Y0115928D01*
X0184164Y0115192D01*
X0183619Y0113876D01*
X0183619Y0112451D01*
X0184164Y0111135D01*
X0185171Y0110127D01*
X0186488Y0109582D01*
X0187387Y0109582D01*
X0187800Y0109169D01*
X0187800Y0094157D01*
X0186771Y0093129D01*
X0184932Y0093129D01*
X0184697Y0093363D01*
X0181703Y0093363D01*
X0181468Y0093129D01*
X0177139Y0093129D01*
X0176085Y0092074D01*
X0176085Y0091563D01*
X0175512Y0091563D01*
X0175512Y0091877D01*
X0174457Y0092932D01*
X0170129Y0092932D01*
X0169697Y0093363D01*
X0166703Y0093363D01*
X0166671Y0093332D01*
X0164854Y0093332D01*
X0164854Y0089164D01*
X0164853Y0089164D01*
X0164853Y0093332D01*
X0162399Y0093332D01*
X0161839Y0093182D01*
X0161337Y0092892D01*
X0160928Y0092483D01*
X0160638Y0091981D01*
X0160488Y0091422D01*
X0160488Y0089163D01*
X0160488Y0086905D01*
X0160638Y0086346D01*
X0160928Y0085844D01*
X0161337Y0085434D01*
X0161839Y0085145D01*
X0162399Y0084995D01*
X0164853Y0084995D01*
X0164853Y0089163D01*
X0160488Y0089163D01*
X0164853Y0089163D01*
X0164853Y0089163D01*
X0164854Y0089163D01*
X0164854Y0084995D01*
X0166671Y0084995D01*
X0166703Y0084963D01*
X0169697Y0084963D01*
X0169800Y0085066D01*
X0169800Y0083118D01*
X0169610Y0083039D01*
X0168324Y0081753D01*
X0167628Y0080073D01*
X0167628Y0078254D01*
X0168324Y0076574D01*
X0169610Y0075288D01*
X0169800Y0075209D01*
X0169800Y0073686D01*
X0170165Y0072804D01*
X0172707Y0070262D01*
X0172628Y0070073D01*
X0172628Y0068254D01*
X0173324Y0066574D01*
X0174610Y0065288D01*
X0176291Y0064592D01*
X0178109Y0064592D01*
X0179790Y0065288D01*
X0181076Y0066574D01*
X0181772Y0068254D01*
X0181772Y0070073D01*
X0181076Y0071753D01*
X0179790Y0073039D01*
X0178109Y0073735D01*
X0176291Y0073735D01*
X0176101Y0073656D01*
X0174600Y0075157D01*
X0174600Y0075209D01*
X0174790Y0075288D01*
X0176076Y0076574D01*
X0176772Y0078254D01*
X0176772Y0080073D01*
X0176076Y0081753D01*
X0174790Y0083039D01*
X0174600Y0083118D01*
X0174600Y0085537D01*
X0175512Y0086449D01*
X0175512Y0086763D01*
X0176085Y0086763D01*
X0176085Y0086252D01*
X0177139Y0085198D01*
X0181468Y0085198D01*
X0181703Y0084963D01*
X0184697Y0084963D01*
X0184932Y0085198D01*
X0189261Y0085198D01*
X0190315Y0086252D01*
X0190315Y0086763D01*
X0197206Y0086763D01*
X0197800Y0086169D01*
X0197800Y0065157D01*
X0192206Y0059563D01*
X0172723Y0059563D01*
X0171841Y0059198D01*
X0169841Y0057198D01*
X0169165Y0056523D01*
X0168800Y0055641D01*
X0168800Y0048278D01*
X0168289Y0048278D01*
X0167235Y0047224D01*
X0168800Y0048938D02*
X0146353Y0048938D01*
X0146353Y0051337D02*
X0168800Y0051337D01*
X0168800Y0053735D02*
X0145953Y0053735D01*
X0145953Y0056134D02*
X0169004Y0056134D01*
X0171175Y0058532D02*
X0145953Y0058532D01*
X0145230Y0060931D02*
X0193573Y0060931D01*
X0195972Y0063329D02*
X0144200Y0063329D01*
X0144200Y0065728D02*
X0154170Y0065728D01*
X0154610Y0065288D02*
X0156291Y0064592D01*
X0158109Y0064592D01*
X0159790Y0065288D01*
X0161076Y0066574D01*
X0161772Y0068254D01*
X0161772Y0070073D01*
X0161076Y0071753D01*
X0159790Y0073039D01*
X0158109Y0073735D01*
X0156291Y0073735D01*
X0154610Y0073039D01*
X0153324Y0071753D01*
X0152628Y0070073D01*
X0152628Y0068254D01*
X0153324Y0066574D01*
X0154610Y0065288D01*
X0152681Y0068126D02*
X0144200Y0068126D01*
X0144200Y0070525D02*
X0152816Y0070525D01*
X0154495Y0072923D02*
X0144200Y0072923D01*
X0144200Y0075322D02*
X0159576Y0075322D01*
X0159610Y0075288D02*
X0161291Y0074592D01*
X0163109Y0074592D01*
X0164790Y0075288D01*
X0166076Y0076574D01*
X0166772Y0078254D01*
X0166772Y0080073D01*
X0166076Y0081753D01*
X0164790Y0083039D01*
X0163109Y0083735D01*
X0161291Y0083735D01*
X0159610Y0083039D01*
X0158324Y0081753D01*
X0157628Y0080073D01*
X0157628Y0078254D01*
X0158324Y0076574D01*
X0159610Y0075288D01*
X0159905Y0072923D02*
X0164495Y0072923D01*
X0164610Y0073039D02*
X0163324Y0071753D01*
X0162628Y0070073D01*
X0162628Y0068254D01*
X0163324Y0066574D01*
X0164610Y0065288D01*
X0166291Y0064592D01*
X0168109Y0064592D01*
X0169790Y0065288D01*
X0171076Y0066574D01*
X0171772Y0068254D01*
X0171772Y0070073D01*
X0171076Y0071753D01*
X0169790Y0073039D01*
X0168109Y0073735D01*
X0166291Y0073735D01*
X0164610Y0073039D01*
X0164824Y0075322D02*
X0169576Y0075322D01*
X0169905Y0072923D02*
X0170116Y0072923D01*
X0171584Y0070525D02*
X0172445Y0070525D01*
X0172681Y0068126D02*
X0171719Y0068126D01*
X0170230Y0065728D02*
X0174170Y0065728D01*
X0180230Y0065728D02*
X0184170Y0065728D01*
X0184610Y0065288D02*
X0186291Y0064592D01*
X0188109Y0064592D01*
X0189790Y0065288D01*
X0191076Y0066574D01*
X0191772Y0068254D01*
X0191772Y0070073D01*
X0191076Y0071753D01*
X0189790Y0073039D01*
X0188109Y0073735D01*
X0186291Y0073735D01*
X0184610Y0073039D01*
X0183324Y0071753D01*
X0182628Y0070073D01*
X0182628Y0068254D01*
X0183324Y0066574D01*
X0184610Y0065288D01*
X0182681Y0068126D02*
X0181719Y0068126D01*
X0181584Y0070525D02*
X0182816Y0070525D01*
X0184495Y0072923D02*
X0179905Y0072923D01*
X0181291Y0074592D02*
X0183109Y0074592D01*
X0184790Y0075288D01*
X0186076Y0076574D01*
X0186772Y0078254D01*
X0186772Y0080073D01*
X0186076Y0081753D01*
X0184790Y0083039D01*
X0183109Y0083735D01*
X0181291Y0083735D01*
X0179610Y0083039D01*
X0178324Y0081753D01*
X0177628Y0080073D01*
X0177628Y0078254D01*
X0178324Y0076574D01*
X0179610Y0075288D01*
X0181291Y0074592D01*
X0179576Y0075322D02*
X0174824Y0075322D01*
X0176551Y0077720D02*
X0177849Y0077720D01*
X0177647Y0080119D02*
X0176753Y0080119D01*
X0175311Y0082517D02*
X0179089Y0082517D01*
X0174600Y0084916D02*
X0197800Y0084916D01*
X0197800Y0082517D02*
X0195311Y0082517D01*
X0194790Y0083039D02*
X0193109Y0083735D01*
X0191291Y0083735D01*
X0189610Y0083039D01*
X0188324Y0081753D01*
X0187628Y0080073D01*
X0187628Y0078254D01*
X0188324Y0076574D01*
X0189610Y0075288D01*
X0191291Y0074592D01*
X0193109Y0074592D01*
X0194790Y0075288D01*
X0196076Y0076574D01*
X0196772Y0078254D01*
X0196772Y0080073D01*
X0196076Y0081753D01*
X0194790Y0083039D01*
X0196753Y0080119D02*
X0197800Y0080119D01*
X0197800Y0077720D02*
X0196551Y0077720D01*
X0197800Y0075322D02*
X0194824Y0075322D01*
X0197800Y0072923D02*
X0189905Y0072923D01*
X0189576Y0075322D02*
X0184824Y0075322D01*
X0186551Y0077720D02*
X0187849Y0077720D01*
X0187647Y0080119D02*
X0186753Y0080119D01*
X0185311Y0082517D02*
X0189089Y0082517D01*
X0192362Y0092111D02*
X0237600Y0092111D01*
X0237600Y0089713D02*
X0201045Y0089713D01*
X0202600Y0087314D02*
X0237600Y0087314D01*
X0237600Y0084916D02*
X0202600Y0084916D01*
X0202600Y0082517D02*
X0237600Y0082517D01*
X0237600Y0080119D02*
X0202600Y0080119D01*
X0202600Y0077720D02*
X0237600Y0077720D01*
X0237600Y0075322D02*
X0202600Y0075322D01*
X0202600Y0072923D02*
X0237600Y0072923D01*
X0239162Y0070525D02*
X0202600Y0070525D01*
X0202600Y0068126D02*
X0241560Y0068126D01*
X0244117Y0072923D02*
X0258172Y0072923D01*
X0257855Y0077720D02*
X0242800Y0077720D01*
X0242800Y0075322D02*
X0283465Y0075322D01*
X0283465Y0077720D02*
X0276545Y0077720D01*
X0277000Y0080119D02*
X0283465Y0080119D01*
X0283465Y0082517D02*
X0276634Y0082517D01*
X0274236Y0084916D02*
X0283465Y0084916D01*
X0283465Y0087314D02*
X0276139Y0087314D01*
X0277000Y0089713D02*
X0283465Y0089713D01*
X0283465Y0092111D02*
X0277000Y0092111D01*
X0274642Y0094510D02*
X0283465Y0094510D01*
X0283465Y0096908D02*
X0275733Y0096908D01*
X0277000Y0098175D02*
X0274188Y0095363D01*
X0270212Y0095363D01*
X0267400Y0098175D01*
X0267400Y0102152D01*
X0270212Y0104963D01*
X0274188Y0104963D01*
X0277000Y0102152D01*
X0277000Y0098175D01*
X0277000Y0099307D02*
X0283465Y0099307D01*
X0283465Y0101705D02*
X0277000Y0101705D01*
X0275048Y0104104D02*
X0283465Y0104104D01*
X0283465Y0106502D02*
X0275327Y0106502D01*
X0274188Y0105363D02*
X0270212Y0105363D01*
X0267400Y0108175D01*
X0267400Y0112152D01*
X0270212Y0114963D01*
X0274188Y0114963D01*
X0277000Y0112152D01*
X0277000Y0108175D01*
X0274188Y0105363D01*
X0277000Y0108901D02*
X0283465Y0108901D01*
X0283465Y0111299D02*
X0277000Y0111299D01*
X0275454Y0113698D02*
X0283465Y0113698D01*
X0283465Y0116096D02*
X0274921Y0116096D01*
X0274188Y0115363D02*
X0277000Y0118175D01*
X0277000Y0122152D01*
X0274188Y0124963D01*
X0270212Y0124963D01*
X0267400Y0122152D01*
X0267400Y0118175D01*
X0270212Y0115363D01*
X0274188Y0115363D01*
X0277000Y0118495D02*
X0283465Y0118495D01*
X0283465Y0120893D02*
X0277000Y0120893D01*
X0275860Y0123292D02*
X0283465Y0123292D01*
X0283465Y0125690D02*
X0274515Y0125690D01*
X0274188Y0125363D02*
X0277000Y0128175D01*
X0277000Y0132152D01*
X0274188Y0134963D01*
X0270212Y0134963D01*
X0267400Y0132152D01*
X0267400Y0128175D01*
X0270212Y0125363D01*
X0274188Y0125363D01*
X0276914Y0128089D02*
X0283465Y0128089D01*
X0283465Y0130487D02*
X0277000Y0130487D01*
X0276266Y0132886D02*
X0283465Y0132886D01*
X0283465Y0135284D02*
X0247800Y0135284D01*
X0247800Y0132886D02*
X0258134Y0132886D01*
X0257400Y0132152D02*
X0257400Y0128175D01*
X0260212Y0125363D01*
X0264188Y0125363D01*
X0267000Y0128175D01*
X0267000Y0132152D01*
X0264188Y0134963D01*
X0260212Y0134963D01*
X0257400Y0132152D01*
X0257400Y0130487D02*
X0247800Y0130487D01*
X0247800Y0128089D02*
X0257486Y0128089D01*
X0259885Y0125690D02*
X0247800Y0125690D01*
X0247800Y0123292D02*
X0258540Y0123292D01*
X0257400Y0122152D02*
X0260212Y0124963D01*
X0264188Y0124963D01*
X0267000Y0122152D01*
X0267000Y0118175D01*
X0264188Y0115363D01*
X0260212Y0115363D01*
X0257400Y0118175D01*
X0257400Y0122152D01*
X0257400Y0120893D02*
X0247800Y0120893D01*
X0247800Y0118495D02*
X0257400Y0118495D01*
X0259479Y0116096D02*
X0247800Y0116096D01*
X0247800Y0113698D02*
X0258946Y0113698D01*
X0260212Y0114963D02*
X0257400Y0112152D01*
X0257400Y0108175D01*
X0260212Y0105363D01*
X0264188Y0105363D01*
X0267000Y0108175D01*
X0267000Y0112152D01*
X0264188Y0114963D01*
X0260212Y0114963D01*
X0257400Y0111299D02*
X0247800Y0111299D01*
X0247800Y0108901D02*
X0257400Y0108901D01*
X0259073Y0106502D02*
X0247800Y0106502D01*
X0247800Y0104104D02*
X0259352Y0104104D01*
X0260212Y0104963D02*
X0257400Y0102152D01*
X0257400Y0098175D01*
X0260212Y0095363D01*
X0264188Y0095363D01*
X0267000Y0098175D01*
X0267000Y0102152D01*
X0264188Y0104963D01*
X0260212Y0104963D01*
X0257400Y0101705D02*
X0247800Y0101705D01*
X0247800Y0099307D02*
X0257400Y0099307D01*
X0258667Y0096908D02*
X0247800Y0096908D01*
X0247800Y0094510D02*
X0259758Y0094510D01*
X0257400Y0092111D02*
X0247800Y0092111D01*
X0247800Y0089713D02*
X0257400Y0089713D01*
X0257766Y0082517D02*
X0242800Y0082517D01*
X0242800Y0080119D02*
X0257400Y0080119D01*
X0266545Y0077720D02*
X0267855Y0077720D01*
X0267400Y0080119D02*
X0267000Y0080119D01*
X0270212Y0074963D02*
X0267400Y0072152D01*
X0267400Y0068175D01*
X0270212Y0065363D01*
X0274188Y0065363D01*
X0277000Y0068175D01*
X0277000Y0072152D01*
X0274188Y0074963D01*
X0270212Y0074963D01*
X0268172Y0072923D02*
X0266228Y0072923D01*
X0267000Y0070525D02*
X0267400Y0070525D01*
X0267449Y0068126D02*
X0266951Y0068126D01*
X0264552Y0065728D02*
X0269848Y0065728D01*
X0274552Y0065728D02*
X0283465Y0065728D01*
X0283465Y0068126D02*
X0276951Y0068126D01*
X0277000Y0070525D02*
X0283465Y0070525D01*
X0283465Y0072923D02*
X0276228Y0072923D01*
X0283465Y0063329D02*
X0202452Y0063329D01*
X0202600Y0065728D02*
X0259848Y0065728D01*
X0244771Y0084916D02*
X0242800Y0084916D01*
X0237600Y0094510D02*
X0192600Y0094510D01*
X0192600Y0096908D02*
X0193473Y0096908D01*
X0193426Y0099307D02*
X0192600Y0099307D01*
X0192600Y0101705D02*
X0196393Y0101705D01*
X0198200Y0104104D02*
X0192600Y0104104D01*
X0192600Y0106502D02*
X0198200Y0106502D01*
X0198200Y0108901D02*
X0192600Y0108901D01*
X0192327Y0111299D02*
X0198200Y0111299D01*
X0198200Y0113698D02*
X0190781Y0113698D01*
X0189500Y0116096D02*
X0198200Y0116096D01*
X0198200Y0118495D02*
X0189121Y0118495D01*
X0186723Y0120893D02*
X0198200Y0120893D01*
X0201200Y0124163D02*
X0201200Y0142163D01*
X0198200Y0145163D01*
X0195819Y0142480D02*
X0191543Y0142480D01*
X0191111Y0142048D02*
X0192165Y0143103D01*
X0192165Y0143517D01*
X0195006Y0143517D01*
X0195164Y0143135D01*
X0196171Y0142127D01*
X0197488Y0141582D01*
X0197538Y0141582D01*
X0198200Y0140921D01*
X0198200Y0126763D01*
X0194277Y0126763D01*
X0189414Y0131626D01*
X0189088Y0131974D01*
X0189049Y0131991D01*
X0189019Y0132021D01*
X0188579Y0132203D01*
X0188145Y0132399D01*
X0188103Y0132401D01*
X0188064Y0132417D01*
X0187587Y0132417D01*
X0185042Y0132497D01*
X0185219Y0132802D01*
X0185368Y0133362D01*
X0185368Y0135817D01*
X0185368Y0137635D01*
X0185400Y0137666D01*
X0185400Y0140660D01*
X0184968Y0141092D01*
X0184968Y0142369D01*
X0185289Y0142048D01*
X0191111Y0142048D01*
X0185400Y0140082D02*
X0198200Y0140082D01*
X0198200Y0137683D02*
X0185400Y0137683D01*
X0185368Y0135817D02*
X0181200Y0135817D01*
X0181200Y0135817D01*
X0181200Y0135817D01*
X0177031Y0135817D01*
X0177031Y0137635D01*
X0177000Y0137666D01*
X0177000Y0140660D01*
X0177431Y0141092D01*
X0177431Y0144010D01*
X0176873Y0143779D01*
X0175968Y0143779D01*
X0175968Y0141092D01*
X0176400Y0140660D01*
X0176400Y0137666D01*
X0176368Y0137635D01*
X0176368Y0135817D01*
X0172200Y0135817D01*
X0172200Y0135817D01*
X0172200Y0135817D01*
X0168031Y0135817D01*
X0168031Y0137635D01*
X0168000Y0137666D01*
X0168000Y0140660D01*
X0168225Y0140886D01*
X0167528Y0141582D01*
X0166488Y0141582D01*
X0165171Y0142127D01*
X0164164Y0143135D01*
X0163619Y0144451D01*
X0163619Y0145876D01*
X0164164Y0147192D01*
X0165171Y0148199D01*
X0165900Y0148501D01*
X0165900Y0154211D01*
X0165247Y0154863D01*
X0136600Y0154863D01*
X0136600Y0140686D01*
X0136235Y0139804D01*
X0135559Y0139129D01*
X0133559Y0137129D01*
X0132677Y0136763D01*
X0130512Y0136763D01*
X0130512Y0136449D01*
X0129457Y0135395D01*
X0123636Y0135395D01*
X0123200Y0135830D01*
X0122764Y0135395D01*
X0122011Y0135395D01*
X0121993Y0134932D01*
X0122457Y0134932D01*
X0123431Y0133959D01*
X0123671Y0134199D01*
X0124988Y0134744D01*
X0126412Y0134744D01*
X0127729Y0134199D01*
X0128736Y0133192D01*
X0129281Y0131876D01*
X0129281Y0130451D01*
X0128736Y0129135D01*
X0127729Y0128127D01*
X0126412Y0127582D01*
X0124988Y0127582D01*
X0123671Y0128127D01*
X0123431Y0128368D01*
X0122457Y0127395D01*
X0116636Y0127395D01*
X0116483Y0127548D01*
X0116370Y0127434D01*
X0115868Y0127145D01*
X0115309Y0126995D01*
X0112854Y0126995D01*
X0112854Y0131163D01*
X0112853Y0131163D01*
X0108488Y0131163D01*
X0108488Y0128905D01*
X0108638Y0128346D01*
X0108928Y0127844D01*
X0109337Y0127434D01*
X0109839Y0127145D01*
X0110399Y0126995D01*
X0112853Y0126995D01*
X0112853Y0131163D01*
X0112853Y0131163D01*
X0108488Y0131163D01*
X0108488Y0133422D01*
X0108638Y0133981D01*
X0108928Y0134483D01*
X0109337Y0134892D01*
X0109839Y0135182D01*
X0110399Y0135332D01*
X0112853Y0135332D01*
X0112853Y0131164D01*
X0112854Y0131164D01*
X0112854Y0135332D01*
X0115309Y0135332D01*
X0115868Y0135182D01*
X0116370Y0134892D01*
X0116483Y0134779D01*
X0116636Y0134932D01*
X0117389Y0134932D01*
X0117407Y0135395D01*
X0116943Y0135395D01*
X0115888Y0136449D01*
X0115888Y0141877D01*
X0116943Y0142932D01*
X0122764Y0142932D01*
X0123200Y0142496D01*
X0123636Y0142932D01*
X0129457Y0142932D01*
X0130512Y0141877D01*
X0130512Y0141563D01*
X0131206Y0141563D01*
X0131800Y0142157D01*
X0131800Y0162169D01*
X0130206Y0163763D01*
X0123076Y0163763D01*
X0123069Y0163746D01*
X0122117Y0162794D01*
X0121954Y0162727D01*
X0123229Y0162199D01*
X0124236Y0161192D01*
X0124781Y0159876D01*
X0124781Y0158451D01*
X0124236Y0157135D01*
X0123500Y0156399D01*
X0123500Y0155244D01*
X0123912Y0155244D01*
X0125229Y0154699D01*
X0126236Y0153692D01*
X0126781Y0152376D01*
X0126781Y0150951D01*
X0126236Y0149635D01*
X0125229Y0148627D01*
X0123912Y0148082D01*
X0122488Y0148082D01*
X0121171Y0148627D01*
X0120512Y0149287D01*
X0120512Y0148449D01*
X0119457Y0147395D01*
X0116172Y0147395D01*
X0113906Y0145129D01*
X0113024Y0144763D01*
X0085600Y0144763D01*
X0085600Y0143686D01*
X0085235Y0142804D01*
X0084559Y0142129D01*
X0083048Y0140617D01*
X0082244Y0140284D01*
X0084404Y0138124D01*
X0084800Y0137169D01*
X0084800Y0111740D01*
X0085777Y0110763D01*
X0092236Y0110763D01*
X0092671Y0111199D01*
X0093988Y0111744D01*
X0095412Y0111744D01*
X0096729Y0111199D01*
X0097164Y0110763D01*
X0111888Y0110763D01*
X0111888Y0110877D01*
X0112901Y0111890D01*
X0112638Y0112346D01*
X0112488Y0112905D01*
X0112488Y0115163D01*
X0116853Y0115163D01*
X0116853Y0115163D01*
X0112488Y0115163D01*
X0112488Y0116969D01*
X0111259Y0118198D01*
X0108932Y0118198D01*
X0108697Y0117963D01*
X0106698Y0117963D01*
X0106671Y0117948D01*
X0106112Y0117798D01*
X0103854Y0117798D01*
X0103854Y0122163D01*
X0103853Y0122163D01*
X0099685Y0122163D01*
X0099685Y0119708D01*
X0099835Y0119149D01*
X0100125Y0118647D01*
X0100534Y0118238D01*
X0101036Y0117948D01*
X0101595Y0117798D01*
X0103853Y0117798D01*
X0103853Y0122163D01*
X0103853Y0122163D01*
X0099685Y0122163D01*
X0099685Y0124618D01*
X0099835Y0125178D01*
X0100125Y0125680D01*
X0100534Y0126089D01*
X0101036Y0126379D01*
X0101595Y0126529D01*
X0103853Y0126529D01*
X0103853Y0122164D01*
X0103854Y0122164D01*
X0103854Y0126529D01*
X0106112Y0126529D01*
X0106671Y0126379D01*
X0106698Y0126363D01*
X0108697Y0126363D01*
X0108932Y0126129D01*
X0113261Y0126129D01*
X0114315Y0125074D01*
X0114315Y0121648D01*
X0114499Y0121463D01*
X0143153Y0121463D01*
X0144372Y0120244D01*
X0145412Y0120244D01*
X0146729Y0119699D01*
X0147736Y0118692D01*
X0148281Y0117376D01*
X0148281Y0115951D01*
X0147736Y0114635D01*
X0146729Y0113627D01*
X0146072Y0113356D01*
X0146236Y0113192D01*
X0146781Y0111876D01*
X0146781Y0110744D01*
X0147412Y0110744D01*
X0148729Y0110199D01*
X0149464Y0109463D01*
X0155888Y0109463D01*
X0155888Y0109877D01*
X0156943Y0110932D01*
X0162764Y0110932D01*
X0162917Y0110779D01*
X0163030Y0110892D01*
X0163500Y0111163D01*
X0163030Y0111434D01*
X0162917Y0111548D01*
X0162764Y0111395D01*
X0156943Y0111395D01*
X0156215Y0112122D01*
X0154912Y0111582D01*
X0153488Y0111582D01*
X0152171Y0112127D01*
X0151164Y0113135D01*
X0150619Y0114451D01*
X0150619Y0115876D01*
X0151164Y0117192D01*
X0152171Y0118199D01*
X0153488Y0118744D01*
X0154912Y0118744D01*
X0156215Y0118205D01*
X0156943Y0118932D01*
X0157900Y0118932D01*
X0157900Y0120399D01*
X0157164Y0121135D01*
X0156619Y0122451D01*
X0156619Y0123876D01*
X0157164Y0125192D01*
X0158171Y0126199D01*
X0159488Y0126744D01*
X0160912Y0126744D01*
X0162229Y0126199D01*
X0162888Y0125540D01*
X0162888Y0125877D01*
X0163900Y0126889D01*
X0163900Y0130116D01*
X0165247Y0131463D01*
X0165888Y0132104D01*
X0165888Y0132877D01*
X0166943Y0133932D01*
X0168031Y0133932D01*
X0168031Y0135817D01*
X0172200Y0135817D01*
X0176368Y0135817D01*
X0176368Y0133932D01*
X0177031Y0133932D01*
X0177031Y0135817D01*
X0181200Y0135817D01*
X0185368Y0135817D01*
X0185368Y0135284D02*
X0198200Y0135284D01*
X0198200Y0132886D02*
X0185241Y0132886D01*
X0190553Y0130487D02*
X0198200Y0130487D01*
X0198200Y0128089D02*
X0192951Y0128089D01*
X0187996Y0125690D02*
X0177840Y0125690D01*
X0177912Y0123292D02*
X0190395Y0123292D01*
X0184900Y0116096D02*
X0170912Y0116096D01*
X0170912Y0113698D02*
X0183619Y0113698D01*
X0184096Y0111299D02*
X0169829Y0111299D01*
X0170912Y0108901D02*
X0187800Y0108901D01*
X0187800Y0106502D02*
X0170912Y0106502D01*
X0170622Y0104104D02*
X0187800Y0104104D01*
X0187800Y0101705D02*
X0183507Y0101705D01*
X0181893Y0101705D02*
X0181552Y0101705D01*
X0186103Y0099307D02*
X0187800Y0099307D01*
X0187800Y0096908D02*
X0186056Y0096908D01*
X0187800Y0094510D02*
X0155368Y0094510D01*
X0155368Y0094817D02*
X0155368Y0092362D01*
X0155219Y0091802D01*
X0154929Y0091301D01*
X0154519Y0090891D01*
X0154018Y0090602D01*
X0153458Y0090452D01*
X0151200Y0090452D01*
X0151200Y0094817D01*
X0151200Y0094817D01*
X0151200Y0094817D01*
X0155368Y0094817D01*
X0155368Y0096908D02*
X0156429Y0096908D01*
X0155888Y0099307D02*
X0154968Y0099307D01*
X0154968Y0101705D02*
X0155888Y0101705D01*
X0156234Y0104104D02*
X0154968Y0104104D01*
X0151200Y0094817D02*
X0151200Y0094817D01*
X0147031Y0094817D01*
X0143200Y0094817D01*
X0143200Y0094817D01*
X0143200Y0094817D01*
X0139031Y0094817D01*
X0139031Y0092362D01*
X0139181Y0091802D01*
X0139471Y0091301D01*
X0139881Y0090891D01*
X0140382Y0090602D01*
X0140942Y0090452D01*
X0143200Y0090452D01*
X0143865Y0090452D01*
X0143454Y0090281D01*
X0141594Y0088421D01*
X0140587Y0085991D01*
X0140587Y0083360D01*
X0141594Y0080929D01*
X0143454Y0079069D01*
X0145885Y0078062D01*
X0148515Y0078062D01*
X0150946Y0079069D01*
X0152806Y0080929D01*
X0153813Y0083360D01*
X0153813Y0085991D01*
X0152806Y0088421D01*
X0150946Y0090281D01*
X0150535Y0090452D01*
X0151200Y0090452D01*
X0151200Y0094817D01*
X0151200Y0094510D02*
X0151200Y0094510D01*
X0151200Y0092111D02*
X0151200Y0092111D01*
X0151515Y0089713D02*
X0160488Y0089713D01*
X0160488Y0087314D02*
X0153265Y0087314D01*
X0153813Y0084916D02*
X0169800Y0084916D01*
X0169089Y0082517D02*
X0165311Y0082517D01*
X0166753Y0080119D02*
X0167647Y0080119D01*
X0167849Y0077720D02*
X0166551Y0077720D01*
X0162816Y0070525D02*
X0161584Y0070525D01*
X0161719Y0068126D02*
X0162681Y0068126D01*
X0164170Y0065728D02*
X0160230Y0065728D01*
X0157849Y0077720D02*
X0142886Y0077720D01*
X0142404Y0080119D02*
X0141753Y0080119D01*
X0140936Y0082517D02*
X0140311Y0082517D01*
X0140587Y0084916D02*
X0119600Y0084916D01*
X0120311Y0082517D02*
X0124089Y0082517D01*
X0124610Y0083039D02*
X0123324Y0081753D01*
X0122628Y0080073D01*
X0122628Y0078254D01*
X0123324Y0076574D01*
X0124610Y0075288D01*
X0126291Y0074592D01*
X0128109Y0074592D01*
X0129790Y0075288D01*
X0131076Y0076574D01*
X0131772Y0078254D01*
X0131772Y0080073D01*
X0131076Y0081753D01*
X0129790Y0083039D01*
X0128109Y0083735D01*
X0126291Y0083735D01*
X0124610Y0083039D01*
X0122647Y0080119D02*
X0121753Y0080119D01*
X0121551Y0077720D02*
X0122849Y0077720D01*
X0124576Y0075322D02*
X0119824Y0075322D01*
X0116076Y0071753D02*
X0114790Y0073039D01*
X0113109Y0073735D01*
X0111291Y0073735D01*
X0109610Y0073039D01*
X0108324Y0071753D01*
X0107628Y0070073D01*
X0107628Y0068254D01*
X0108324Y0066574D01*
X0109610Y0065288D01*
X0111291Y0064592D01*
X0113109Y0064592D01*
X0114790Y0065288D01*
X0116076Y0066574D01*
X0116772Y0068254D01*
X0116772Y0070073D01*
X0116076Y0071753D01*
X0116584Y0070525D02*
X0117445Y0070525D01*
X0117681Y0068126D02*
X0116719Y0068126D01*
X0115230Y0065728D02*
X0119170Y0065728D01*
X0125230Y0065728D02*
X0129170Y0065728D01*
X0129610Y0065288D02*
X0131291Y0064592D01*
X0133109Y0064592D01*
X0134790Y0065288D01*
X0136076Y0066574D01*
X0136772Y0068254D01*
X0136772Y0070073D01*
X0136076Y0071753D01*
X0134790Y0073039D01*
X0133109Y0073735D01*
X0131291Y0073735D01*
X0129610Y0073039D01*
X0128324Y0071753D01*
X0127628Y0070073D01*
X0127628Y0068254D01*
X0128324Y0066574D01*
X0129610Y0065288D01*
X0127681Y0068126D02*
X0126719Y0068126D01*
X0126584Y0070525D02*
X0127816Y0070525D01*
X0129495Y0072923D02*
X0124905Y0072923D01*
X0129824Y0075322D02*
X0134576Y0075322D01*
X0134905Y0072923D02*
X0138200Y0072923D01*
X0138200Y0070525D02*
X0136584Y0070525D01*
X0136719Y0068126D02*
X0138200Y0068126D01*
X0138200Y0065728D02*
X0135230Y0065728D01*
X0138200Y0063329D02*
X0112428Y0063329D01*
X0114480Y0060931D02*
X0137170Y0060931D01*
X0136447Y0058532D02*
X0114600Y0058532D01*
X0114600Y0056134D02*
X0136447Y0056134D01*
X0136447Y0053735D02*
X0125165Y0053735D01*
X0125165Y0051337D02*
X0136047Y0051337D01*
X0136047Y0048938D02*
X0125400Y0048938D01*
X0125273Y0046540D02*
X0136057Y0046540D01*
X0125165Y0044141D02*
X0148784Y0044141D01*
X0146842Y0041743D02*
X0124805Y0041743D01*
X0123500Y0039344D02*
X0146800Y0039344D01*
X0144791Y0036946D02*
X0123500Y0036946D01*
X0123500Y0034547D02*
X0144439Y0034547D01*
X0142418Y0032148D02*
X0137966Y0032148D01*
X0139703Y0029750D02*
X0140681Y0029750D01*
X0140424Y0027351D02*
X0139961Y0027351D01*
X0138710Y0024953D02*
X0141675Y0024953D01*
X0148710Y0024953D02*
X0186714Y0024953D01*
X0186189Y0025478D02*
X0187530Y0024137D01*
X0189283Y0023411D01*
X0191180Y0023411D01*
X0192933Y0024137D01*
X0194274Y0025478D01*
X0195000Y0027231D01*
X0195000Y0029128D01*
X0194274Y0030880D01*
X0192933Y0032222D01*
X0191180Y0032948D01*
X0189283Y0032948D01*
X0187530Y0032222D01*
X0186189Y0030880D01*
X0186016Y0030463D01*
X0184153Y0030463D01*
X0182500Y0032116D01*
X0182500Y0034048D01*
X0183111Y0034048D01*
X0184165Y0035103D01*
X0184165Y0039432D01*
X0184400Y0039666D01*
X0184400Y0042660D01*
X0184165Y0042895D01*
X0184165Y0047224D01*
X0183241Y0048148D01*
X0183781Y0049451D01*
X0183781Y0050876D01*
X0183236Y0052192D01*
X0182229Y0053199D01*
X0180912Y0053744D01*
X0179488Y0053744D01*
X0178171Y0053199D01*
X0177164Y0052192D01*
X0176619Y0050876D01*
X0176619Y0049451D01*
X0177159Y0048148D01*
X0176235Y0047224D01*
X0176235Y0042895D01*
X0176000Y0042660D01*
X0176000Y0039666D01*
X0176235Y0039432D01*
X0176235Y0035103D01*
X0177289Y0034048D01*
X0177900Y0034048D01*
X0177900Y0030211D01*
X0180900Y0027211D01*
X0182247Y0025863D01*
X0186029Y0025863D01*
X0186189Y0025478D01*
X0180759Y0027351D02*
X0149961Y0027351D01*
X0149703Y0029750D02*
X0178361Y0029750D01*
X0177900Y0032148D02*
X0162952Y0032148D01*
X0163976Y0034547D02*
X0167790Y0034547D01*
X0166024Y0036946D02*
X0163625Y0036946D01*
X0163625Y0039344D02*
X0161538Y0039344D01*
X0156878Y0039344D02*
X0151600Y0039344D01*
X0153625Y0036946D02*
X0154791Y0036946D01*
X0154439Y0034547D02*
X0153976Y0034547D01*
X0152952Y0032148D02*
X0155463Y0032148D01*
X0166235Y0043523D02*
X0166235Y0043523D01*
X0165616Y0044141D02*
X0167235Y0044141D01*
X0175165Y0044141D02*
X0176235Y0044141D01*
X0176235Y0046540D02*
X0175165Y0046540D01*
X0173600Y0048938D02*
X0176831Y0048938D01*
X0176810Y0051337D02*
X0173600Y0051337D01*
X0173600Y0053735D02*
X0179465Y0053735D01*
X0180935Y0053735D02*
X0201937Y0053735D01*
X0201473Y0054856D02*
X0202480Y0052425D01*
X0204340Y0050565D01*
X0206770Y0049558D01*
X0209401Y0049558D01*
X0211832Y0050565D01*
X0213692Y0052425D01*
X0214699Y0054856D01*
X0214699Y0057487D01*
X0213692Y0059917D01*
X0211832Y0061777D01*
X0209401Y0062784D01*
X0206770Y0062784D01*
X0204340Y0061777D01*
X0202480Y0059917D01*
X0201473Y0057487D01*
X0201473Y0054856D01*
X0201473Y0056134D02*
X0195564Y0056134D01*
X0195490Y0052761D02*
X0192330Y0051452D01*
X0189911Y0049034D01*
X0188602Y0045874D01*
X0188602Y0042453D01*
X0189911Y0039293D01*
X0192330Y0036875D01*
X0195490Y0035566D01*
X0198910Y0035566D01*
X0202070Y0036875D01*
X0204489Y0039293D01*
X0205798Y0042453D01*
X0205798Y0045874D01*
X0204489Y0049034D01*
X0202070Y0051452D01*
X0198910Y0052761D01*
X0195490Y0052761D01*
X0192214Y0051337D02*
X0183590Y0051337D01*
X0183569Y0048938D02*
X0189872Y0048938D01*
X0188878Y0046540D02*
X0184165Y0046540D01*
X0184165Y0044141D02*
X0188602Y0044141D01*
X0188897Y0041743D02*
X0184400Y0041743D01*
X0184165Y0039344D02*
X0189890Y0039344D01*
X0192259Y0036946D02*
X0184165Y0036946D01*
X0183610Y0034547D02*
X0283465Y0034547D01*
X0283465Y0032148D02*
X0203561Y0032148D01*
X0203599Y0032121D02*
X0202940Y0032600D01*
X0202216Y0032969D01*
X0201442Y0033220D01*
X0200638Y0033348D01*
X0200232Y0033348D01*
X0200232Y0028179D01*
X0200232Y0028179D01*
X0205400Y0028179D01*
X0205400Y0027772D01*
X0205273Y0026969D01*
X0205021Y0026195D01*
X0204652Y0025470D01*
X0204174Y0024812D01*
X0203599Y0024237D01*
X0202940Y0023759D01*
X0202216Y0023389D01*
X0201442Y0023138D01*
X0200638Y0023011D01*
X0200232Y0023011D01*
X0200232Y0028179D01*
X0205400Y0028179D01*
X0205400Y0028586D01*
X0205273Y0029389D01*
X0205021Y0030163D01*
X0204652Y0030888D01*
X0204174Y0031546D01*
X0203599Y0032121D01*
X0205156Y0029750D02*
X0283465Y0029750D01*
X0283465Y0027351D02*
X0205333Y0027351D01*
X0204276Y0024953D02*
X0283465Y0024953D01*
X0283465Y0022554D02*
X0113844Y0022554D01*
X0114500Y0024953D02*
X0131675Y0024953D01*
X0132418Y0032148D02*
X0123500Y0032148D01*
X0120759Y0027351D02*
X0114500Y0027351D01*
X0114500Y0029750D02*
X0118900Y0029750D01*
X0118900Y0032148D02*
X0114500Y0032148D01*
X0114500Y0034547D02*
X0118900Y0034547D01*
X0118900Y0036946D02*
X0114500Y0036946D01*
X0114500Y0039344D02*
X0118900Y0039344D01*
X0117595Y0041743D02*
X0115805Y0041743D01*
X0116165Y0044141D02*
X0117235Y0044141D01*
X0117127Y0046540D02*
X0116273Y0046540D01*
X0116400Y0048938D02*
X0117000Y0048938D01*
X0109800Y0056134D02*
X0092927Y0056134D01*
X0092927Y0054856D02*
X0091920Y0052425D01*
X0090060Y0050565D01*
X0087630Y0049558D01*
X0084999Y0049558D01*
X0082568Y0050565D01*
X0080708Y0052425D01*
X0079701Y0054856D01*
X0079701Y0057487D01*
X0080708Y0059917D01*
X0082568Y0061777D01*
X0084999Y0062784D01*
X0087630Y0062784D01*
X0090060Y0061777D01*
X0091920Y0059917D01*
X0092927Y0057487D01*
X0092927Y0054856D01*
X0092463Y0053735D02*
X0108235Y0053735D01*
X0108235Y0051337D02*
X0102186Y0051337D01*
X0102070Y0051452D02*
X0098910Y0052761D01*
X0095490Y0052761D01*
X0092330Y0051452D01*
X0089911Y0049034D01*
X0088602Y0045874D01*
X0088602Y0042453D01*
X0089911Y0039293D01*
X0092330Y0036875D01*
X0095490Y0035566D01*
X0098910Y0035566D01*
X0102070Y0036875D01*
X0104489Y0039293D01*
X0105798Y0042453D01*
X0105798Y0045874D01*
X0104489Y0049034D01*
X0102070Y0051452D01*
X0104528Y0048938D02*
X0108000Y0048938D01*
X0108127Y0046540D02*
X0105522Y0046540D01*
X0105798Y0044141D02*
X0108235Y0044141D01*
X0108595Y0041743D02*
X0105503Y0041743D01*
X0104510Y0039344D02*
X0109900Y0039344D01*
X0109900Y0036946D02*
X0102141Y0036946D01*
X0101394Y0032148D02*
X0096943Y0032148D01*
X0098679Y0029750D02*
X0099658Y0029750D01*
X0099400Y0027351D02*
X0098937Y0027351D01*
X0097686Y0024953D02*
X0100651Y0024953D01*
X0107686Y0024953D02*
X0109737Y0024953D01*
X0109900Y0027351D02*
X0108937Y0027351D01*
X0108679Y0029750D02*
X0109900Y0029750D01*
X0109900Y0032148D02*
X0106943Y0032148D01*
X0109900Y0034547D02*
X0012274Y0034547D01*
X0012274Y0032148D02*
X0091394Y0032148D01*
X0089658Y0029750D02*
X0012274Y0029750D01*
X0012274Y0027351D02*
X0089400Y0027351D01*
X0090651Y0024953D02*
X0012274Y0024953D01*
X0012274Y0022554D02*
X0092556Y0022554D01*
X0094955Y0020156D02*
X0012274Y0020156D01*
X0012274Y0017757D02*
X0283465Y0017757D01*
X0283465Y0015359D02*
X0012274Y0015359D01*
X0012274Y0012960D02*
X0283465Y0012960D01*
X0283465Y0010562D02*
X0012274Y0010562D01*
X0012274Y0010363D02*
X0012274Y0265806D01*
X0116929Y0265806D01*
X0116929Y0243473D01*
X0118218Y0242184D01*
X0206655Y0242184D01*
X0207943Y0243473D01*
X0207943Y0265806D01*
X0283465Y0265806D01*
X0283465Y0010363D01*
X0012274Y0010363D01*
X0012274Y0036946D02*
X0092259Y0036946D01*
X0089890Y0039344D02*
X0012274Y0039344D01*
X0012274Y0041743D02*
X0088897Y0041743D01*
X0088602Y0044141D02*
X0012274Y0044141D01*
X0012274Y0046540D02*
X0088878Y0046540D01*
X0089872Y0048938D02*
X0012274Y0048938D01*
X0012274Y0051337D02*
X0081797Y0051337D01*
X0080165Y0053735D02*
X0012274Y0053735D01*
X0012274Y0056134D02*
X0079701Y0056134D01*
X0080134Y0058532D02*
X0012274Y0058532D01*
X0012274Y0060931D02*
X0081721Y0060931D01*
X0090907Y0060931D02*
X0095039Y0060931D01*
X0092948Y0063329D02*
X0012274Y0063329D01*
X0012274Y0065728D02*
X0019848Y0065728D01*
X0020212Y0065363D02*
X0024188Y0065363D01*
X0027000Y0068175D01*
X0027000Y0072152D01*
X0024188Y0074963D01*
X0020212Y0074963D01*
X0017400Y0072152D01*
X0017400Y0068175D01*
X0020212Y0065363D01*
X0017449Y0068126D02*
X0012274Y0068126D01*
X0012274Y0070525D02*
X0017400Y0070525D01*
X0018172Y0072923D02*
X0012274Y0072923D01*
X0012274Y0075322D02*
X0092800Y0075322D01*
X0092800Y0077720D02*
X0036545Y0077720D01*
X0037000Y0078175D02*
X0034188Y0075363D01*
X0030212Y0075363D01*
X0027400Y0078175D01*
X0027400Y0082152D01*
X0030212Y0084963D01*
X0034188Y0084963D01*
X0037000Y0082152D01*
X0037000Y0078175D01*
X0037000Y0080119D02*
X0092800Y0080119D01*
X0092800Y0082517D02*
X0036634Y0082517D01*
X0034236Y0084916D02*
X0092800Y0084916D01*
X0092800Y0087314D02*
X0036139Y0087314D01*
X0037000Y0088175D02*
X0037000Y0092152D01*
X0034521Y0094630D01*
X0034683Y0094563D01*
X0083736Y0094563D01*
X0084171Y0094127D01*
X0085488Y0093582D01*
X0086912Y0093582D01*
X0088229Y0094127D01*
X0089236Y0095135D01*
X0089781Y0096451D01*
X0089781Y0097876D01*
X0089236Y0099192D01*
X0088229Y0100199D01*
X0086912Y0100744D01*
X0085488Y0100744D01*
X0084171Y0100199D01*
X0083736Y0099763D01*
X0037000Y0099763D01*
X0037000Y0102152D01*
X0034188Y0104963D01*
X0030212Y0104963D01*
X0027400Y0102152D01*
X0027400Y0098175D01*
X0030212Y0095363D01*
X0033323Y0095363D01*
X0033723Y0094963D01*
X0030212Y0094963D01*
X0027400Y0092152D01*
X0027400Y0088175D01*
X0030212Y0085363D01*
X0034188Y0085363D01*
X0037000Y0088175D01*
X0037000Y0089713D02*
X0094355Y0089713D01*
X0097600Y0084916D02*
X0114800Y0084916D01*
X0114089Y0082517D02*
X0110311Y0082517D01*
X0109790Y0083039D02*
X0108109Y0083735D01*
X0106291Y0083735D01*
X0104610Y0083039D01*
X0103324Y0081753D01*
X0102628Y0080073D01*
X0102628Y0078254D01*
X0103324Y0076574D01*
X0104610Y0075288D01*
X0106291Y0074592D01*
X0108109Y0074592D01*
X0109790Y0075288D01*
X0111076Y0076574D01*
X0111772Y0078254D01*
X0111772Y0080073D01*
X0111076Y0081753D01*
X0109790Y0083039D01*
X0111753Y0080119D02*
X0112647Y0080119D01*
X0112849Y0077720D02*
X0111551Y0077720D01*
X0109824Y0075322D02*
X0114576Y0075322D01*
X0114905Y0072923D02*
X0115116Y0072923D01*
X0109495Y0072923D02*
X0104905Y0072923D01*
X0104790Y0073039D02*
X0103109Y0073735D01*
X0101291Y0073735D01*
X0099610Y0073039D01*
X0098324Y0071753D01*
X0097628Y0070073D01*
X0097628Y0068254D01*
X0098324Y0066574D01*
X0099610Y0065288D01*
X0101291Y0064592D01*
X0103109Y0064592D01*
X0104790Y0065288D01*
X0106076Y0066574D01*
X0106772Y0068254D01*
X0106772Y0070073D01*
X0106076Y0071753D01*
X0104790Y0073039D01*
X0104576Y0075322D02*
X0097600Y0075322D01*
X0097600Y0077720D02*
X0102849Y0077720D01*
X0102647Y0080119D02*
X0097600Y0080119D01*
X0097600Y0082517D02*
X0104089Y0082517D01*
X0100122Y0092111D02*
X0037000Y0092111D01*
X0034642Y0094510D02*
X0083789Y0094510D01*
X0088611Y0094510D02*
X0101454Y0094510D01*
X0101454Y0096908D02*
X0089781Y0096908D01*
X0089121Y0099307D02*
X0100992Y0099307D01*
X0099619Y0101705D02*
X0068788Y0101705D01*
X0069250Y0104104D02*
X0100128Y0104104D01*
X0106254Y0099307D02*
X0125546Y0099307D01*
X0125531Y0101705D02*
X0122995Y0101705D01*
X0124846Y0104104D02*
X0125531Y0104104D01*
X0129700Y0101817D02*
X0129700Y0097452D01*
X0129700Y0101817D01*
X0129700Y0101817D01*
X0129700Y0101705D02*
X0129700Y0101705D01*
X0129700Y0099307D02*
X0129700Y0099307D01*
X0133854Y0099307D02*
X0139431Y0099307D01*
X0139431Y0101705D02*
X0138806Y0101705D01*
X0139031Y0096908D02*
X0106254Y0096908D01*
X0106254Y0094510D02*
X0139031Y0094510D01*
X0139099Y0092111D02*
X0128687Y0092111D01*
X0128912Y0089713D02*
X0142885Y0089713D01*
X0143200Y0090452D02*
X0143200Y0094817D01*
X0143200Y0090452D01*
X0143200Y0092111D02*
X0143200Y0092111D01*
X0143200Y0094510D02*
X0143200Y0094510D01*
X0143200Y0094817D02*
X0143200Y0094817D01*
X0141135Y0087314D02*
X0128912Y0087314D01*
X0124547Y0087314D02*
X0124546Y0087314D01*
X0124546Y0089713D02*
X0124547Y0089713D01*
X0124546Y0092111D02*
X0124547Y0092111D01*
X0130311Y0082517D02*
X0134089Y0082517D01*
X0132647Y0080119D02*
X0131753Y0080119D01*
X0131551Y0077720D02*
X0132849Y0077720D01*
X0137200Y0079163D02*
X0141200Y0075163D01*
X0141200Y0056904D01*
X0151996Y0080119D02*
X0157647Y0080119D01*
X0159089Y0082517D02*
X0153464Y0082517D01*
X0155301Y0092111D02*
X0160713Y0092111D01*
X0164853Y0092111D02*
X0164854Y0092111D01*
X0164853Y0089713D02*
X0164854Y0089713D01*
X0164853Y0087314D02*
X0164854Y0087314D01*
X0169971Y0096908D02*
X0179344Y0096908D01*
X0176122Y0092111D02*
X0175278Y0092111D01*
X0166546Y0108901D02*
X0166547Y0108901D01*
X0166546Y0111299D02*
X0166547Y0111299D01*
X0166546Y0113698D02*
X0166547Y0113698D01*
X0166546Y0115164D02*
X0166546Y0119332D01*
X0164091Y0119332D01*
X0163532Y0119182D01*
X0163030Y0118892D01*
X0162917Y0118779D01*
X0162764Y0118932D01*
X0162500Y0118932D01*
X0162500Y0120399D01*
X0162888Y0120787D01*
X0162888Y0120449D01*
X0163943Y0119395D01*
X0167369Y0119395D01*
X0167432Y0119332D01*
X0166547Y0119332D01*
X0166547Y0115164D01*
X0166546Y0115164D01*
X0166546Y0116096D02*
X0166547Y0116096D01*
X0166546Y0118495D02*
X0166547Y0118495D01*
X0163264Y0111299D02*
X0146781Y0111299D01*
X0146799Y0113698D02*
X0150931Y0113698D01*
X0150710Y0116096D02*
X0148281Y0116096D01*
X0147818Y0118495D02*
X0152885Y0118495D01*
X0155515Y0118495D02*
X0156506Y0118495D01*
X0157406Y0120893D02*
X0143723Y0120893D01*
X0129281Y0130487D02*
X0164271Y0130487D01*
X0163900Y0128089D02*
X0127636Y0128089D01*
X0123764Y0128089D02*
X0123151Y0128089D01*
X0128863Y0132886D02*
X0165897Y0132886D01*
X0168031Y0135284D02*
X0122006Y0135284D01*
X0117403Y0135284D02*
X0115485Y0135284D01*
X0115888Y0137683D02*
X0084587Y0137683D01*
X0084800Y0135284D02*
X0110222Y0135284D01*
X0112853Y0135284D02*
X0112854Y0135284D01*
X0112853Y0132886D02*
X0112854Y0132886D01*
X0112853Y0130487D02*
X0112854Y0130487D01*
X0112853Y0128089D02*
X0112854Y0128089D01*
X0113699Y0125690D02*
X0157663Y0125690D01*
X0156619Y0123292D02*
X0114315Y0123292D01*
X0108786Y0128089D02*
X0084800Y0128089D01*
X0084800Y0130487D02*
X0108488Y0130487D01*
X0108488Y0132886D02*
X0084800Y0132886D01*
X0079600Y0132886D02*
X0068900Y0132886D01*
X0068900Y0130487D02*
X0079600Y0130487D01*
X0079600Y0128089D02*
X0068900Y0128089D01*
X0068900Y0125690D02*
X0079600Y0125690D01*
X0079600Y0123292D02*
X0054314Y0123292D01*
X0054200Y0119163D02*
X0046200Y0127163D01*
X0046200Y0129863D01*
X0046100Y0129963D01*
X0041900Y0130487D02*
X0037000Y0130487D01*
X0037000Y0132152D02*
X0034188Y0134963D01*
X0030212Y0134963D01*
X0027400Y0132152D01*
X0027400Y0128175D01*
X0030212Y0125363D01*
X0034188Y0125363D01*
X0037000Y0128175D01*
X0037000Y0132152D01*
X0036266Y0132886D02*
X0041900Y0132886D01*
X0039826Y0135284D02*
X0034675Y0135284D01*
X0034354Y0134963D02*
X0032200Y0134963D01*
X0032200Y0140163D01*
X0032200Y0140163D01*
X0032200Y0134963D01*
X0030046Y0134963D01*
X0027000Y0138009D01*
X0027000Y0140163D01*
X0032200Y0140163D01*
X0032200Y0140163D01*
X0037400Y0140163D01*
X0037400Y0138009D01*
X0034354Y0134963D01*
X0032200Y0135284D02*
X0032200Y0135284D01*
X0032200Y0137683D02*
X0032200Y0137683D01*
X0032200Y0140082D02*
X0032200Y0140082D01*
X0032200Y0140163D02*
X0032200Y0140163D01*
X0027000Y0140163D01*
X0027000Y0142317D01*
X0029846Y0145163D01*
X0027200Y0147809D01*
X0024354Y0144963D01*
X0022200Y0144963D01*
X0022200Y0150163D01*
X0022200Y0150163D01*
X0022200Y0144963D01*
X0020046Y0144963D01*
X0017000Y0148009D01*
X0017000Y0150163D01*
X0022200Y0150163D01*
X0022200Y0150163D01*
X0027000Y0150163D01*
X0032200Y0150163D01*
X0032200Y0140164D01*
X0032200Y0145363D01*
X0032200Y0150163D01*
X0032200Y0150163D01*
X0032200Y0150163D01*
X0037400Y0150163D01*
X0037400Y0148009D01*
X0034554Y0145163D01*
X0037400Y0142317D01*
X0037400Y0140163D01*
X0032200Y0140163D01*
X0032200Y0140164D02*
X0032200Y0140164D01*
X0032200Y0142480D02*
X0032200Y0142480D01*
X0032200Y0144879D02*
X0032200Y0144879D01*
X0032200Y0147277D02*
X0032200Y0147277D01*
X0032200Y0149676D02*
X0032200Y0149676D01*
X0032200Y0150163D02*
X0032200Y0150163D01*
X0037400Y0150163D01*
X0037400Y0152317D01*
X0034354Y0155363D01*
X0032200Y0155363D01*
X0032200Y0150164D01*
X0032200Y0155363D01*
X0030046Y0155363D01*
X0027200Y0152517D01*
X0024354Y0155363D01*
X0022200Y0155363D01*
X0022200Y0150164D01*
X0022200Y0155363D01*
X0020046Y0155363D01*
X0017000Y0152317D01*
X0017000Y0150163D01*
X0022200Y0150163D01*
X0022200Y0150163D01*
X0032200Y0150163D01*
X0032200Y0150164D02*
X0032200Y0150164D01*
X0032200Y0152074D02*
X0032200Y0152074D01*
X0032200Y0154473D02*
X0032200Y0154473D01*
X0030212Y0155363D02*
X0034188Y0155363D01*
X0037000Y0158175D01*
X0037000Y0162152D01*
X0034188Y0164963D01*
X0030212Y0164963D01*
X0027400Y0162152D01*
X0027400Y0158175D01*
X0030212Y0155363D01*
X0029155Y0154473D02*
X0025245Y0154473D01*
X0024188Y0155363D02*
X0027000Y0158175D01*
X0027000Y0162152D01*
X0024188Y0164963D01*
X0020212Y0164963D01*
X0017400Y0162152D01*
X0017400Y0158175D01*
X0020212Y0155363D01*
X0024188Y0155363D01*
X0025696Y0156871D02*
X0028704Y0156871D01*
X0027400Y0159270D02*
X0027000Y0159270D01*
X0027000Y0161668D02*
X0027400Y0161668D01*
X0029315Y0164067D02*
X0025085Y0164067D01*
X0024188Y0165363D02*
X0027000Y0168175D01*
X0027000Y0172152D01*
X0024188Y0174963D01*
X0020212Y0174963D01*
X0017400Y0172152D01*
X0017400Y0168175D01*
X0020212Y0165363D01*
X0024188Y0165363D01*
X0025290Y0166465D02*
X0029110Y0166465D01*
X0030212Y0165363D02*
X0027400Y0168175D01*
X0027400Y0172152D01*
X0030212Y0174963D01*
X0034188Y0174963D01*
X0037000Y0172152D01*
X0037000Y0168175D01*
X0034188Y0165363D01*
X0030212Y0165363D01*
X0027400Y0168864D02*
X0027000Y0168864D01*
X0027000Y0171262D02*
X0027400Y0171262D01*
X0028909Y0173661D02*
X0025491Y0173661D01*
X0024188Y0175363D02*
X0027000Y0178175D01*
X0027000Y0182152D01*
X0024188Y0184963D01*
X0020212Y0184963D01*
X0017400Y0182152D01*
X0017400Y0178175D01*
X0020212Y0175363D01*
X0024188Y0175363D01*
X0024884Y0176059D02*
X0029516Y0176059D01*
X0030212Y0175363D02*
X0034188Y0175363D01*
X0037000Y0178175D01*
X0037000Y0182152D01*
X0034188Y0184963D01*
X0030212Y0184963D01*
X0027400Y0182152D01*
X0027400Y0178175D01*
X0030212Y0175363D01*
X0034884Y0176059D02*
X0052200Y0176059D01*
X0052200Y0173661D02*
X0035491Y0173661D01*
X0037000Y0171262D02*
X0038900Y0171262D01*
X0038900Y0168864D02*
X0037000Y0168864D01*
X0035290Y0166465D02*
X0038900Y0166465D01*
X0038900Y0164067D02*
X0035085Y0164067D01*
X0037000Y0161668D02*
X0038900Y0161668D01*
X0038900Y0159270D02*
X0037000Y0159270D01*
X0035696Y0156871D02*
X0038900Y0156871D01*
X0038900Y0154473D02*
X0035245Y0154473D01*
X0037400Y0152074D02*
X0038900Y0152074D01*
X0038900Y0149676D02*
X0037400Y0149676D01*
X0036668Y0147277D02*
X0038900Y0147277D01*
X0038900Y0144879D02*
X0034839Y0144879D01*
X0037237Y0142480D02*
X0038900Y0142480D01*
X0038900Y0140082D02*
X0037400Y0140082D01*
X0037074Y0137683D02*
X0038900Y0137683D01*
X0029725Y0135284D02*
X0012274Y0135284D01*
X0012274Y0132886D02*
X0018134Y0132886D01*
X0017400Y0132152D02*
X0020212Y0134963D01*
X0024188Y0134963D01*
X0027000Y0132152D01*
X0027000Y0128175D01*
X0024188Y0125363D01*
X0020212Y0125363D01*
X0017400Y0128175D01*
X0017400Y0132152D01*
X0017400Y0130487D02*
X0012274Y0130487D01*
X0012274Y0128089D02*
X0017486Y0128089D01*
X0019885Y0125690D02*
X0012274Y0125690D01*
X0012274Y0123292D02*
X0018540Y0123292D01*
X0017400Y0122152D02*
X0020212Y0124963D01*
X0024188Y0124963D01*
X0027000Y0122152D01*
X0027000Y0118175D01*
X0024188Y0115363D01*
X0020212Y0115363D01*
X0017400Y0118175D01*
X0017400Y0122152D01*
X0017400Y0120893D02*
X0012274Y0120893D01*
X0012274Y0118495D02*
X0017400Y0118495D01*
X0019479Y0116096D02*
X0012274Y0116096D01*
X0012274Y0113698D02*
X0018946Y0113698D01*
X0020212Y0114963D02*
X0017400Y0112152D01*
X0017400Y0108175D01*
X0020212Y0105363D01*
X0024188Y0105363D01*
X0027000Y0108175D01*
X0027000Y0112152D01*
X0024188Y0114963D01*
X0020212Y0114963D01*
X0017400Y0111299D02*
X0012274Y0111299D01*
X0012274Y0108901D02*
X0017400Y0108901D01*
X0019073Y0106502D02*
X0012274Y0106502D01*
X0012274Y0104104D02*
X0019352Y0104104D01*
X0020212Y0104963D02*
X0017400Y0102152D01*
X0017400Y0098175D01*
X0020212Y0095363D01*
X0024188Y0095363D01*
X0027000Y0098175D01*
X0027000Y0102152D01*
X0024188Y0104963D01*
X0020212Y0104963D01*
X0017400Y0101705D02*
X0012274Y0101705D01*
X0012274Y0099307D02*
X0017400Y0099307D01*
X0018667Y0096908D02*
X0012274Y0096908D01*
X0012274Y0094510D02*
X0019758Y0094510D01*
X0020212Y0094963D02*
X0017400Y0092152D01*
X0017400Y0088175D01*
X0020212Y0085363D01*
X0024188Y0085363D01*
X0027000Y0088175D01*
X0027000Y0092152D01*
X0024188Y0094963D01*
X0020212Y0094963D01*
X0017400Y0092111D02*
X0012274Y0092111D01*
X0012274Y0089713D02*
X0017400Y0089713D01*
X0018261Y0087314D02*
X0012274Y0087314D01*
X0012274Y0084916D02*
X0020164Y0084916D01*
X0020212Y0084963D02*
X0017400Y0082152D01*
X0017400Y0078175D01*
X0020212Y0075363D01*
X0024188Y0075363D01*
X0027000Y0078175D01*
X0027000Y0082152D01*
X0024188Y0084963D01*
X0020212Y0084963D01*
X0017766Y0082517D02*
X0012274Y0082517D01*
X0012274Y0080119D02*
X0017400Y0080119D01*
X0017855Y0077720D02*
X0012274Y0077720D01*
X0024236Y0084916D02*
X0030164Y0084916D01*
X0028261Y0087314D02*
X0026139Y0087314D01*
X0027000Y0089713D02*
X0027400Y0089713D01*
X0027400Y0092111D02*
X0027000Y0092111D01*
X0024642Y0094510D02*
X0029758Y0094510D01*
X0028667Y0096908D02*
X0025733Y0096908D01*
X0027000Y0099307D02*
X0027400Y0099307D01*
X0027400Y0101705D02*
X0027000Y0101705D01*
X0025048Y0104104D02*
X0029352Y0104104D01*
X0030212Y0105363D02*
X0034188Y0105363D01*
X0037000Y0108175D01*
X0037000Y0112152D01*
X0034188Y0114963D01*
X0030212Y0114963D01*
X0027400Y0112152D01*
X0027400Y0108175D01*
X0030212Y0105363D01*
X0029073Y0106502D02*
X0025327Y0106502D01*
X0027000Y0108901D02*
X0027400Y0108901D01*
X0027400Y0111299D02*
X0027000Y0111299D01*
X0025454Y0113698D02*
X0028946Y0113698D01*
X0030212Y0115363D02*
X0027400Y0118175D01*
X0027400Y0122152D01*
X0030212Y0124963D01*
X0034188Y0124963D01*
X0037000Y0122152D01*
X0037000Y0118175D01*
X0034188Y0115363D01*
X0030212Y0115363D01*
X0029479Y0116096D02*
X0024921Y0116096D01*
X0027000Y0118495D02*
X0027400Y0118495D01*
X0027400Y0120893D02*
X0027000Y0120893D01*
X0025860Y0123292D02*
X0028540Y0123292D01*
X0029885Y0125690D02*
X0024515Y0125690D01*
X0026914Y0128089D02*
X0027486Y0128089D01*
X0027400Y0130487D02*
X0027000Y0130487D01*
X0026266Y0132886D02*
X0028134Y0132886D01*
X0024188Y0135363D02*
X0027000Y0138175D01*
X0027000Y0142152D01*
X0024188Y0144963D01*
X0020212Y0144963D01*
X0017400Y0142152D01*
X0017400Y0138175D01*
X0020212Y0135363D01*
X0024188Y0135363D01*
X0026508Y0137683D02*
X0027326Y0137683D01*
X0027000Y0140082D02*
X0027000Y0140082D01*
X0027163Y0142480D02*
X0026672Y0142480D01*
X0024273Y0144879D02*
X0029561Y0144879D01*
X0027732Y0147277D02*
X0026668Y0147277D01*
X0022200Y0147277D02*
X0022200Y0147277D01*
X0022200Y0149676D02*
X0022200Y0149676D01*
X0022200Y0150164D02*
X0022200Y0150164D01*
X0022200Y0152074D02*
X0022200Y0152074D01*
X0022200Y0154473D02*
X0022200Y0154473D01*
X0019155Y0154473D02*
X0012274Y0154473D01*
X0012274Y0156871D02*
X0018704Y0156871D01*
X0017400Y0159270D02*
X0012274Y0159270D01*
X0012274Y0161668D02*
X0017400Y0161668D01*
X0019315Y0164067D02*
X0012274Y0164067D01*
X0012274Y0166465D02*
X0019110Y0166465D01*
X0017400Y0168864D02*
X0012274Y0168864D01*
X0012274Y0171262D02*
X0017400Y0171262D01*
X0018909Y0173661D02*
X0012274Y0173661D01*
X0012274Y0176059D02*
X0019516Y0176059D01*
X0017400Y0178458D02*
X0012274Y0178458D01*
X0012274Y0180856D02*
X0017400Y0180856D01*
X0018503Y0183255D02*
X0012274Y0183255D01*
X0012274Y0185653D02*
X0019922Y0185653D01*
X0020212Y0185363D02*
X0024188Y0185363D01*
X0027000Y0188175D01*
X0027000Y0192152D01*
X0024188Y0194963D01*
X0020212Y0194963D01*
X0017400Y0192152D01*
X0017400Y0188175D01*
X0020212Y0185363D01*
X0017523Y0188052D02*
X0012274Y0188052D01*
X0012274Y0190450D02*
X0017400Y0190450D01*
X0018097Y0192849D02*
X0012274Y0192849D01*
X0012274Y0195247D02*
X0055041Y0195247D01*
X0058200Y0194163D02*
X0096200Y0194163D01*
X0096200Y0205163D01*
X0099200Y0208163D01*
X0137200Y0208163D01*
X0165200Y0208163D01*
X0168200Y0205163D01*
X0168200Y0181510D01*
X0165200Y0185189D02*
X0164235Y0184224D01*
X0164235Y0179895D01*
X0164000Y0179660D01*
X0164000Y0176666D01*
X0164235Y0176432D01*
X0164235Y0175763D01*
X0154664Y0175763D01*
X0154229Y0176199D01*
X0152912Y0176744D01*
X0151488Y0176744D01*
X0150171Y0176199D01*
X0149164Y0175192D01*
X0148619Y0173876D01*
X0148619Y0172451D01*
X0149164Y0171135D01*
X0149536Y0170763D01*
X0147211Y0170763D01*
X0147283Y0170836D01*
X0147828Y0172152D01*
X0147828Y0173577D01*
X0147283Y0174893D01*
X0147119Y0175057D01*
X0147512Y0175449D01*
X0147512Y0180877D01*
X0146457Y0181932D01*
X0145946Y0181932D01*
X0145946Y0182294D01*
X0145581Y0183176D01*
X0144235Y0184523D01*
X0143559Y0185198D01*
X0142677Y0185563D01*
X0140194Y0185563D01*
X0139600Y0186157D01*
X0139600Y0205163D01*
X0163957Y0205163D01*
X0165200Y0203921D01*
X0165200Y0185189D01*
X0165200Y0185653D02*
X0140104Y0185653D01*
X0139600Y0188052D02*
X0165200Y0188052D01*
X0165200Y0190450D02*
X0139600Y0190450D01*
X0139600Y0192849D02*
X0165200Y0192849D01*
X0165200Y0195247D02*
X0139600Y0195247D01*
X0139600Y0197646D02*
X0165200Y0197646D01*
X0165200Y0200044D02*
X0139600Y0200044D01*
X0139600Y0202443D02*
X0165200Y0202443D01*
X0164279Y0204841D02*
X0139600Y0204841D01*
X0134800Y0204841D02*
X0100121Y0204841D01*
X0100443Y0205163D02*
X0134800Y0205163D01*
X0134800Y0184686D01*
X0135165Y0183804D01*
X0135841Y0183129D01*
X0136637Y0182332D01*
X0134399Y0182332D01*
X0133839Y0182182D01*
X0133337Y0181892D01*
X0132928Y0181483D01*
X0132638Y0180981D01*
X0132488Y0180422D01*
X0132488Y0178163D01*
X0132488Y0175905D01*
X0132638Y0175346D01*
X0132928Y0174844D01*
X0133337Y0174434D01*
X0133839Y0174145D01*
X0134399Y0173995D01*
X0136853Y0173995D01*
X0136853Y0178163D01*
X0132488Y0178163D01*
X0136853Y0178163D01*
X0136853Y0178163D01*
X0136854Y0178163D01*
X0136854Y0173995D01*
X0138671Y0173995D01*
X0138703Y0173963D01*
X0140826Y0173963D01*
X0140666Y0173577D01*
X0140666Y0172370D01*
X0139717Y0172763D01*
X0113315Y0172763D01*
X0113315Y0173074D01*
X0112261Y0174129D01*
X0106832Y0174129D01*
X0106200Y0173496D01*
X0105568Y0174129D01*
X0100139Y0174129D01*
X0099085Y0173074D01*
X0099085Y0172763D01*
X0088664Y0172763D01*
X0088229Y0173199D01*
X0086912Y0173744D01*
X0085488Y0173744D01*
X0084171Y0173199D01*
X0083164Y0172192D01*
X0082619Y0170876D01*
X0082619Y0169451D01*
X0083164Y0168135D01*
X0084171Y0167127D01*
X0085488Y0166582D01*
X0086912Y0166582D01*
X0088229Y0167127D01*
X0088664Y0167563D01*
X0093050Y0167563D01*
X0092171Y0167199D01*
X0091536Y0166563D01*
X0071500Y0166563D01*
X0071500Y0172116D01*
X0070153Y0173463D01*
X0058200Y0173463D01*
X0058200Y0189921D01*
X0059443Y0191163D01*
X0094136Y0191163D01*
X0094171Y0191127D01*
X0095488Y0190582D01*
X0096912Y0190582D01*
X0098229Y0191127D01*
X0099236Y0192135D01*
X0099781Y0193451D01*
X0099781Y0194876D01*
X0099236Y0196192D01*
X0099200Y0196228D01*
X0099200Y0203921D01*
X0100443Y0205163D01*
X0099200Y0202443D02*
X0134800Y0202443D01*
X0134800Y0200044D02*
X0099200Y0200044D01*
X0099200Y0197646D02*
X0134800Y0197646D01*
X0134800Y0195247D02*
X0099627Y0195247D01*
X0099532Y0192849D02*
X0134800Y0192849D01*
X0134800Y0190450D02*
X0058730Y0190450D01*
X0058200Y0188052D02*
X0067106Y0188052D01*
X0067164Y0188192D02*
X0066619Y0186876D01*
X0066619Y0185451D01*
X0067164Y0184135D01*
X0068171Y0183127D01*
X0069488Y0182582D01*
X0070619Y0182582D01*
X0070619Y0181451D01*
X0071164Y0180135D01*
X0072171Y0179127D01*
X0073488Y0178582D01*
X0074619Y0178582D01*
X0074619Y0177451D01*
X0075164Y0176135D01*
X0076171Y0175127D01*
X0077488Y0174582D01*
X0078912Y0174582D01*
X0080229Y0175127D01*
X0081236Y0176135D01*
X0081496Y0176763D01*
X0105536Y0176763D01*
X0106171Y0176127D01*
X0107488Y0175582D01*
X0108912Y0175582D01*
X0110229Y0176127D01*
X0111236Y0177135D01*
X0111781Y0178451D01*
X0111781Y0179876D01*
X0111560Y0180409D01*
X0112619Y0179350D01*
X0112619Y0178451D01*
X0113164Y0177135D01*
X0114171Y0176127D01*
X0115488Y0175582D01*
X0116912Y0175582D01*
X0118229Y0176127D01*
X0119236Y0177135D01*
X0119781Y0178451D01*
X0119781Y0179876D01*
X0119236Y0181192D01*
X0118229Y0182199D01*
X0116912Y0182744D01*
X0116013Y0182744D01*
X0114994Y0183763D01*
X0121736Y0183763D01*
X0121164Y0183192D01*
X0120619Y0181876D01*
X0120619Y0180451D01*
X0121164Y0179135D01*
X0122171Y0178127D01*
X0123488Y0177582D01*
X0124912Y0177582D01*
X0126229Y0178127D01*
X0127236Y0179135D01*
X0127781Y0180451D01*
X0127781Y0181876D01*
X0127236Y0183192D01*
X0126600Y0183828D01*
X0126600Y0185641D01*
X0126235Y0186523D01*
X0125235Y0187523D01*
X0124559Y0188198D01*
X0123677Y0188563D01*
X0072864Y0188563D01*
X0072229Y0189199D01*
X0070912Y0189744D01*
X0069488Y0189744D01*
X0068171Y0189199D01*
X0067164Y0188192D01*
X0066619Y0185653D02*
X0058200Y0185653D01*
X0058200Y0183255D02*
X0068044Y0183255D01*
X0070865Y0180856D02*
X0058200Y0180856D01*
X0058200Y0178458D02*
X0074619Y0178458D01*
X0075240Y0176059D02*
X0058200Y0176059D01*
X0058200Y0173661D02*
X0085285Y0173661D01*
X0087115Y0173661D02*
X0099671Y0173661D01*
X0099085Y0167563D02*
X0095349Y0167563D01*
X0096229Y0167199D01*
X0097236Y0166192D01*
X0097781Y0164876D01*
X0097781Y0163451D01*
X0097236Y0162135D01*
X0096229Y0161127D01*
X0094912Y0160582D01*
X0093488Y0160582D01*
X0092171Y0161127D01*
X0091536Y0161763D01*
X0071500Y0161763D01*
X0071500Y0158697D01*
X0071808Y0158875D01*
X0072367Y0159025D01*
X0075825Y0159025D01*
X0075825Y0154050D01*
X0076575Y0154050D01*
X0081943Y0154050D01*
X0081943Y0157114D01*
X0081793Y0157674D01*
X0081504Y0158176D01*
X0081094Y0158585D01*
X0080592Y0158875D01*
X0080033Y0159025D01*
X0076575Y0159025D01*
X0076575Y0154050D01*
X0076575Y0153300D01*
X0076575Y0148326D01*
X0080033Y0148326D01*
X0080592Y0148476D01*
X0081094Y0148765D01*
X0081504Y0149175D01*
X0081793Y0149676D01*
X0105488Y0149676D01*
X0105488Y0149563D02*
X0083723Y0149563D01*
X0082841Y0149198D01*
X0082165Y0148523D01*
X0081165Y0147523D01*
X0080990Y0147100D01*
X0080489Y0147601D01*
X0071911Y0147601D01*
X0071500Y0147190D01*
X0071500Y0148653D01*
X0071808Y0148476D01*
X0072367Y0148326D01*
X0075825Y0148326D01*
X0075825Y0153300D01*
X0076575Y0153300D01*
X0081943Y0153300D01*
X0081943Y0150236D01*
X0081793Y0149676D01*
X0081943Y0152074D02*
X0105488Y0152074D01*
X0105488Y0151163D02*
X0105488Y0153422D01*
X0105638Y0153981D01*
X0105928Y0154483D01*
X0106337Y0154892D01*
X0106839Y0155182D01*
X0107399Y0155332D01*
X0109853Y0155332D01*
X0109853Y0151164D01*
X0109854Y0151164D01*
X0109854Y0155332D01*
X0112309Y0155332D01*
X0112868Y0155182D01*
X0113370Y0154892D01*
X0113483Y0154779D01*
X0113636Y0154932D01*
X0118900Y0154932D01*
X0118900Y0156399D01*
X0118164Y0157135D01*
X0117619Y0158451D01*
X0117619Y0159876D01*
X0118164Y0161192D01*
X0119171Y0162199D01*
X0119446Y0162313D01*
X0118283Y0162794D01*
X0117331Y0163746D01*
X0116816Y0164990D01*
X0116816Y0166337D01*
X0117324Y0167563D01*
X0113315Y0167563D01*
X0113315Y0167252D01*
X0112261Y0166198D01*
X0107932Y0166198D01*
X0107697Y0165963D01*
X0104703Y0165963D01*
X0104468Y0166198D01*
X0100139Y0166198D01*
X0099085Y0167252D01*
X0099085Y0167563D01*
X0099872Y0166465D02*
X0096963Y0166465D01*
X0097781Y0164067D02*
X0117198Y0164067D01*
X0116869Y0166465D02*
X0112528Y0166465D01*
X0118640Y0161668D02*
X0096769Y0161668D01*
X0091631Y0161668D02*
X0071500Y0161668D01*
X0071500Y0159270D02*
X0117619Y0159270D01*
X0118428Y0156871D02*
X0081943Y0156871D01*
X0081943Y0154473D02*
X0105922Y0154473D01*
X0109853Y0154473D02*
X0109854Y0154473D01*
X0109853Y0152074D02*
X0109854Y0152074D01*
X0109853Y0151163D02*
X0109853Y0151163D01*
X0105488Y0151163D01*
X0105488Y0149563D01*
X0105488Y0151163D02*
X0109853Y0151163D01*
X0113302Y0144879D02*
X0131800Y0144879D01*
X0131800Y0147277D02*
X0116054Y0147277D01*
X0116491Y0142480D02*
X0084911Y0142480D01*
X0082447Y0140082D02*
X0115888Y0140082D01*
X0126253Y0149676D02*
X0131800Y0149676D01*
X0131800Y0152074D02*
X0126781Y0152074D01*
X0125455Y0154473D02*
X0131800Y0154473D01*
X0131800Y0156871D02*
X0123972Y0156871D01*
X0124781Y0159270D02*
X0131800Y0159270D01*
X0131800Y0161668D02*
X0123760Y0161668D01*
X0136600Y0154473D02*
X0165638Y0154473D01*
X0165900Y0152074D02*
X0136600Y0152074D01*
X0136600Y0149676D02*
X0165900Y0149676D01*
X0164249Y0147277D02*
X0136600Y0147277D01*
X0136600Y0144879D02*
X0163619Y0144879D01*
X0164819Y0142480D02*
X0136600Y0142480D01*
X0136350Y0140082D02*
X0168000Y0140082D01*
X0168000Y0137683D02*
X0134114Y0137683D01*
X0131800Y0142480D02*
X0129909Y0142480D01*
X0103854Y0125690D02*
X0103853Y0125690D01*
X0103853Y0123292D02*
X0103854Y0123292D01*
X0103853Y0120893D02*
X0103854Y0120893D01*
X0103853Y0118495D02*
X0103854Y0118495D01*
X0100277Y0118495D02*
X0084800Y0118495D01*
X0084800Y0120893D02*
X0099685Y0120893D01*
X0099685Y0123292D02*
X0084800Y0123292D01*
X0084800Y0125690D02*
X0100135Y0125690D01*
X0112488Y0116096D02*
X0084800Y0116096D01*
X0084800Y0113698D02*
X0112488Y0113698D01*
X0112310Y0111299D02*
X0096487Y0111299D01*
X0092913Y0111299D02*
X0085241Y0111299D01*
X0082684Y0106502D02*
X0069250Y0106502D01*
X0069250Y0108901D02*
X0080286Y0108901D01*
X0079600Y0111299D02*
X0073639Y0111299D01*
X0074061Y0113698D02*
X0079600Y0113698D01*
X0079600Y0116096D02*
X0069087Y0116096D01*
X0068337Y0116096D02*
X0062638Y0116096D01*
X0063362Y0116538D02*
X0068337Y0116538D01*
X0068337Y0121907D01*
X0065273Y0121907D01*
X0064713Y0121757D01*
X0064211Y0121467D01*
X0063802Y0121058D01*
X0063512Y0120556D01*
X0063362Y0119996D01*
X0063362Y0116538D01*
X0063362Y0118495D02*
X0062638Y0118495D01*
X0062197Y0120893D02*
X0063707Y0120893D01*
X0068337Y0120893D02*
X0069087Y0120893D01*
X0069087Y0118495D02*
X0068337Y0118495D01*
X0068337Y0113698D02*
X0069087Y0113698D01*
X0069087Y0111299D02*
X0068337Y0111299D01*
X0063784Y0111299D02*
X0062063Y0111299D01*
X0062638Y0113698D02*
X0063362Y0113698D01*
X0057688Y0116163D02*
X0055200Y0116163D01*
X0054200Y0117163D01*
X0054200Y0119163D01*
X0054200Y0117163D02*
X0054200Y0106163D01*
X0058813Y0104104D02*
X0059150Y0104104D01*
X0059612Y0101705D02*
X0056634Y0101705D01*
X0051766Y0101705D02*
X0046634Y0101705D01*
X0048813Y0104104D02*
X0049587Y0104104D01*
X0049868Y0108901D02*
X0048532Y0108901D01*
X0051200Y0111299D02*
X0037000Y0111299D01*
X0037000Y0108901D02*
X0039868Y0108901D01*
X0039150Y0106502D02*
X0035327Y0106502D01*
X0035048Y0104104D02*
X0039587Y0104104D01*
X0041766Y0101705D02*
X0037000Y0101705D01*
X0035454Y0113698D02*
X0051200Y0113698D01*
X0051200Y0116096D02*
X0034921Y0116096D01*
X0037000Y0118495D02*
X0050626Y0118495D01*
X0048227Y0120893D02*
X0037000Y0120893D01*
X0035860Y0123292D02*
X0045829Y0123292D01*
X0041900Y0125690D02*
X0034515Y0125690D01*
X0036914Y0128089D02*
X0041900Y0128089D01*
X0055200Y0129963D02*
X0055200Y0143163D01*
X0055712Y0142652D01*
X0076200Y0142652D01*
X0077492Y0137683D02*
X0071500Y0137683D01*
X0070574Y0135284D02*
X0079600Y0135284D01*
X0080813Y0147277D02*
X0081064Y0147277D01*
X0076575Y0149676D02*
X0075825Y0149676D01*
X0075825Y0152074D02*
X0076575Y0152074D01*
X0076575Y0154473D02*
X0075825Y0154473D01*
X0075825Y0156871D02*
X0076575Y0156871D01*
X0071587Y0147277D02*
X0071500Y0147277D01*
X0059700Y0132886D02*
X0059400Y0132886D01*
X0059400Y0130487D02*
X0059700Y0130487D01*
X0059700Y0128089D02*
X0059400Y0128089D01*
X0059400Y0125690D02*
X0059700Y0125690D01*
X0064300Y0125690D02*
X0064300Y0125690D01*
X0064300Y0128089D02*
X0064300Y0128089D01*
X0073717Y0120893D02*
X0079600Y0120893D01*
X0079600Y0118495D02*
X0074061Y0118495D01*
X0055200Y0143163D02*
X0055200Y0154364D01*
X0055200Y0164163D01*
X0055200Y0191163D01*
X0058200Y0194163D01*
X0052651Y0192849D02*
X0036303Y0192849D01*
X0037000Y0192152D02*
X0034188Y0194963D01*
X0030212Y0194963D01*
X0027400Y0192152D01*
X0027400Y0188175D01*
X0030212Y0185363D01*
X0034188Y0185363D01*
X0037000Y0188175D01*
X0037000Y0192152D01*
X0037000Y0190450D02*
X0052200Y0190450D01*
X0052200Y0188052D02*
X0036877Y0188052D01*
X0034478Y0185653D02*
X0052200Y0185653D01*
X0052200Y0183255D02*
X0035897Y0183255D01*
X0037000Y0180856D02*
X0052200Y0180856D01*
X0052200Y0178458D02*
X0037000Y0178458D01*
X0029922Y0185653D02*
X0024478Y0185653D01*
X0025897Y0183255D02*
X0028503Y0183255D01*
X0027400Y0180856D02*
X0027000Y0180856D01*
X0027000Y0178458D02*
X0027400Y0178458D01*
X0027523Y0188052D02*
X0026877Y0188052D01*
X0027000Y0190450D02*
X0027400Y0190450D01*
X0028097Y0192849D02*
X0026303Y0192849D01*
X0024188Y0195363D02*
X0027000Y0198175D01*
X0027000Y0202152D01*
X0024188Y0204963D01*
X0020212Y0204963D01*
X0017400Y0202152D01*
X0017400Y0198175D01*
X0020212Y0195363D01*
X0024188Y0195363D01*
X0026471Y0197646D02*
X0027929Y0197646D01*
X0027400Y0198175D02*
X0030212Y0195363D01*
X0034188Y0195363D01*
X0037000Y0198175D01*
X0037000Y0202152D01*
X0034188Y0204963D01*
X0030212Y0204963D01*
X0027400Y0202152D01*
X0027400Y0198175D01*
X0027400Y0200044D02*
X0027000Y0200044D01*
X0026709Y0202443D02*
X0027691Y0202443D01*
X0030090Y0204841D02*
X0024310Y0204841D01*
X0024188Y0205363D02*
X0027000Y0208175D01*
X0027000Y0212152D01*
X0024188Y0214963D01*
X0020212Y0214963D01*
X0017400Y0212152D01*
X0017400Y0208175D01*
X0020212Y0205363D01*
X0024188Y0205363D01*
X0026065Y0207240D02*
X0027770Y0207240D01*
X0027000Y0208009D02*
X0030046Y0204963D01*
X0032200Y0204963D01*
X0034354Y0204963D01*
X0037400Y0208009D01*
X0037400Y0210163D01*
X0032200Y0210163D01*
X0032200Y0204963D01*
X0032200Y0210163D01*
X0032200Y0210163D01*
X0032200Y0210163D01*
X0027000Y0210163D01*
X0027000Y0208009D01*
X0027000Y0209638D02*
X0027000Y0209638D01*
X0027000Y0210163D02*
X0032200Y0210163D01*
X0032200Y0210163D01*
X0037400Y0210163D01*
X0037400Y0212317D01*
X0034354Y0215363D01*
X0032200Y0215363D01*
X0030046Y0215363D01*
X0027000Y0212317D01*
X0027000Y0210163D01*
X0027000Y0212037D02*
X0027000Y0212037D01*
X0029118Y0214435D02*
X0024716Y0214435D01*
X0024188Y0215363D02*
X0027000Y0218175D01*
X0027000Y0222152D01*
X0024188Y0224963D01*
X0020212Y0224963D01*
X0017400Y0222152D01*
X0017400Y0218175D01*
X0020212Y0215363D01*
X0024188Y0215363D01*
X0025659Y0216834D02*
X0028741Y0216834D01*
X0027400Y0218175D02*
X0030212Y0215363D01*
X0034188Y0215363D01*
X0037000Y0218175D01*
X0037000Y0222152D01*
X0034188Y0224963D01*
X0030212Y0224963D01*
X0027400Y0222152D01*
X0027400Y0218175D01*
X0027400Y0219232D02*
X0027000Y0219232D01*
X0027000Y0221631D02*
X0027400Y0221631D01*
X0029278Y0224029D02*
X0025122Y0224029D01*
X0024188Y0225363D02*
X0027000Y0228175D01*
X0027000Y0232152D01*
X0024188Y0234963D01*
X0020212Y0234963D01*
X0017400Y0232152D01*
X0017400Y0228175D01*
X0020212Y0225363D01*
X0024188Y0225363D01*
X0025253Y0226428D02*
X0029147Y0226428D01*
X0030212Y0225363D02*
X0027400Y0228175D01*
X0027400Y0232152D01*
X0030212Y0234963D01*
X0034188Y0234963D01*
X0037000Y0232152D01*
X0037000Y0228175D01*
X0034188Y0225363D01*
X0030212Y0225363D01*
X0027400Y0228826D02*
X0027000Y0228826D01*
X0027000Y0231225D02*
X0027400Y0231225D01*
X0028872Y0233623D02*
X0025528Y0233623D01*
X0024188Y0235363D02*
X0027000Y0238175D01*
X0027000Y0242152D01*
X0024188Y0244963D01*
X0020212Y0244963D01*
X0017400Y0242152D01*
X0017400Y0238175D01*
X0020212Y0235363D01*
X0024188Y0235363D01*
X0024847Y0236022D02*
X0029553Y0236022D01*
X0030212Y0235363D02*
X0034188Y0235363D01*
X0037000Y0238175D01*
X0037000Y0242152D01*
X0034188Y0244963D01*
X0030212Y0244963D01*
X0027400Y0242152D01*
X0027400Y0238175D01*
X0030212Y0235363D01*
X0027400Y0238420D02*
X0027000Y0238420D01*
X0027000Y0240819D02*
X0027400Y0240819D01*
X0028466Y0243217D02*
X0025934Y0243217D01*
X0018466Y0243217D02*
X0012274Y0243217D01*
X0012274Y0240819D02*
X0017400Y0240819D01*
X0017400Y0238420D02*
X0012274Y0238420D01*
X0012274Y0236022D02*
X0019553Y0236022D01*
X0018872Y0233623D02*
X0012274Y0233623D01*
X0012274Y0231225D02*
X0017400Y0231225D01*
X0017400Y0228826D02*
X0012274Y0228826D01*
X0012274Y0226428D02*
X0019147Y0226428D01*
X0019278Y0224029D02*
X0012274Y0224029D01*
X0012274Y0221631D02*
X0017400Y0221631D01*
X0017400Y0219232D02*
X0012274Y0219232D01*
X0012274Y0216834D02*
X0018741Y0216834D01*
X0019684Y0214435D02*
X0012274Y0214435D01*
X0012274Y0212037D02*
X0017400Y0212037D01*
X0017400Y0209638D02*
X0012274Y0209638D01*
X0012274Y0207240D02*
X0018335Y0207240D01*
X0020090Y0204841D02*
X0012274Y0204841D01*
X0012274Y0202443D02*
X0017691Y0202443D01*
X0017400Y0200044D02*
X0012274Y0200044D01*
X0012274Y0197646D02*
X0017929Y0197646D01*
X0032200Y0207240D02*
X0032200Y0207240D01*
X0032200Y0209638D02*
X0032200Y0209638D01*
X0032200Y0210164D02*
X0032200Y0215363D01*
X0032200Y0210164D01*
X0032200Y0210164D01*
X0032200Y0212037D02*
X0032200Y0212037D01*
X0032200Y0214435D02*
X0032200Y0214435D01*
X0035282Y0214435D02*
X0259684Y0214435D01*
X0260212Y0214963D02*
X0257400Y0212152D01*
X0257400Y0208175D01*
X0260212Y0205363D01*
X0264188Y0205363D01*
X0267000Y0208175D01*
X0267000Y0212152D01*
X0264188Y0214963D01*
X0260212Y0214963D01*
X0260212Y0215363D02*
X0264188Y0215363D01*
X0267000Y0218175D01*
X0267000Y0222152D01*
X0264188Y0224963D01*
X0260212Y0224963D01*
X0257400Y0222152D01*
X0257400Y0218175D01*
X0260212Y0215363D01*
X0258741Y0216834D02*
X0035659Y0216834D01*
X0037000Y0219232D02*
X0257400Y0219232D01*
X0257400Y0221631D02*
X0037000Y0221631D01*
X0035122Y0224029D02*
X0259278Y0224029D01*
X0260212Y0225363D02*
X0264188Y0225363D01*
X0267000Y0228175D01*
X0267000Y0232152D01*
X0264188Y0234963D01*
X0260212Y0234963D01*
X0257400Y0232152D01*
X0257400Y0228175D01*
X0260212Y0225363D01*
X0259147Y0226428D02*
X0035253Y0226428D01*
X0037000Y0228826D02*
X0257400Y0228826D01*
X0257400Y0231225D02*
X0037000Y0231225D01*
X0035528Y0233623D02*
X0258872Y0233623D01*
X0260212Y0235363D02*
X0264188Y0235363D01*
X0267000Y0238175D01*
X0267000Y0242152D01*
X0264188Y0244963D01*
X0260212Y0244963D01*
X0257400Y0242152D01*
X0257400Y0238175D01*
X0260212Y0235363D01*
X0259553Y0236022D02*
X0034847Y0236022D01*
X0037000Y0238420D02*
X0257400Y0238420D01*
X0257400Y0240819D02*
X0037000Y0240819D01*
X0035934Y0243217D02*
X0117184Y0243217D01*
X0116929Y0245616D02*
X0012274Y0245616D01*
X0012274Y0248015D02*
X0047329Y0248015D01*
X0047386Y0247958D02*
X0050509Y0246664D01*
X0053891Y0246664D01*
X0057014Y0247958D01*
X0059405Y0250349D01*
X0060699Y0253473D01*
X0060699Y0256854D01*
X0059405Y0259978D01*
X0057014Y0262369D01*
X0053891Y0263663D01*
X0050509Y0263663D01*
X0047386Y0262369D01*
X0044995Y0259978D01*
X0043701Y0256854D01*
X0043701Y0253473D01*
X0044995Y0250349D01*
X0047386Y0247958D01*
X0044968Y0250413D02*
X0012274Y0250413D01*
X0012274Y0252812D02*
X0043975Y0252812D01*
X0043701Y0255210D02*
X0012274Y0255210D01*
X0012274Y0257609D02*
X0044013Y0257609D01*
X0045024Y0260007D02*
X0012274Y0260007D01*
X0012274Y0262406D02*
X0047475Y0262406D01*
X0056925Y0262406D02*
X0116929Y0262406D01*
X0116929Y0264804D02*
X0012274Y0264804D01*
X0057071Y0248015D02*
X0116929Y0248015D01*
X0116929Y0250413D02*
X0059432Y0250413D01*
X0060425Y0252812D02*
X0116929Y0252812D01*
X0116929Y0255210D02*
X0060699Y0255210D01*
X0060387Y0257609D02*
X0116929Y0257609D01*
X0116929Y0260007D02*
X0059376Y0260007D01*
X0037400Y0212037D02*
X0257400Y0212037D01*
X0257400Y0209638D02*
X0167968Y0209638D01*
X0170366Y0207240D02*
X0258335Y0207240D01*
X0260046Y0205363D02*
X0257000Y0202317D01*
X0257000Y0200163D01*
X0257000Y0198009D01*
X0260046Y0194963D01*
X0262200Y0194963D01*
X0264354Y0194963D01*
X0267400Y0198009D01*
X0267400Y0200163D01*
X0262200Y0200163D01*
X0262200Y0194963D01*
X0262200Y0200163D01*
X0262200Y0200163D01*
X0262200Y0200163D01*
X0257000Y0200163D01*
X0262200Y0200163D01*
X0262200Y0200163D01*
X0267400Y0200163D01*
X0267400Y0202317D01*
X0264354Y0205363D01*
X0262200Y0205363D01*
X0260046Y0205363D01*
X0259524Y0204841D02*
X0171200Y0204841D01*
X0171200Y0202443D02*
X0257126Y0202443D01*
X0257000Y0200044D02*
X0171200Y0200044D01*
X0171200Y0197646D02*
X0257364Y0197646D01*
X0259762Y0195247D02*
X0171200Y0195247D01*
X0171200Y0192849D02*
X0258097Y0192849D01*
X0257400Y0192152D02*
X0257400Y0188175D01*
X0260212Y0185363D01*
X0264188Y0185363D01*
X0267000Y0188175D01*
X0267000Y0192152D01*
X0264188Y0194963D01*
X0260212Y0194963D01*
X0257400Y0192152D01*
X0257400Y0190450D02*
X0171200Y0190450D01*
X0171200Y0188052D02*
X0257523Y0188052D01*
X0259922Y0185653D02*
X0171200Y0185653D01*
X0164235Y0183255D02*
X0145503Y0183255D01*
X0147512Y0180856D02*
X0164235Y0180856D01*
X0164000Y0178458D02*
X0147512Y0178458D01*
X0147512Y0176059D02*
X0150031Y0176059D01*
X0148619Y0173661D02*
X0147793Y0173661D01*
X0147460Y0171262D02*
X0149111Y0171262D01*
X0154369Y0176059D02*
X0164235Y0176059D01*
X0176912Y0168864D02*
X0237600Y0168864D01*
X0237600Y0166465D02*
X0176912Y0166465D01*
X0197691Y0164067D02*
X0237600Y0164067D01*
X0237600Y0161668D02*
X0200089Y0161668D01*
X0200600Y0159270D02*
X0237600Y0159270D01*
X0237600Y0156871D02*
X0200600Y0156871D01*
X0200600Y0154473D02*
X0237600Y0154473D01*
X0237600Y0152074D02*
X0200600Y0152074D01*
X0200600Y0149676D02*
X0237600Y0149676D01*
X0237600Y0147277D02*
X0201151Y0147277D01*
X0202727Y0144879D02*
X0237600Y0144879D01*
X0237600Y0142480D02*
X0204200Y0142480D01*
X0204200Y0140082D02*
X0237600Y0140082D01*
X0237600Y0137683D02*
X0204200Y0137683D01*
X0204200Y0135284D02*
X0237600Y0135284D01*
X0237600Y0132886D02*
X0204200Y0132886D01*
X0204200Y0130487D02*
X0237600Y0130487D01*
X0237600Y0128089D02*
X0204200Y0128089D01*
X0204200Y0125690D02*
X0237600Y0125690D01*
X0237600Y0123292D02*
X0204200Y0123292D01*
X0204200Y0120893D02*
X0237600Y0120893D01*
X0237600Y0118495D02*
X0204200Y0118495D01*
X0204200Y0116096D02*
X0237600Y0116096D01*
X0237600Y0113698D02*
X0204200Y0113698D01*
X0204200Y0111299D02*
X0237600Y0111299D01*
X0237600Y0108901D02*
X0204200Y0108901D01*
X0204200Y0106502D02*
X0237600Y0106502D01*
X0237600Y0104104D02*
X0204200Y0104104D01*
X0204200Y0101705D02*
X0237600Y0101705D01*
X0237600Y0099307D02*
X0202586Y0099307D01*
X0200556Y0096908D02*
X0237600Y0096908D01*
X0264642Y0094510D02*
X0269758Y0094510D01*
X0268667Y0096908D02*
X0265733Y0096908D01*
X0267000Y0099307D02*
X0267400Y0099307D01*
X0267400Y0101705D02*
X0267000Y0101705D01*
X0265048Y0104104D02*
X0269352Y0104104D01*
X0269073Y0106502D02*
X0265327Y0106502D01*
X0267000Y0108901D02*
X0267400Y0108901D01*
X0267400Y0111299D02*
X0267000Y0111299D01*
X0265454Y0113698D02*
X0268946Y0113698D01*
X0269479Y0116096D02*
X0264921Y0116096D01*
X0267000Y0118495D02*
X0267400Y0118495D01*
X0267400Y0120893D02*
X0267000Y0120893D01*
X0265860Y0123292D02*
X0268540Y0123292D01*
X0269885Y0125690D02*
X0264515Y0125690D01*
X0266914Y0128089D02*
X0267486Y0128089D01*
X0267400Y0130487D02*
X0267000Y0130487D01*
X0266266Y0132886D02*
X0268134Y0132886D01*
X0270212Y0135363D02*
X0274188Y0135363D01*
X0277000Y0138175D01*
X0277000Y0142152D01*
X0274188Y0144963D01*
X0270212Y0144963D01*
X0267400Y0142152D01*
X0267400Y0138175D01*
X0270212Y0135363D01*
X0267892Y0137683D02*
X0266508Y0137683D01*
X0267000Y0138175D02*
X0264188Y0135363D01*
X0260212Y0135363D01*
X0257400Y0138175D01*
X0257400Y0142152D01*
X0260212Y0144963D01*
X0264188Y0144963D01*
X0267000Y0142152D01*
X0267000Y0138175D01*
X0267000Y0140082D02*
X0267400Y0140082D01*
X0267728Y0142480D02*
X0266672Y0142480D01*
X0264273Y0144879D02*
X0270127Y0144879D01*
X0270046Y0144963D02*
X0267000Y0148009D01*
X0267000Y0150163D01*
X0272200Y0150163D01*
X0272200Y0144963D01*
X0274354Y0144963D01*
X0277400Y0148009D01*
X0277400Y0150163D01*
X0272200Y0150163D01*
X0272200Y0150163D01*
X0272200Y0144963D01*
X0270046Y0144963D01*
X0272200Y0147277D02*
X0272200Y0147277D01*
X0272200Y0149676D02*
X0272200Y0149676D01*
X0272200Y0150163D02*
X0272200Y0150163D01*
X0272200Y0150163D01*
X0267000Y0150163D01*
X0267000Y0152317D01*
X0270046Y0155363D01*
X0272200Y0155363D01*
X0272200Y0150164D01*
X0272200Y0155363D01*
X0274354Y0155363D01*
X0277400Y0152317D01*
X0277400Y0150163D01*
X0272200Y0150163D01*
X0272200Y0150164D02*
X0272200Y0150164D01*
X0272200Y0152074D02*
X0272200Y0152074D01*
X0272200Y0154473D02*
X0272200Y0154473D01*
X0270212Y0155363D02*
X0274188Y0155363D01*
X0277000Y0158175D01*
X0277000Y0162152D01*
X0274188Y0164963D01*
X0270212Y0164963D01*
X0267400Y0162152D01*
X0267400Y0158175D01*
X0270212Y0155363D01*
X0269155Y0154473D02*
X0264679Y0154473D01*
X0264188Y0154963D02*
X0260212Y0154963D01*
X0257400Y0152152D01*
X0257400Y0148175D01*
X0260212Y0145363D01*
X0264188Y0145363D01*
X0267000Y0148175D01*
X0267000Y0152152D01*
X0264188Y0154963D01*
X0265696Y0156871D02*
X0268704Y0156871D01*
X0267400Y0159270D02*
X0267000Y0159270D01*
X0267000Y0161668D02*
X0267400Y0161668D01*
X0269315Y0164067D02*
X0265085Y0164067D01*
X0265290Y0166465D02*
X0269110Y0166465D01*
X0270212Y0165363D02*
X0267400Y0168175D01*
X0267400Y0172152D01*
X0270212Y0174963D01*
X0274188Y0174963D01*
X0277000Y0172152D01*
X0277000Y0168175D01*
X0274188Y0165363D01*
X0270212Y0165363D01*
X0267400Y0168864D02*
X0267000Y0168864D01*
X0267000Y0171262D02*
X0267400Y0171262D01*
X0268909Y0173661D02*
X0265491Y0173661D01*
X0264188Y0175363D02*
X0267000Y0178175D01*
X0267000Y0182152D01*
X0264188Y0184963D01*
X0260212Y0184963D01*
X0257400Y0182152D01*
X0257400Y0178175D01*
X0260212Y0175363D01*
X0264188Y0175363D01*
X0264884Y0176059D02*
X0269516Y0176059D01*
X0270212Y0175363D02*
X0267400Y0178175D01*
X0267400Y0182152D01*
X0270212Y0184963D01*
X0274188Y0184963D01*
X0277000Y0182152D01*
X0277000Y0178175D01*
X0274188Y0175363D01*
X0270212Y0175363D01*
X0274884Y0176059D02*
X0283465Y0176059D01*
X0283465Y0173661D02*
X0275491Y0173661D01*
X0277000Y0171262D02*
X0283465Y0171262D01*
X0283465Y0168864D02*
X0277000Y0168864D01*
X0275290Y0166465D02*
X0283465Y0166465D01*
X0283465Y0164067D02*
X0275085Y0164067D01*
X0277000Y0161668D02*
X0283465Y0161668D01*
X0283465Y0159270D02*
X0277000Y0159270D01*
X0275696Y0156871D02*
X0283465Y0156871D01*
X0283465Y0154473D02*
X0275245Y0154473D01*
X0277400Y0152074D02*
X0283465Y0152074D01*
X0283465Y0149676D02*
X0277400Y0149676D01*
X0276668Y0147277D02*
X0283465Y0147277D01*
X0283465Y0144879D02*
X0274273Y0144879D01*
X0276672Y0142480D02*
X0283465Y0142480D01*
X0283465Y0140082D02*
X0277000Y0140082D01*
X0276508Y0137683D02*
X0283465Y0137683D01*
X0267732Y0147277D02*
X0266102Y0147277D01*
X0267000Y0149676D02*
X0267000Y0149676D01*
X0267000Y0152074D02*
X0267000Y0152074D01*
X0259721Y0154473D02*
X0247800Y0154473D01*
X0247800Y0156871D02*
X0258704Y0156871D01*
X0257400Y0159270D02*
X0247800Y0159270D01*
X0248457Y0161668D02*
X0257400Y0161668D01*
X0259315Y0164067D02*
X0253082Y0164067D01*
X0249318Y0164067D02*
X0248702Y0164067D01*
X0248028Y0168864D02*
X0247800Y0168864D01*
X0247800Y0171262D02*
X0257400Y0171262D01*
X0258909Y0173661D02*
X0247800Y0173661D01*
X0246981Y0176059D02*
X0259516Y0176059D01*
X0257400Y0178458D02*
X0244626Y0178458D01*
X0243315Y0180856D02*
X0257400Y0180856D01*
X0258503Y0183255D02*
X0243135Y0183255D01*
X0262200Y0195247D02*
X0262200Y0195247D01*
X0262200Y0197646D02*
X0262200Y0197646D01*
X0262200Y0200044D02*
X0262200Y0200044D01*
X0262200Y0200164D02*
X0262200Y0205363D01*
X0262200Y0200164D01*
X0262200Y0200164D01*
X0262200Y0202443D02*
X0262200Y0202443D01*
X0262200Y0204841D02*
X0262200Y0204841D01*
X0264876Y0204841D02*
X0270090Y0204841D01*
X0270212Y0204963D02*
X0267400Y0202152D01*
X0267400Y0198175D01*
X0270212Y0195363D01*
X0274188Y0195363D01*
X0277000Y0198175D01*
X0277000Y0202152D01*
X0274188Y0204963D01*
X0270212Y0204963D01*
X0270212Y0205363D02*
X0274188Y0205363D01*
X0277000Y0208175D01*
X0277000Y0212152D01*
X0274188Y0214963D01*
X0270212Y0214963D01*
X0267400Y0212152D01*
X0267400Y0208175D01*
X0270212Y0205363D01*
X0268335Y0207240D02*
X0266065Y0207240D01*
X0267000Y0209638D02*
X0267400Y0209638D01*
X0267400Y0212037D02*
X0267000Y0212037D01*
X0264716Y0214435D02*
X0269684Y0214435D01*
X0270212Y0215363D02*
X0267400Y0218175D01*
X0267400Y0222152D01*
X0270212Y0224963D01*
X0274188Y0224963D01*
X0277000Y0222152D01*
X0277000Y0218175D01*
X0274188Y0215363D01*
X0270212Y0215363D01*
X0268741Y0216834D02*
X0265659Y0216834D01*
X0267000Y0219232D02*
X0267400Y0219232D01*
X0267400Y0221631D02*
X0267000Y0221631D01*
X0265122Y0224029D02*
X0269278Y0224029D01*
X0270212Y0225363D02*
X0274188Y0225363D01*
X0277000Y0228175D01*
X0277000Y0232152D01*
X0274188Y0234963D01*
X0270212Y0234963D01*
X0267400Y0232152D01*
X0267400Y0228175D01*
X0270212Y0225363D01*
X0269147Y0226428D02*
X0265253Y0226428D01*
X0267000Y0228826D02*
X0267400Y0228826D01*
X0267400Y0231225D02*
X0267000Y0231225D01*
X0265528Y0233623D02*
X0268872Y0233623D01*
X0270212Y0235363D02*
X0274188Y0235363D01*
X0277000Y0238175D01*
X0277000Y0242152D01*
X0274188Y0244963D01*
X0270212Y0244963D01*
X0267400Y0242152D01*
X0267400Y0238175D01*
X0270212Y0235363D01*
X0269553Y0236022D02*
X0264847Y0236022D01*
X0267000Y0238420D02*
X0267400Y0238420D01*
X0267400Y0240819D02*
X0267000Y0240819D01*
X0265934Y0243217D02*
X0268466Y0243217D01*
X0274847Y0236022D02*
X0283465Y0236022D01*
X0283465Y0238420D02*
X0277000Y0238420D01*
X0277000Y0240819D02*
X0283465Y0240819D01*
X0283465Y0243217D02*
X0275934Y0243217D01*
X0283465Y0245616D02*
X0249516Y0245616D01*
X0249405Y0245349D02*
X0250699Y0248473D01*
X0250699Y0251854D01*
X0249405Y0254978D01*
X0247014Y0257369D01*
X0243891Y0258663D01*
X0240509Y0258663D01*
X0237386Y0257369D01*
X0234995Y0254978D01*
X0233701Y0251854D01*
X0233701Y0248473D01*
X0234995Y0245349D01*
X0237386Y0242958D01*
X0240509Y0241664D01*
X0243891Y0241664D01*
X0247014Y0242958D01*
X0249405Y0245349D01*
X0250509Y0248015D02*
X0283465Y0248015D01*
X0283465Y0250413D02*
X0250699Y0250413D01*
X0250303Y0252812D02*
X0283465Y0252812D01*
X0283465Y0255210D02*
X0249173Y0255210D01*
X0246435Y0257609D02*
X0283465Y0257609D01*
X0283465Y0260007D02*
X0207943Y0260007D01*
X0207943Y0257609D02*
X0237965Y0257609D01*
X0235227Y0255210D02*
X0207943Y0255210D01*
X0207943Y0252812D02*
X0234097Y0252812D01*
X0233701Y0250413D02*
X0207943Y0250413D01*
X0207943Y0248015D02*
X0233891Y0248015D01*
X0234884Y0245616D02*
X0207943Y0245616D01*
X0207688Y0243217D02*
X0237126Y0243217D01*
X0247274Y0243217D02*
X0258466Y0243217D01*
X0275528Y0233623D02*
X0283465Y0233623D01*
X0283465Y0231225D02*
X0277000Y0231225D01*
X0277000Y0228826D02*
X0283465Y0228826D01*
X0283465Y0226428D02*
X0275253Y0226428D01*
X0275122Y0224029D02*
X0283465Y0224029D01*
X0283465Y0221631D02*
X0277000Y0221631D01*
X0277000Y0219232D02*
X0283465Y0219232D01*
X0283465Y0216834D02*
X0275659Y0216834D01*
X0274716Y0214435D02*
X0283465Y0214435D01*
X0283465Y0212037D02*
X0277000Y0212037D01*
X0277000Y0209638D02*
X0283465Y0209638D01*
X0283465Y0207240D02*
X0276065Y0207240D01*
X0274310Y0204841D02*
X0283465Y0204841D01*
X0283465Y0202443D02*
X0276709Y0202443D01*
X0277000Y0200044D02*
X0283465Y0200044D01*
X0283465Y0197646D02*
X0276471Y0197646D01*
X0274188Y0194963D02*
X0270212Y0194963D01*
X0267400Y0192152D01*
X0267400Y0188175D01*
X0270212Y0185363D01*
X0274188Y0185363D01*
X0277000Y0188175D01*
X0277000Y0192152D01*
X0274188Y0194963D01*
X0276303Y0192849D02*
X0283465Y0192849D01*
X0283465Y0195247D02*
X0264638Y0195247D01*
X0266303Y0192849D02*
X0268097Y0192849D01*
X0267400Y0190450D02*
X0267000Y0190450D01*
X0266877Y0188052D02*
X0267523Y0188052D01*
X0269922Y0185653D02*
X0264478Y0185653D01*
X0265897Y0183255D02*
X0268503Y0183255D01*
X0267400Y0180856D02*
X0267000Y0180856D01*
X0267000Y0178458D02*
X0267400Y0178458D01*
X0274478Y0185653D02*
X0283465Y0185653D01*
X0283465Y0183255D02*
X0275897Y0183255D01*
X0277000Y0180856D02*
X0283465Y0180856D01*
X0283465Y0178458D02*
X0277000Y0178458D01*
X0276877Y0188052D02*
X0283465Y0188052D01*
X0283465Y0190450D02*
X0277000Y0190450D01*
X0267929Y0197646D02*
X0267036Y0197646D01*
X0267400Y0200044D02*
X0267400Y0200044D01*
X0267274Y0202443D02*
X0267691Y0202443D01*
X0257400Y0152074D02*
X0247800Y0152074D01*
X0247800Y0149676D02*
X0257400Y0149676D01*
X0258298Y0147277D02*
X0247800Y0147277D01*
X0247800Y0144879D02*
X0260127Y0144879D01*
X0257728Y0142480D02*
X0247800Y0142480D01*
X0247800Y0140082D02*
X0257400Y0140082D01*
X0257892Y0137683D02*
X0247800Y0137683D01*
X0201200Y0124163D02*
X0201200Y0102163D01*
X0197200Y0098163D01*
X0196200Y0098163D01*
X0197800Y0070525D02*
X0191584Y0070525D01*
X0191719Y0068126D02*
X0197800Y0068126D01*
X0197800Y0065728D02*
X0190230Y0065728D01*
X0197963Y0058532D02*
X0201906Y0058532D01*
X0200361Y0060931D02*
X0203493Y0060931D01*
X0212679Y0060931D02*
X0283465Y0060931D01*
X0283465Y0058532D02*
X0214266Y0058532D01*
X0214699Y0056134D02*
X0283465Y0056134D01*
X0283465Y0053735D02*
X0214235Y0053735D01*
X0212603Y0051337D02*
X0283465Y0051337D01*
X0283465Y0048938D02*
X0204528Y0048938D01*
X0203568Y0051337D02*
X0202186Y0051337D01*
X0205522Y0046540D02*
X0283465Y0046540D01*
X0283465Y0044141D02*
X0205798Y0044141D01*
X0205503Y0041743D02*
X0283465Y0041743D01*
X0283465Y0039344D02*
X0204510Y0039344D01*
X0202141Y0036946D02*
X0283465Y0036946D01*
X0283465Y0020156D02*
X0111445Y0020156D01*
X0092214Y0051337D02*
X0090832Y0051337D01*
X0092494Y0058532D02*
X0109800Y0058532D01*
X0109170Y0065728D02*
X0105230Y0065728D01*
X0106719Y0068126D02*
X0107681Y0068126D01*
X0107816Y0070525D02*
X0106584Y0070525D01*
X0099495Y0072923D02*
X0097600Y0072923D01*
X0097600Y0070525D02*
X0097816Y0070525D01*
X0097681Y0068126D02*
X0097600Y0068126D01*
X0097600Y0065728D02*
X0099170Y0065728D01*
X0092800Y0065728D02*
X0034552Y0065728D01*
X0034188Y0065363D02*
X0037000Y0068175D01*
X0037000Y0072152D01*
X0034188Y0074963D01*
X0030212Y0074963D01*
X0027400Y0072152D01*
X0027400Y0068175D01*
X0030212Y0065363D01*
X0034188Y0065363D01*
X0036951Y0068126D02*
X0092800Y0068126D01*
X0092800Y0070525D02*
X0037000Y0070525D01*
X0036228Y0072923D02*
X0092800Y0072923D01*
X0029848Y0065728D02*
X0024552Y0065728D01*
X0026951Y0068126D02*
X0027449Y0068126D01*
X0027400Y0070525D02*
X0027000Y0070525D01*
X0026228Y0072923D02*
X0028172Y0072923D01*
X0027855Y0077720D02*
X0026545Y0077720D01*
X0027000Y0080119D02*
X0027400Y0080119D01*
X0027766Y0082517D02*
X0026634Y0082517D01*
X0017892Y0137683D02*
X0012274Y0137683D01*
X0012274Y0140082D02*
X0017400Y0140082D01*
X0017728Y0142480D02*
X0012274Y0142480D01*
X0012274Y0144879D02*
X0020127Y0144879D01*
X0017732Y0147277D02*
X0012274Y0147277D01*
X0012274Y0149676D02*
X0017000Y0149676D01*
X0017000Y0152074D02*
X0012274Y0152074D01*
X0036471Y0197646D02*
X0093200Y0197646D01*
X0093200Y0200044D02*
X0037000Y0200044D01*
X0036709Y0202443D02*
X0093200Y0202443D01*
X0093200Y0204841D02*
X0034310Y0204841D01*
X0036630Y0207240D02*
X0094034Y0207240D01*
X0096432Y0209638D02*
X0037400Y0209638D01*
X0071500Y0171262D02*
X0082779Y0171262D01*
X0082862Y0168864D02*
X0071500Y0168864D01*
X0081160Y0176059D02*
X0106336Y0176059D01*
X0106364Y0173661D02*
X0106036Y0173661D01*
X0110064Y0176059D02*
X0114336Y0176059D01*
X0112729Y0173661D02*
X0140701Y0173661D01*
X0136854Y0176059D02*
X0136853Y0176059D01*
X0132488Y0176059D02*
X0118064Y0176059D01*
X0119781Y0178458D02*
X0121841Y0178458D01*
X0120619Y0180856D02*
X0119375Y0180856D01*
X0121227Y0183255D02*
X0115503Y0183255D01*
X0112619Y0178458D02*
X0111781Y0178458D01*
X0124706Y0188052D02*
X0134800Y0188052D01*
X0134800Y0185653D02*
X0126595Y0185653D01*
X0127173Y0183255D02*
X0135715Y0183255D01*
X0132605Y0180856D02*
X0127781Y0180856D01*
X0126559Y0178458D02*
X0132488Y0178458D01*
X0175968Y0142480D02*
X0177431Y0142480D01*
X0177000Y0140082D02*
X0176400Y0140082D01*
X0176400Y0137683D02*
X0177000Y0137683D01*
X0177031Y0135284D02*
X0176368Y0135284D01*
X0162888Y0125690D02*
X0162737Y0125690D01*
X0175400Y0041743D02*
X0176000Y0041743D01*
X0176235Y0039344D02*
X0175165Y0039344D01*
X0175165Y0036946D02*
X0176235Y0036946D01*
X0176790Y0034547D02*
X0174610Y0034547D01*
X0182500Y0032148D02*
X0187457Y0032148D01*
X0193006Y0032148D02*
X0196902Y0032148D01*
X0196864Y0032121D02*
X0196289Y0031546D01*
X0195811Y0030888D01*
X0195442Y0030163D01*
X0195190Y0029389D01*
X0195063Y0028586D01*
X0195063Y0028179D01*
X0195063Y0027772D01*
X0195190Y0026969D01*
X0195442Y0026195D01*
X0195811Y0025470D01*
X0196289Y0024812D01*
X0196864Y0024237D01*
X0197523Y0023759D01*
X0198247Y0023389D01*
X0199021Y0023138D01*
X0199825Y0023011D01*
X0200231Y0023011D01*
X0200231Y0028179D01*
X0195063Y0028179D01*
X0200231Y0028179D01*
X0200231Y0028179D01*
X0200232Y0028179D01*
X0200231Y0028179D01*
X0200231Y0033348D01*
X0199825Y0033348D01*
X0199021Y0033220D01*
X0198247Y0032969D01*
X0197523Y0032600D01*
X0196864Y0032121D01*
X0195307Y0029750D02*
X0194742Y0029750D01*
X0195000Y0027351D02*
X0195130Y0027351D01*
X0196187Y0024953D02*
X0193749Y0024953D01*
X0200231Y0024953D02*
X0200232Y0024953D01*
X0200231Y0027351D02*
X0200232Y0027351D01*
X0200231Y0029750D02*
X0200232Y0029750D01*
X0200231Y0032148D02*
X0200232Y0032148D01*
X0267000Y0089713D02*
X0267400Y0089713D01*
X0267400Y0092111D02*
X0267000Y0092111D01*
X0283465Y0262406D02*
X0207943Y0262406D01*
X0207943Y0264804D02*
X0283465Y0264804D01*
D25*
X0184200Y0155163D02*
X0176200Y0155163D01*
X0184200Y0155163D02*
X0186854Y0152510D01*
X0188200Y0152510D01*
X0188200Y0145817D02*
X0197546Y0145817D01*
X0198200Y0145163D01*
X0181200Y0146163D02*
X0181200Y0142510D01*
X0181200Y0146163D02*
X0180200Y0147163D01*
X0176200Y0147163D01*
X0170200Y0147163D01*
X0168200Y0149163D01*
X0168200Y0155163D01*
X0166200Y0157163D01*
X0134200Y0157163D01*
X0126200Y0148163D02*
X0126700Y0147663D01*
X0123200Y0151663D02*
X0121200Y0153663D01*
X0121200Y0159163D01*
X0123200Y0151663D02*
X0117046Y0151663D01*
X0116546Y0151163D01*
X0119854Y0139163D02*
X0119546Y0131163D01*
X0125700Y0131163D01*
X0113546Y0119163D02*
X0110546Y0122163D01*
X0113546Y0119163D02*
X0142200Y0119163D01*
X0144700Y0116663D01*
X0143200Y0111163D02*
X0143200Y0101510D01*
X0151200Y0101510D01*
X0146700Y0107163D02*
X0159854Y0107163D01*
X0159854Y0100163D01*
X0159854Y0115163D02*
X0154200Y0115163D01*
X0160200Y0115163D02*
X0160200Y0123163D01*
X0166854Y0123163D01*
X0170854Y0119163D01*
X0185200Y0119163D01*
X0187200Y0117163D01*
X0187200Y0113163D01*
X0166854Y0123163D02*
X0166200Y0123817D01*
X0166200Y0129163D01*
X0167200Y0130163D01*
X0169854Y0130163D01*
X0172200Y0142510D02*
X0172546Y0143163D01*
X0169200Y0143163D01*
X0167200Y0145163D01*
X0130200Y0115163D02*
X0129700Y0114663D01*
X0129700Y0108510D01*
X0129546Y0108663D01*
X0129700Y0108510D02*
X0130354Y0109163D01*
X0135200Y0109163D01*
X0136200Y0108163D01*
X0136200Y0104163D01*
X0130200Y0115163D02*
X0123546Y0115163D01*
X0122546Y0108163D02*
X0122546Y0104510D01*
X0120200Y0102163D01*
X0103200Y0102163D01*
X0069200Y0137163D02*
X0041200Y0137163D01*
X0041200Y0171163D01*
X0069200Y0171163D01*
X0069200Y0137163D01*
X0069200Y0137970D02*
X0041200Y0137970D01*
X0041200Y0138968D02*
X0069200Y0138968D01*
X0069200Y0139967D02*
X0041200Y0139967D01*
X0041200Y0140965D02*
X0069200Y0140965D01*
X0069200Y0141964D02*
X0041200Y0141964D01*
X0041200Y0142962D02*
X0069200Y0142962D01*
X0069200Y0143961D02*
X0041200Y0143961D01*
X0041200Y0144959D02*
X0069200Y0144959D01*
X0069200Y0145958D02*
X0041200Y0145958D01*
X0041200Y0146956D02*
X0069200Y0146956D01*
X0069200Y0147955D02*
X0041200Y0147955D01*
X0041200Y0148953D02*
X0047072Y0148953D01*
X0047192Y0148833D02*
X0047534Y0148636D01*
X0047916Y0148533D01*
X0054700Y0148533D01*
X0054700Y0153864D01*
X0055700Y0153864D01*
X0055700Y0148533D01*
X0062484Y0148533D01*
X0062866Y0148636D01*
X0063208Y0148833D01*
X0063487Y0149112D01*
X0063684Y0149454D01*
X0063787Y0149836D01*
X0063787Y0153864D01*
X0055700Y0153864D01*
X0055700Y0154864D01*
X0063787Y0154864D01*
X0063787Y0158892D01*
X0063684Y0159274D01*
X0063487Y0159616D01*
X0063208Y0159895D01*
X0062866Y0160093D01*
X0062484Y0160195D01*
X0055700Y0160195D01*
X0055700Y0154864D01*
X0054700Y0154864D01*
X0054700Y0153864D01*
X0046613Y0153864D01*
X0046613Y0149836D01*
X0046716Y0149454D01*
X0046913Y0149112D01*
X0047192Y0148833D01*
X0046613Y0149952D02*
X0041200Y0149952D01*
X0041200Y0150951D02*
X0046613Y0150951D01*
X0046613Y0151949D02*
X0041200Y0151949D01*
X0041200Y0152948D02*
X0046613Y0152948D01*
X0046613Y0154864D02*
X0054700Y0154864D01*
X0054700Y0160195D01*
X0047916Y0160195D01*
X0047534Y0160093D01*
X0047192Y0159895D01*
X0046913Y0159616D01*
X0046716Y0159274D01*
X0046613Y0158892D01*
X0046613Y0154864D01*
X0046613Y0154945D02*
X0041200Y0154945D01*
X0041200Y0155943D02*
X0046613Y0155943D01*
X0046613Y0156942D02*
X0041200Y0156942D01*
X0041200Y0157940D02*
X0046613Y0157940D01*
X0046626Y0158939D02*
X0041200Y0158939D01*
X0041200Y0159937D02*
X0047265Y0159937D01*
X0041200Y0160936D02*
X0069200Y0160936D01*
X0069200Y0161934D02*
X0041200Y0161934D01*
X0041200Y0162933D02*
X0069200Y0162933D01*
X0069200Y0163931D02*
X0041200Y0163931D01*
X0041200Y0164930D02*
X0069200Y0164930D01*
X0069200Y0165928D02*
X0041200Y0165928D01*
X0041200Y0166927D02*
X0069200Y0166927D01*
X0069200Y0167925D02*
X0041200Y0167925D01*
X0041200Y0168924D02*
X0069200Y0168924D01*
X0069200Y0169922D02*
X0041200Y0169922D01*
X0041200Y0170921D02*
X0069200Y0170921D01*
X0069200Y0159937D02*
X0063135Y0159937D01*
X0063774Y0158939D02*
X0069200Y0158939D01*
X0069200Y0157940D02*
X0063787Y0157940D01*
X0063787Y0156942D02*
X0069200Y0156942D01*
X0069200Y0155943D02*
X0063787Y0155943D01*
X0063787Y0154945D02*
X0069200Y0154945D01*
X0069200Y0153946D02*
X0055700Y0153946D01*
X0055700Y0152948D02*
X0054700Y0152948D01*
X0054700Y0153946D02*
X0041200Y0153946D01*
X0054700Y0154945D02*
X0055700Y0154945D01*
X0055700Y0155943D02*
X0054700Y0155943D01*
X0054700Y0156942D02*
X0055700Y0156942D01*
X0055700Y0157940D02*
X0054700Y0157940D01*
X0054700Y0158939D02*
X0055700Y0158939D01*
X0055700Y0159937D02*
X0054700Y0159937D01*
X0054700Y0151949D02*
X0055700Y0151949D01*
X0055700Y0150951D02*
X0054700Y0150951D01*
X0054700Y0149952D02*
X0055700Y0149952D01*
X0055700Y0148953D02*
X0054700Y0148953D01*
X0063328Y0148953D02*
X0069200Y0148953D01*
X0069200Y0149952D02*
X0063787Y0149952D01*
X0063787Y0150951D02*
X0069200Y0150951D01*
X0069200Y0151949D02*
X0063787Y0151949D01*
X0063787Y0152948D02*
X0069200Y0152948D01*
X0112200Y0044817D02*
X0112200Y0024163D01*
X0110200Y0022163D01*
X0096200Y0022163D01*
X0094200Y0024163D01*
X0094200Y0028148D01*
X0094169Y0028179D01*
X0121200Y0030163D02*
X0123184Y0028179D01*
X0135192Y0028179D01*
X0121200Y0030163D02*
X0121200Y0044817D01*
X0180200Y0037817D02*
X0180200Y0031163D01*
X0183200Y0028163D01*
X0190216Y0028163D01*
X0190231Y0028179D01*
D26*
X0180200Y0050163D03*
X0136200Y0091163D03*
X0136200Y0104163D03*
X0143200Y0111163D03*
X0146700Y0107163D03*
X0154200Y0115163D03*
X0144700Y0116663D03*
X0160200Y0123163D03*
X0155200Y0136163D03*
X0147200Y0144163D03*
X0139200Y0136163D03*
X0125700Y0131163D03*
X0123200Y0151663D03*
X0121200Y0159163D03*
X0139200Y0152163D03*
X0155200Y0152163D03*
X0154200Y0163163D03*
X0144247Y0172864D03*
X0152200Y0173163D03*
X0165200Y0162163D03*
X0176200Y0155163D03*
X0167200Y0145163D03*
X0196200Y0128163D03*
X0194200Y0117163D03*
X0187200Y0113163D03*
X0180700Y0114163D03*
X0182700Y0098163D03*
X0197200Y0098163D03*
X0198200Y0145163D03*
X0209200Y0151163D03*
X0233200Y0150163D03*
X0245200Y0163163D03*
X0251200Y0167163D03*
X0176200Y0192163D03*
X0162200Y0202163D03*
X0142200Y0192163D03*
X0124200Y0181163D03*
X0116200Y0179163D03*
X0108200Y0179163D03*
X0096200Y0194163D03*
X0078200Y0178163D03*
X0074200Y0182163D03*
X0070200Y0186163D03*
X0059700Y0180663D03*
X0086200Y0170163D03*
X0094200Y0164163D03*
X0101200Y0164163D03*
X0094200Y0134163D03*
X0094700Y0108163D03*
X0103200Y0102163D03*
X0088200Y0089163D03*
X0086200Y0097163D03*
X0042200Y0079163D03*
X0119200Y0203163D03*
D27*
X0137200Y0207470D02*
X0137546Y0207817D01*
X0137200Y0208163D01*
X0137200Y0207470D02*
X0137200Y0185163D01*
X0139200Y0183163D01*
X0142200Y0183163D01*
X0143546Y0181817D01*
X0143546Y0178163D01*
X0144247Y0177463D01*
X0144247Y0172864D01*
X0134200Y0163163D02*
X0131200Y0166163D01*
X0120700Y0166163D01*
X0120200Y0165663D01*
X0116200Y0179163D02*
X0112200Y0183163D01*
X0075200Y0183163D01*
X0074200Y0182163D01*
X0078200Y0178163D02*
X0079200Y0179163D01*
X0108200Y0179163D01*
X0123200Y0186163D02*
X0070200Y0186163D01*
X0055200Y0164163D02*
X0094200Y0164163D01*
X0084200Y0147163D02*
X0112546Y0147163D01*
X0116546Y0151163D01*
X0117200Y0151817D01*
X0126546Y0139163D02*
X0132200Y0139163D01*
X0134200Y0141163D01*
X0134200Y0157163D01*
X0134200Y0163163D01*
X0124200Y0181163D02*
X0124200Y0185163D01*
X0123200Y0186163D01*
X0084200Y0147163D02*
X0083200Y0146163D01*
X0083200Y0144163D01*
X0081688Y0142652D01*
X0076200Y0142652D01*
X0103200Y0102163D02*
X0103854Y0101510D01*
X0103854Y0089163D01*
X0097200Y0089163D01*
X0095200Y0087163D01*
X0095200Y0064163D01*
X0097200Y0062163D01*
X0110200Y0062163D01*
X0112200Y0060163D01*
X0112200Y0051510D01*
X0121200Y0051510D01*
X0122200Y0069163D02*
X0117200Y0074163D01*
X0117200Y0079163D01*
X0117200Y0088163D01*
X0118200Y0089163D01*
X0119200Y0089163D01*
X0118200Y0089163D02*
X0117854Y0089163D01*
X0110546Y0089163D01*
X0122546Y0108163D02*
X0129354Y0108163D01*
X0129700Y0108510D01*
X0159854Y0115163D02*
X0160200Y0115163D01*
X0166546Y0100163D02*
X0179700Y0100163D01*
X0182700Y0097163D01*
X0182700Y0098163D01*
X0190200Y0093163D02*
X0190200Y0110163D01*
X0187200Y0113163D01*
X0190200Y0093163D02*
X0186546Y0089510D01*
X0186546Y0089163D01*
X0198200Y0089163D01*
X0200200Y0087163D01*
X0200200Y0064163D01*
X0193200Y0057163D01*
X0173200Y0057163D01*
X0171200Y0055163D01*
X0171200Y0044510D01*
X0171200Y0037817D02*
X0168546Y0037817D01*
X0164200Y0042163D01*
X0150200Y0042163D01*
X0149200Y0041163D01*
X0149200Y0035156D01*
X0149208Y0035148D01*
X0180200Y0044510D02*
X0180200Y0050163D01*
X0177200Y0069163D02*
X0172200Y0074163D01*
X0172200Y0079163D01*
X0172200Y0088163D01*
X0173200Y0089163D01*
X0171546Y0089163D01*
X0179854Y0089163D01*
X0198200Y0145163D02*
X0198200Y0160163D01*
X0196200Y0162163D01*
X0165200Y0162163D01*
X0165854Y0162817D01*
X0165854Y0167163D01*
X0166546Y0173163D02*
X0168200Y0174817D01*
D28*
X0166546Y0173163D02*
X0238200Y0173163D01*
X0240200Y0171163D01*
X0240200Y0073163D01*
X0243200Y0070163D01*
X0262200Y0070163D01*
X0272200Y0080163D02*
X0267200Y0085163D01*
X0248200Y0085163D01*
X0245200Y0088163D01*
X0245200Y0163163D01*
X0245200Y0174163D01*
X0243200Y0176163D01*
X0239546Y0180163D01*
X0232854Y0180163D02*
X0231507Y0181510D01*
X0168200Y0181510D01*
X0166546Y0173163D02*
X0152200Y0173163D01*
X0149200Y0168163D02*
X0141200Y0168163D01*
X0139200Y0170163D01*
X0109546Y0170163D01*
X0102854Y0170163D02*
X0086200Y0170163D01*
X0076200Y0142652D02*
X0082200Y0136652D01*
X0082200Y0110663D01*
X0084700Y0108163D01*
X0094700Y0108163D01*
X0115854Y0108163D01*
X0086200Y0097163D02*
X0035200Y0097163D01*
X0032200Y0100163D01*
X0149200Y0168163D02*
X0154200Y0163163D01*
X0176546Y0130163D02*
X0187546Y0129817D01*
X0193200Y0124163D01*
X0201200Y0124163D01*
X0251200Y0167163D02*
X0259200Y0167163D01*
X0262200Y0170163D01*
D29*
X0176200Y0147163D03*
X0130200Y0115163D03*
X0126700Y0147663D03*
X0120200Y0165663D03*
M02*
